<?xml version="1.0" encoding="UTF-8"?>
<svg id="Capa_1" xmlns="http://www.w3.org/2000/svg" version="1.1" viewBox="0 0 1080 293.15" fill="#CFB27E">
  <!-- Generator: Adobe Illustrator 29.8.1, SVG Export Plug-In . SVG Version: 2.1.1 Build 2)  -->
  <g>
    <path d="M107.99,167v-2.15l.59-.39c6.65-2.35,8.21-5.28,8.21-12.32V54.36c0-7.24-1.56-9.97-8.21-12.32l-.59-.39v-2.15h28.36c17.99,0,23.86,19.56,23.86,32.85,0,11.73-4.5,28.75-18.77,32.27,6.26,16.82,12.71,33.64,19.36,50.26,1.96,4.89,3.13,7.63,8.02,9.78l.59.2v2.15h-9.97c-2.15,0-3.72-1.56-5.08-3.13-1.17-1.56-2.15-3.52-2.74-4.89l-20.53-53.78h-5.28v46.93c0,7.04,1.56,9.97,8.21,12.32l.59.39v2.15h-26.6ZM125.78,100.32h10.56c11.54,0,14.67-18.77,14.67-27.96s-3.13-27.96-14.67-27.96h-10.56v55.93Z"/>
    <path d="M159.42,41.65v-2.15h26.4v2.15l-1.37.59c-6.06,2.93-7.24,5.28-7.24,12.12v66.29c0,2.54,0,6.45.2,11.15.39,4.69.78,9.97,1.96,14.67,1.96,9.97,6.06,17.6,13.69,17.6,18.77,0,20.14-29.53,20.14-43.41v-59.25c0-8.6-.59-16.43-9.19-18.97-.39-.2-.59-.2-.78-.2s-.59-.2-.98-.39l-.59-.2v-2.15h23.47v2.15l-.59.39c-1.76.59-3.33,1.17-4.5,2.15-1.37,1.37-2.35,4.5-2.74,8.02-.39,3.52-.39,7.04-.39,9.19v59.25c0,13.88-1.17,48.3-23.86,48.3s-25.03-33.63-25.03-48.3V54.36c0-6.84-1.17-9.19-7.24-12.12l-1.37-.59Z"/>
    <path d="M226.3,167v-2.15l.59-.39c6.65-2.35,8.21-5.28,8.21-12.32V54.36c0-7.24-1.56-9.97-8.21-12.32l-.59-.39v-2.15h26.4c16.43,0,21.32,19.36,21.32,31.09,0,8.8-2.35,21.32-10.95,26.99,12.91,4.69,16.82,23.08,16.82,34.22,0,12.71-5.08,35.4-23.08,35.4h-15.06v-.2h-15.45ZM244.09,96.41h9.58c4.69,0,7.63-3.72,9.39-9.19s2.15-11.73,2.15-15.25c0-3.71-.59-10.75-2.54-16.82-1.96-6.26-5.28-10.76-9.97-10.76h-8.6v52.02ZM244.09,162.31h12.71c5.48,0,9-4.89,11.15-11.93,2.15-6.84,2.74-14.47,2.74-18.58s-.59-11.73-2.74-18.58-5.67-11.93-11.15-11.93h-12.71v61.01Z"/>
    <path d="M290.24,167v-2.15l.59-.39c6.45-2.35,8.02-5.48,8.02-12.32v-44.39s-17.41-51.24-19.17-56.12c-1.76-5.28-3.13-7.63-8.02-9.78l-.59-.2v-2.15h26.4v2.15l-.59.2c-4.11,1.76-6.65,3.13-6.65,7.24,0,1.56.39,3.33.98,4.89l15.64,44.98c4.89-14.86,9.97-29.92,14.28-44.78.59-1.56.78-2.74.78-4.3,0-4.5-3.13-6.26-7.63-7.82l-.59-.39v-2.15h20.73v2.15l-.59.2c-2.74,1.37-4.5,3.13-5.67,5.08-.59,1.17-1.17,2.35-1.56,3.72-.59,1.17-.98,2.54-1.37,3.91-.59,1.76-4.89,15.06-8.8,27.96-2.15,6.45-4.11,12.71-5.67,17.6-.78,2.35-1.37,4.3-1.96,5.67-.2.78-.39,1.37-.39,1.56-.2.2-.2.39-.2.59v44.2c0,7.04,1.56,9.78,8.21,12.32l.59.39v2.15h-26.79Z"/>
    <path d="M358.68,167v-2.15l.59-.39c6.65-2.35,8.21-5.28,8.21-12.32V54.36c0-7.24-1.56-9.97-8.21-12.32l-.59-.39v-2.15h28.36c17.99,0,23.86,19.56,23.86,32.85,0,11.73-4.5,28.75-18.77,32.27,6.26,16.82,12.71,33.64,19.36,50.26,1.96,4.89,3.13,7.63,8.02,9.78l.59.2v2.15h-9.97c-2.15,0-3.72-1.56-5.08-3.13-1.17-1.56-2.15-3.52-2.74-4.89l-20.53-53.78h-5.28v46.93c0,7.04,1.56,9.97,8.21,12.32l.59.39v2.15h-26.6ZM376.48,100.32h10.56c11.54,0,14.67-18.77,14.67-27.96s-3.13-27.96-14.67-27.96h-10.56v55.93Z"/>
    <path d="M416.57,167v-2.35l.78-.2c6.06-1.76,7.24-6.06,8.41-12.12l21.71-114.79h2.35l25.03,117.53c.98,4.69,2.93,8.21,7.82,9.39l.78.2v2.35h-26.4v-2.15l.59-.2c1.17-.59,2.35-1.17,3.13-1.56.98-.39,1.76-.78,2.35-1.37.98-.98,1.76-2.35,1.76-5.08,0-1.37-.2-2.74-.59-4.3l-6.26-29.33h-22.88c-1.56,9.78-3.72,19.36-5.28,29.33-.2,1.17-.39,2.35-.39,3.52,0,3.13.78,4.69,2.15,5.67.78.59,1.56.98,2.35,1.56,1.17.39,2.35.98,3.72,1.56l.59.2v2.15h-21.71ZM436.12,118.11h20.92l-11.34-52.21-9.58,52.21Z"/>
    <path d="M480.71,167v-2.15l1.76-.78c8.8-2.93,8.8-10.17,8.8-19.16V51.23c0-5.87-3.33-7.43-9-9.19l-.59-.2v-2.35h17.01l26.6,104.04,23.66-104.04h15.64v2.15l-.59.39c-6.45,2.54-8.02,5.08-8.02,12.32v97.78c0,7.04,1.56,9.78,8.02,12.32l.59.39v2.15h-26.6v-2.15l.59-.39c6.65-2.54,8.21-5.28,8.21-12.32v-85.46l-23.27,102.28h-1.96l-26.4-103.64v79.59c0,7.82.78,17.21,9,19.16.39.2.59.2.78.2.39,0,.59.2.98.39l.59.2v2.15h-25.81Z"/>
    <path d="M562.06,103.25c0-17.6,5.08-65.71,32.85-65.71s32.85,48.11,32.85,65.71-5.28,65.71-32.85,65.71-32.85-48.11-32.85-65.71ZM618.18,103.25c0-14.28-3.32-60.82-23.27-60.82s-23.27,46.54-23.27,60.82,3.32,60.82,23.27,60.82,23.27-46.54,23.27-60.82Z"/>
    <path d="M629.13,123.98h2.74l.2.78c1.96,11.15,7.24,31.09,16.82,37.35,1.37.98,3.52,1.96,4.89,1.96,11.54,0,14.47-16.04,14.47-25.23,0-8.6-2.15-14.28-5.48-18.97-1.76-2.35-3.71-4.5-5.67-6.45-2.15-1.96-4.5-3.72-6.65-5.48-9-7.63-18.38-16.43-18.38-38.52,0-12.71,4.11-29.92,21.32-29.92h17.21l4.89,34.42h-2.54l-.2-.78c-2.15-10.76-7.04-28.75-20.14-28.75-4.69,0-7.43,3.72-9,9.19-1.76,5.28-2.15,11.34-2.15,14.86,0,7.82,2.15,13.3,5.28,17.8,1.76,2.35,3.72,4.5,5.67,6.45,2.15,1.96,4.5,3.91,6.65,5.87,9.19,8.21,18.38,17.8,18.38,39.7,0,11.73-5.67,30.9-21.9,30.9-1.37,0-2.93-.2-4.3-.39-1.56-.2-2.93-.59-4.3-.78-3.32-.78-6.84-.98-10.56-.98h-.78l-6.45-43.02Z"/>
    <path d="M701.48,167v-2.15l.59-.39c6.65-2.35,8.21-5.28,8.21-12.32V54.36c0-7.24-1.56-9.97-8.21-12.32l-.59-.39v-2.15h28.36c17.99,0,23.86,19.56,23.86,32.85,0,11.73-4.5,28.75-18.77,32.27,6.26,16.82,12.71,33.64,19.36,50.26,1.96,4.89,3.13,7.63,8.02,9.78l.59.2v2.15h-9.97c-2.15,0-3.72-1.56-5.08-3.13-1.17-1.56-2.15-3.52-2.74-4.89l-20.53-53.78h-5.28v46.93c0,7.04,1.56,9.97,8.21,12.32l.59.39v2.15h-26.6ZM719.28,100.32h10.56c11.54,0,14.67-18.77,14.67-27.96s-3.13-27.96-14.67-27.96h-10.56v55.93Z"/>
    <path d="M756.24,103.25c0-17.6,5.08-65.71,32.85-65.71s32.85,48.11,32.85,65.71-5.28,65.71-32.85,65.71-32.85-48.11-32.85-65.71ZM812.36,103.25c0-14.28-3.32-60.82-23.27-60.82s-23.27,46.54-23.27,60.82,3.32,60.82,23.27,60.82,23.27-46.54,23.27-60.82Z"/>
    <path d="M821.75,180.5v-2.93h.98c5.08,0,7.82-4.5,9.39-10.76.78-3.13.98-6.65,1.17-9.39.2-3.13.39-5.87.39-7.82.2-5.87.2-11.54.2-17.4V54.36c0-7.24-1.56-9.97-8.21-12.32l-.59-.39v-2.15h26.6v2.15l-.59.39c-6.65,2.35-8.21,5.08-8.21,12.32v77.83c0,6.65-.2,13.3-.59,19.95-.98,11.15-3.13,28.36-19.55,28.36h-.98Z"/>
    <path d="M843.45,167v-2.35l.78-.2c6.06-1.76,7.24-6.06,8.41-12.12l21.71-114.79h2.35l25.03,117.53c.98,4.69,2.93,8.21,7.82,9.39l.78.2v2.35h-26.4v-2.15l.59-.2c1.17-.59,2.35-1.17,3.13-1.56.98-.39,1.76-.78,2.35-1.37.98-.98,1.76-2.35,1.76-5.08,0-1.37-.2-2.74-.59-4.3l-6.26-29.33h-22.88c-1.56,9.78-3.72,19.36-5.28,29.33-.2,1.17-.39,2.35-.39,3.52,0,3.13.78,4.69,2.15,5.67.78.59,1.56.98,2.35,1.56,1.17.39,2.35.98,3.72,1.56l.59.2v2.15h-21.71ZM863.01,118.11h20.92l-11.34-52.21-9.58,52.21Z"/>
    <path d="M906.43,123.98h2.74l.2.78c1.96,11.15,7.24,31.09,16.82,37.35,1.37.98,3.52,1.96,4.89,1.96,11.54,0,14.47-16.04,14.47-25.23,0-8.6-2.15-14.28-5.47-18.97-1.76-2.35-3.72-4.5-5.67-6.45-2.15-1.96-4.5-3.72-6.65-5.48-9-7.63-18.38-16.43-18.38-38.52,0-12.71,4.11-29.92,21.32-29.92h17.21l4.89,34.42h-2.54l-.2-.78c-2.15-10.76-7.04-28.75-20.14-28.75-4.69,0-7.43,3.72-9,9.19-1.76,5.28-2.15,11.34-2.15,14.86,0,7.82,2.15,13.3,5.28,17.8,1.76,2.35,3.72,4.5,5.67,6.45,2.15,1.96,4.5,3.91,6.65,5.87,9.19,8.21,18.38,17.8,18.38,39.7,0,11.73-5.67,30.9-21.9,30.9-1.37,0-2.93-.2-4.3-.39-1.56-.2-2.93-.59-4.3-.78-3.32-.78-6.84-.98-10.56-.98h-.78l-6.45-43.02Z"/>
  </g>
  <g>
    <path d="M202.79,245.88h-5.36l-2.18-14.3h-8.71l-2.18,14.3h-5.21l9.09-54.41h5.44l9.09,54.41ZM194.55,226.83l-1.63-11.04c-.93-6.06-1.55-10.88-2.02-16.17-.47,5.29-1.09,10.1-2.02,16.17l-1.63,11.04h7.31Z"/>
    <path d="M235.98,230.1c0,11.19-5.67,15.78-12.44,15.78h-7.85v-54.41h7.54c8.01,0,11.81,5.52,11.81,13.84,0,6.84-2.64,10.1-5.83,11.97,3.81,1.94,6.76,5.21,6.76,12.83ZM230,205.46c0-6.22-2.56-9.17-6.92-9.17h-2.41v18.58h2.33c4.9,0,7-4.04,7-9.41ZM230.93,230.33c0-6.92-3.03-10.65-8.08-10.65h-2.18v21.38h3.11c4.51,0,7.15-3.34,7.15-10.73Z"/>
    <path d="M270.88,218.67c0,18.34-3.03,28.06-11.27,28.06s-11.27-9.72-11.27-28.06,3.03-28.06,11.27-28.06,11.27,9.72,11.27,28.06ZM265.75,218.67c0-16.17-2.18-23.24-6.22-23.24s-6.06,7.07-6.06,23.24,2.18,23.24,6.22,23.24,6.06-7.07,6.06-23.24Z"/>
    <path d="M305.23,228.54c0,9.4-2.18,18.19-10.8,18.19s-10.8-9.72-10.8-28.06,2.64-28.06,11.04-28.06c5.91,0,8.63,5.13,10.11,13.45l-4.9,1.32c-1.48-7.85-3.03-9.95-5.44-9.95-3.96,0-5.67,7.23-5.67,23.24s1.71,23.24,5.99,23.24c3.89,0,5.6-4.28,5.6-12.9v-6.45h-5.83v-4.74h10.73v10.73Z"/>
    <path d="M340.21,245.88h-5.36l-2.18-14.3h-8.71l-2.18,14.3h-5.21l9.09-54.41h5.44l9.09,54.41ZM331.97,226.83l-1.63-11.04c-.93-6.06-1.55-10.88-2.02-16.17-.47,5.29-1.09,10.1-2.02,16.17l-1.63,11.04h7.31Z"/>
    <path d="M373.94,218.28c0,18.66-4.12,27.59-13.37,27.59h-7.46v-54.41h8.16c9.87,0,12.67,9.95,12.67,26.82ZM368.89,218.52c0-15.47-2.57-22.31-7.7-22.31h-3.11v44.93h2.88c4.9,0,7.93-6.14,7.93-22.62Z"/>
    <path d="M409.15,218.67c0,18.34-3.03,28.06-11.27,28.06s-11.27-9.72-11.27-28.06,3.03-28.06,11.27-28.06,11.27,9.72,11.27,28.06ZM404.02,218.67c0-16.17-2.18-23.24-6.22-23.24s-6.06,7.07-6.06,23.24,2.18,23.24,6.22,23.24,6.06-7.07,6.06-23.24Z"/>
    <path d="M441.17,234.76c0,7.15-3.89,11.97-10.1,11.97s-9.25-4.66-10.34-12.83l5.05-1.17c1.17,7.15,2.95,9.17,5.36,9.17,3.19,0,4.97-2.64,4.97-6.45,0-5.05-2.25-10.57-7.38-16.25-5.83-6.53-7.46-10.65-7.46-17.41,0-6.14,3.42-11.19,9.41-11.19,6.3,0,8.71,4.28,10.26,10.73l-5.05,1.48c-1.48-5.6-2.72-7.38-5.36-7.38-2.8,0-4.2,3.11-4.2,5.91,0,4.35,1.09,7.77,6.22,13.52,5.91,6.53,8.63,12.67,8.63,19.9Z"/>
    <path d="M493.24,245.88h-18.11v-54.41h17.33v4.82h-12.36v18.11h8.63v4.82h-8.63v21.84h13.14v4.82Z"/>
    <path d="M524.33,234.76c0,7.15-3.89,11.97-10.1,11.97s-9.25-4.66-10.34-12.83l5.05-1.17c1.17,7.15,2.95,9.17,5.36,9.17,3.19,0,4.97-2.64,4.97-6.45,0-5.05-2.25-10.57-7.38-16.25-5.83-6.53-7.46-10.65-7.46-17.41,0-6.14,3.42-11.19,9.41-11.19,6.3,0,8.71,4.28,10.26,10.73l-5.05,1.48c-1.48-5.6-2.72-7.38-5.36-7.38-2.8,0-4.2,3.11-4.2,5.91,0,4.35,1.09,7.77,6.22,13.52,5.91,6.53,8.63,12.67,8.63,19.9Z"/>
    <path d="M557.98,205.85c0,10.8-6.06,15.31-12.51,15.31h-2.41v24.72h-4.97v-54.41h7.77c6.84,0,12.13,4.35,12.13,14.38ZM552.93,206.16c0-6.53-2.72-9.87-7.23-9.87h-2.64v20.05h2.64c4.51,0,7.23-3.58,7.23-10.18Z"/>
    <path d="M589,245.88h-18.11v-54.41h17.33v4.82h-12.36v18.11h8.63v4.82h-8.63v21.84h13.14v4.82Z"/>
    <path d="M621.25,233.75c-1.4,7.77-4.04,12.98-10.65,12.98-8.01,0-10.65-9.72-10.65-28.06s2.88-28.06,10.8-28.06c6.22,0,8.86,5.13,10.34,13.45l-4.9,1.32c-1.55-7.93-3.03-9.95-5.52-9.95-3.89,0-5.6,7.46-5.6,23.24s1.79,23.24,5.91,23.24c2.88,0,4.2-2.72,5.52-9.56l4.74,1.4Z"/>
    <path d="M639.59,245.88h-4.97v-54.41h4.97v54.41Z"/>
    <path d="M676.51,245.88h-5.36l-2.18-14.3h-8.71l-2.18,14.3h-5.21l9.09-54.41h5.44l9.09,54.41ZM668.27,226.83l-1.63-11.04c-.93-6.06-1.55-10.88-2.02-16.17-.47,5.29-1.09,10.1-2.02,16.17l-1.63,11.04h7.31Z"/>
    <path d="M705.89,245.88h-16.48v-54.41h4.97v49.59h11.5v4.82Z"/>
    <path d="M723.69,245.88h-4.97v-54.41h4.97v54.41Z"/>
    <path d="M755.55,245.88h-18.34v-4.43l13.29-45.24h-12.13v-4.74h17.18v4.43l-13.21,45.24h13.21v4.74Z"/>
    <path d="M790.3,245.88h-5.36l-2.18-14.3h-8.71l-2.18,14.3h-5.21l9.09-54.41h5.44l9.09,54.41ZM782.06,226.83l-1.63-11.04c-.93-6.06-1.55-10.88-2.02-16.17-.47,5.29-1.09,10.1-2.02,16.17l-1.63,11.04h7.31Z"/>
    <path d="M824.03,218.28c0,18.66-4.12,27.59-13.37,27.59h-7.46v-54.41h8.16c9.87,0,12.67,9.95,12.67,26.82ZM818.97,218.52c0-15.47-2.56-22.31-7.69-22.31h-3.11v44.93h2.88c4.9,0,7.93-6.14,7.93-22.62Z"/>
    <path d="M859.23,218.67c0,18.34-3.03,28.06-11.27,28.06s-11.27-9.72-11.27-28.06,3.03-28.06,11.27-28.06,11.27,9.72,11.27,28.06ZM854.1,218.67c0-16.17-2.18-23.24-6.22-23.24s-6.06,7.07-6.06,23.24,2.18,23.24,6.22,23.24,6.06-7.07,6.06-23.24Z"/>
    <path d="M891.26,234.76c0,7.15-3.89,11.97-10.11,11.97s-9.25-4.66-10.34-12.83l5.05-1.17c1.17,7.15,2.95,9.17,5.36,9.17,3.19,0,4.97-2.64,4.97-6.45,0-5.05-2.25-10.57-7.38-16.25-5.83-6.53-7.46-10.65-7.46-17.41,0-6.14,3.42-11.19,9.4-11.19,6.3,0,8.71,4.28,10.26,10.73l-5.05,1.48c-1.48-5.6-2.72-7.38-5.36-7.38-2.8,0-4.2,3.11-4.2,5.91,0,4.35,1.09,7.77,6.22,13.52,5.91,6.53,8.63,12.67,8.63,19.9Z"/>
  </g>
</svg>