<?xml version="1.0" encoding="UTF-8"?>
<svg id="Capa_1" xmlns="http://www.w3.org/2000/svg" version="1.1" viewBox="0 0 660.72 777.56">
  <!-- Generator: Adobe Illustrator 29.8.1, SVG Export Plug-In . SVG Version: 2.1.1 Build 2)  -->
  <defs>
    <style>
      .st0 {
        font-family: Kristas-Condensed, Krista's;
        font-size: 195.55px;
      }

      .st1 {
        fill: #010101;
      }

      .st2 {
        letter-spacing: 0em;
      }

      .st3 {
        font-size: 246.52px;
        letter-spacing: .03em;
      }

      .st3, .st4 {
        font-family: TimesNewRomanPS-BoldMT, 'Times New Roman';
        font-weight: 700;
      }

      .st5 {
        stroke: #000;
        stroke-miterlimit: 10;
        stroke-width: 3.4px;
      }

      .st6 {
        letter-spacing: -.01em;
      }

      .st4 {
        font-size: 246.52px;
        letter-spacing: .03em;
      }

      .st7 {
        letter-spacing: -.02em;
      }
    </style>
  </defs>
  <text class="st0" transform="translate(-117.86 932.29)"><tspan class="st6" x="0" y="0">RUBY </tspan><tspan class="st7" x="270.25" y="0">RAMOS</tspan><tspan class="st2" x="593.88" y="0"> </tspan></text>
  <g>
    <g>
      <rect class="st1" x="75.99" y="69.45" width="450.62" height="12.46"/>
      <path d="M524.89,71.17v9.02H77.7v-9.02h447.18M528.32,67.73H74.27v15.89h454.05v-15.89h0Z"/>
    </g>
    <g>
      <path class="st1" d="M200.37,162.22c-6.46,0-11.71-5.25-11.71-11.71v-4.46h231.49v4.46c0,6.46-5.25,11.71-11.71,11.71h-208.08Z"/>
      <path d="M418.3,147.91v2.6c0,5.43-4.42,9.85-9.85,9.85h-208.08c-5.43,0-9.85-4.42-9.85-9.85v-2.6h227.78M422.02,144.2h-235.21v6.31c0,7.49,6.07,13.56,13.56,13.56h208.08c7.49,0,13.56-6.07,13.56-13.56v-6.31h0Z"/>
    </g>
    <text class="st4" transform="translate(69.12 419.94)"><tspan x="0" y="0">S</tspan></text>
    <path class="st5" d="M322.63,387.63h-76.84c-.97,0-1.83.6-2.17,1.5l-8.96,23.57c-3.12,8.36-4.68,15.26-4.68,20.7,0,7.22,2.56,12.53,7.69,15.95,2.83,1.9,9.53,3.36,20.12,4.37,1.19.11,2.1,1.12,2.1,2.31v2.58c0,1.28-1.04,2.32-2.32,2.32h-70.72c-1.28,0-2.32-1.04-2.32-2.32v-2.79c0-1.08.74-2.02,1.8-2.26,7.33-1.62,13.41-5.34,18.26-11.14,5.24-6.27,11.7-19.21,19.39-38.83l80.47-203.99c.35-.89,1.21-1.47,2.16-1.47h0c.96,0,1.82.59,2.17,1.49l81.15,209.68c7.8,20,14.2,32.6,19.22,37.79,3.41,3.54,8.09,5.74,14.04,6.6,1.15.17,2,1.14,2,2.3v2.64c0,1.28-1.04,2.32-2.32,2.32h-104.98c-1.28,0-2.32-1.04-2.32-2.32v-2.38c0-1.28,1.04-2.32,2.32-2.32h2.19c8.8,0,14.98-1.39,18.55-4.18,2.45-2.02,3.68-4.94,3.68-8.73,0-2.28-.33-4.62-1-7.03-.22-1.14-1.9-5.89-5.01-14.24l-11.47-30.58c-.34-.91-1.21-1.51-2.18-1.51ZM317.36,370.42l-30.42-79.9c-.76-1.99-3.56-2-4.34-.02l-31.32,79.9c-.6,1.52.53,3.17,2.16,3.17h61.74c1.63,0,2.75-1.63,2.17-3.15Z"/>
    <text class="st3" transform="translate(396.64 419.01)"><tspan x="0" y="0">R</tspan></text>
    <g>
      <polygon class="st5" points="144.98 493.55 144.98 580.87 145.36 602.7 171.69 627.53 171.69 493.55 144.98 493.55"/>
      <polygon class="st5" points="201.46 493.55 201.46 655.6 228.17 680.79 228.17 493.55 201.46 493.55"/>
      <polygon class="st5" points="257.94 493.55 257.94 708.85 284.65 734.04 284.65 493.55 257.94 493.55"/>
      <polygon class="st5" points="312.13 493.55 312.13 735.67 338.85 710.86 338.85 493.55 312.13 493.55"/>
      <polygon class="st5" points="366.32 493.55 366.32 685.34 393.04 660.53 393.04 493.55 366.32 493.55"/>
      <polygon class="st5" points="421.28 493.55 421.28 634.3 447.99 609.49 447.99 493.55 421.28 493.55"/>
    </g>
    <g>
      <path d="M120.35,231.32c-5.8,0-11.69-.69-17.52-2.04-5.73-1.33-9.97-2.54-12.59-3.6-6.69-2.72-13-6.59-18.73-11.5-11.29-9.85-17.91-21.11-20.24-34.41-1.29-7.08-1.36-13.95-.21-20.41.6-3.61,1.43-6.84,2.52-9.88l.52-1.39c.47-1.32.87-2.36,1.32-3.37l2.44-4.82c.44-.88.88-1.64,1.37-2.38l2.27-3.63,2.58-3.43c3.05-4,6.63-7.39,10.71-10.15,7.44-5.03,13.72-7.8,21.66-9.55,18.28-4.03,73.39-6.07,163.8-6.07,70.71,0,144.26,1.24,183.78,1.9,13.68.23,22.72.38,25.78.38.38,0,.66,0,.85,0,1.99-.05,3.96-.08,5.85-.08,31.49,0,45.28,6.87,55.5,14.3,3.44,2.5,6.08,4.77,8.82,7.58,15.69,16.12,18.3,36.05,15.51,49.33-2.44,11.64-10.9,24.93-22.07,34.68-5.66,4.85-15.62,10.53-22.66,12.93-12.26,4.17-22.43,4.79-27.4,4.79-2.03,0-3.19-.11-3.2-.11-17.75-.08-32.32-5.38-42.16-15.33-8.31-8.4-12.85-19.78-12.78-32.05.08-13.66,4.2-23.83,12.23-30.21,6.55-5.6,15.45-8.81,24.43-8.81,2.12,0,4.17.18,6.09.55,9.15,1.39,17.27,6.89,20.71,14.01,2.65,5.19,2.85,9.85,2.71,13l-15.07,4.37-.09-4.13c-.05-1.74-.29-4.35-1.86-6.88-.62-1.03-3.1-4.48-9.05-5.04-.03,0-.1,0-.21,0-.13,0-13.58.49-16.64,4.65-4.5,4.26-4.01,10.76-3.53,17.04l.04.49c2.45,32.27,29.73,35.75,41.34,35.75,2.28,0,3.93-.13,4.55-.18,13.27-1.07,24.19-7.89,27.13-10.83,5.3-5.46,11.86-14.86,13.75-22.63,3.32-13.63,2.41-32.92-20.72-47.36-.3-.19-.54-.34-.72-.45-4.42-2.58-13.56-7.91-33.31-9.89-17.56-1.76-125.17-2.12-212.36-2.12-64.98,0-119.49.21-120.17.24-19.21.79-34.66,3.63-45.91,8.43-17.85,7.53-27.27,20.13-28.01,37.44-.02.4-.03.73-.05.99-1.54,20.25,11.74,34.35,18.97,38.97,9.33,5.96,15.77,7,25.86,7,1.61,0,3.3-.03,5.11-.06,9.08-.18,18.27-3.07,23.98-7.56,11.11-8.73,11.58-17.98,11.81-22.42.19-3.65.22-16.19-7.24-24.04-3.93-4.14-9.31-6.23-15.98-6.23-1.48,0-3.05.1-4.66.31-3.51.45-6.23,2-8.08,4.6-3.75,5.25-2.88,13.2-2.48,15.76l-14.98-4.2c-.15-2.47-.32-7.63,2.76-13.64,3.38-7.06,11.56-12.53,20.83-13.96,1.8-.34,3.84-.51,5.92-.51,8.98,0,17.93,3.25,24.57,8.91,9.15,7.27,14.81,19.44,14.43,31-.51,15.53-5.84,27.75-15.01,34.4-.15.11-.27.2-.35.26-4.76,4.08-11.23,7.17-19.24,9.2-5.55,1.4-11.35,2.11-17.25,2.11Z"/>
      <path d="M260.26,105.19c70.73,0,144.29,1.24,183.81,1.9,13.67.23,22.69.38,25.75.38.38,0,.67,0,.87,0,1.99-.05,3.95-.08,5.84-.08,31.34,0,45.05,6.82,55.2,14.2,3.42,2.48,6.03,4.73,8.75,7.52,15.55,15.98,18.14,35.72,15.38,48.87-2.42,11.54-10.82,24.72-21.9,34.39-5.63,4.82-15.51,10.46-22.5,12.84-12.19,4.14-22.29,4.76-27.23,4.76-2.01,0-3.14-.1-3.16-.1h-.05s-.04,0-.04,0c-17.57-.08-32.01-5.33-41.76-15.18-8.22-8.31-12.7-19.56-12.63-31.69.08-13.5,4.13-23.54,12.06-29.84,6.44-5.51,15.22-8.67,24.09-8.67,2.09,0,4.11.18,6.03.54,8.97,1.36,16.94,6.75,20.32,13.74,2.49,4.88,2.76,9.29,2.66,12.38l-14.08,4.08-.08-3.47c-.05-1.8-.3-4.49-1.92-7.11-.65-1.1-3.25-4.71-9.42-5.29-.05,0-.14-.01-.28-.01s-13.72.44-17.02,4.82c-4.64,4.43-4.14,11.03-3.65,17.41l.04.49c2.48,32.69,30.09,36.22,41.85,36.22,2.3,0,3.96-.13,4.62-.19,13.38-1.08,24.43-7.99,27.43-10.99,5.52-5.68,11.95-14.96,13.87-22.86,3.36-13.79,2.45-33.31-20.94-47.92-.29-.18-.53-.33-.71-.45l-.02-.02h-.02c-4.42-2.6-13.63-7.97-33.49-9.95-17.58-1.76-125.21-2.13-212.41-2.13-64.98,0-119.51.21-120.19.24-19.28.79-34.78,3.64-46.09,8.47-18.05,7.62-27.58,20.36-28.32,37.89-.02.39-.03.72-.05.97-1.56,20.49,11.88,34.76,19.21,39.43,9.38,5.99,16.16,7.08,26.13,7.08,1.71,0,3.47-.03,5.12-.06,9.18-.18,18.49-3.12,24.28-7.67,9.95-7.82,11.65-15.91,12.01-22.8.19-3.71.22-16.42-7.38-24.41-4.03-4.24-9.53-6.39-16.35-6.39-1.5,0-3.09.11-4.72.32-3.66.47-6.49,2.09-8.43,4.81-3.52,4.94-3.09,12.16-2.68,15.35l-13.89-3.9c-.14-2.54-.15-7.41,2.73-13.04,3.3-6.9,11.33-12.26,20.48-13.67,1.76-.33,3.77-.5,5.81-.5,8.86,0,17.69,3.2,24.27,8.82,9.02,7.17,14.6,19.17,14.22,30.58-.51,15.38-5.76,27.45-14.8,34.01-.16.12-.28.21-.39.3-4.68,4.02-11.08,7.07-19.02,9.08-5.51,1.39-11.27,2.1-17.13,2.1s-11.62-.68-17.4-2.02c-5.7-1.32-9.91-2.53-12.51-3.57-6.64-2.7-12.9-6.54-18.59-11.41-11.2-9.77-17.77-20.93-20.07-34.12-1.28-7.02-1.35-13.82-.21-20.24.6-3.57,1.41-6.78,2.49-9.78l.53-1.41c.45-1.28.85-2.3,1.29-3.31l2.44-4.83c.43-.86.86-1.6,1.36-2.35l2.25-3.58,2.57-3.43-.81-.61.85.56c2.97-3.9,6.52-7.26,10.55-9.98,7.39-4.99,13.61-7.74,21.49-9.47,18.25-4.02,73.32-6.06,163.69-6.06M260.26,104.18c-73.18,0-142.39,1.34-163.91,6.08-7.25,1.6-13.75,4.16-21.84,9.62-4.13,2.79-7.77,6.24-10.78,10.2-.01.02-.03.04-.04.06l-2.6,3.46-2.27,3.61c-.41.62-.87,1.38-1.4,2.44l-2.46,4.85c-.51,1.17-.93,2.28-1.33,3.4l-.52,1.4c-1.09,3.04-1.94,6.32-2.54,9.97-1.16,6.51-1.09,13.44.21,20.59,2.37,13.54,9.16,24.89,20.41,34.7,5.81,4.98,12.15,8.86,18.87,11.59,3.09,1.25,8.01,2.54,12.66,3.62,5.79,1.34,11.72,2.05,17.63,2.05s11.68-.69,17.38-2.13c7.41-1.87,14.26-4.85,19.44-9.29,1.29-1.03,14.69-9.25,15.55-35.04.39-11.9-5.54-24.2-14.6-31.4-6.73-5.74-15.8-9.04-24.9-9.04-2.12,0-4.19.18-6,.52-9.44,1.45-17.78,7.07-21.21,14.23-3.27,6.39-2.94,11.91-2.79,14.26l16.11,4.52s-3.89-18.78,9.99-20.56c1.62-.21,3.15-.31,4.59-.31,21.42,0,23.12,21.85,22.71,29.73-.28,5.45-1.25,13.91-11.62,22.05-6.11,4.8-15.41,7.3-23.68,7.46-1.8.03-3.49.06-5.1.06-9.74,0-16.27-.97-25.59-6.92-7.04-4.49-20.27-18.47-18.74-38.5.31-4.02-.71-26,27.75-38,14.64-6.25,33.73-7.9,45.74-8.39.74-.03,55.29-.24,120.15-.24,87.99,0,194.94.38,212.31,2.12,19.03,1.9,27.91,6.79,33.08,9.81,3.23,2.14,28.82,16.03,21.22,47.28-1.77,7.26-7.83,16.43-13.61,22.39-3.14,3.14-14.05,9.66-26.78,10.68-.62.05-2.25.18-4.54.18-11.23,0-38.4-3.21-40.84-35.28-.48-6.31-1.11-12.95,3.37-17.15,2.62-3.68,14.62-4.48,16.25-4.48.08,0,.13,0,.16,0,4.54.42,7.42,2.71,8.66,4.8,1.52,2.45,1.74,4.96,1.78,6.62l.11,4.79,16.05-4.65c.17-3.2.08-8.09-2.74-13.61-3.51-7.25-11.84-12.88-21.07-14.29-1.98-.37-4.07-.56-6.18-.56-9.1,0-18.18,3.3-24.75,8.92-9.21,7.33-12.35,18.72-12.42,30.61-.15,24.15,17.56,47.71,55.4,47.88,0,0,1.16.11,3.25.11,4.98,0,15.22-.62,27.56-4.82,6.86-2.33,16.98-8.01,22.83-13.03,11.21-9.78,19.75-23.14,22.23-34.95,2.67-12.72.45-33.25-15.65-49.79-2.88-2.96-5.54-5.21-8.88-7.64-10.55-7.67-24.69-14.39-55.8-14.39-1.89,0-3.85.02-5.87.08-.19,0-.47,0-.84,0-11.73,0-114.02-2.29-209.55-2.29h0Z"/>
    </g>
  </g>
</svg>