<?xml version="1.0" encoding="UTF-8"?>
<svg id="Capa_1" xmlns="http://www.w3.org/2000/svg" version="1.1" xmlns:xlink="http://www.w3.org/1999/xlink" viewBox="0 0 956.53 124.1">
  <!-- Generator: Adobe Illustrator 30.5.1, SVG Export Plug-In . SVG Version: 2.1.4 Build 3)  -->
  <defs>
    <style>
      .st0 {
        fill: url(#Degradado_sin_nombre_36);
      }

      .st1 {
        fill: url(#Degradado_sin_nombre_3626);
      }

      .st2 {
        fill: url(#Degradado_sin_nombre_364);
      }

      .st3 {
        fill: url(#Degradado_sin_nombre_3619);
      }

      .st4 {
        fill: url(#Degradado_sin_nombre_3629);
      }

      .st5 {
        fill: url(#Degradado_sin_nombre_365);
      }

      .st6 {
        fill: url(#Degradado_sin_nombre_3628);
      }

      .st7 {
        fill: url(#Degradado_sin_nombre_3621);
      }

      .st8 {
        fill: url(#Degradado_sin_nombre_3624);
      }

      .st9 {
        fill: url(#Degradado_sin_nombre_3620);
      }

      .st10 {
        fill: url(#Degradado_sin_nombre_3637);
      }

      .st11 {
        fill: url(#Degradado_sin_nombre_3639);
      }

      .st12 {
        fill: url(#Degradado_sin_nombre_363);
      }

      .st13 {
        fill: url(#Degradado_sin_nombre_367);
      }

      .st14 {
        fill: url(#Degradado_sin_nombre_361);
      }

      .st15 {
        fill: url(#Degradado_sin_nombre_362);
      }

      .st16 {
        fill: url(#Degradado_sin_nombre_3618);
      }

      .st17 {
        fill: url(#Degradado_sin_nombre_3623);
      }

      .st18 {
        fill: url(#Degradado_sin_nombre_369);
      }

      .st19 {
        fill: url(#Degradado_sin_nombre_3634);
      }

      .st20 {
        fill: url(#Degradado_sin_nombre_368);
      }

      .st21 {
        fill: url(#Degradado_sin_nombre_3633);
      }

      .st22 {
        isolation: isolate;
      }

      .st23 {
        fill: url(#Degradado_sin_nombre_3612);
      }

      .st24 {
        fill: url(#Degradado_sin_nombre_3625);
      }

      .st25 {
        fill: url(#Degradado_sin_nombre_3631);
      }

      .st26 {
        fill: url(#Degradado_sin_nombre_3610);
      }

      .st27 {
        fill: url(#Degradado_sin_nombre_3627);
      }

      .st28 {
        fill: url(#Degradado_sin_nombre_3613);
      }

      .st29 {
        fill: url(#Degradado_sin_nombre_3636);
      }

      .st30 {
        fill: url(#Degradado_sin_nombre_3632);
      }

      .st31 {
        fill: url(#Degradado_sin_nombre_3617);
      }

      .st32 {
        fill: url(#Degradado_sin_nombre_366);
      }

      .st33 {
        fill: url(#Degradado_sin_nombre_3635);
      }

      .st34 {
        fill: url(#Degradado_sin_nombre_3622);
      }

      .st35 {
        fill: url(#Degradado_sin_nombre_3614);
      }

      .st36 {
        fill: url(#Degradado_sin_nombre_3638);
      }

      .st37 {
        fill: url(#Degradado_sin_nombre_3615);
      }

      .st38 {
        fill: url(#Degradado_sin_nombre_3616);
      }

      .st39 {
        fill: url(#Degradado_sin_nombre_3611);
      }

      .st40 {
        fill: url(#Degradado_sin_nombre_3630);
      }
    </style>
    <linearGradient id="Degradado_sin_nombre_36" data-name="Degradado sin nombre 36" x1="11.19" y1="33.79" x2="69.87" y2="33.79" gradientUnits="userSpaceOnUse">
      <stop offset="0" stop-color="#cfb27e"/>
      <stop offset="1" stop-color="#b89a6a"/>
    </linearGradient>
    <linearGradient id="Degradado_sin_nombre_361" data-name="Degradado sin nombre 36" x1="73.41" y1="34.76" x2="136.19" y2="34.76" xlink:href="#Degradado_sin_nombre_36"/>
    <linearGradient id="Degradado_sin_nombre_362" data-name="Degradado sin nombre 36" x1="141.56" y1="33.94" x2="188.31" y2="33.94" xlink:href="#Degradado_sin_nombre_36"/>
    <linearGradient id="Degradado_sin_nombre_363" data-name="Degradado sin nombre 36" x1="196.9" y1="33.95" x2="257.54" y2="33.95" xlink:href="#Degradado_sin_nombre_36"/>
    <linearGradient id="Degradado_sin_nombre_364" data-name="Degradado sin nombre 36" x1="291.99" x2="350.67" xlink:href="#Degradado_sin_nombre_36"/>
    <linearGradient id="Degradado_sin_nombre_365" data-name="Degradado sin nombre 36" x1="353.5" y1="33.53" x2="420.12" y2="33.53" xlink:href="#Degradado_sin_nombre_36"/>
    <linearGradient id="Degradado_sin_nombre_366" data-name="Degradado sin nombre 36" x1="424.64" y1="33.95" x2="497.63" y2="33.95" xlink:href="#Degradado_sin_nombre_36"/>
    <linearGradient id="Degradado_sin_nombre_367" data-name="Degradado sin nombre 36" x1="506.95" y1="33.94" x2="567.53" y2="33.94" xlink:href="#Degradado_sin_nombre_36"/>
    <linearGradient id="Degradado_sin_nombre_368" data-name="Degradado sin nombre 36" x1="579.78" y1="33.95" x2="619.01" y2="33.95" xlink:href="#Degradado_sin_nombre_36"/>
    <linearGradient id="Degradado_sin_nombre_369" data-name="Degradado sin nombre 36" x1="657.54" x2="716.22" xlink:href="#Degradado_sin_nombre_36"/>
    <linearGradient id="Degradado_sin_nombre_3610" data-name="Degradado sin nombre 36" x1="723.61" y1="33.94" x2="784.19" y2="33.94" xlink:href="#Degradado_sin_nombre_36"/>
    <linearGradient id="Degradado_sin_nombre_3611" data-name="Degradado sin nombre 36" x1="791.76" y1="40.41" x2="827.36" y2="40.41" xlink:href="#Degradado_sin_nombre_36"/>
    <linearGradient id="Degradado_sin_nombre_3612" data-name="Degradado sin nombre 36" x1="831.66" y1="33.53" x2="898.27" y2="33.53" xlink:href="#Degradado_sin_nombre_36"/>
    <linearGradient id="Degradado_sin_nombre_3613" data-name="Degradado sin nombre 36" x1="906.11" y1="33.95" x2="945.34" y2="33.95" xlink:href="#Degradado_sin_nombre_36"/>
    <linearGradient id="Degradado_sin_nombre_3614" data-name="Degradado sin nombre 36" x1="91.21" y1="104.88" x2="118.38" y2="104.88" xlink:href="#Degradado_sin_nombre_36"/>
    <linearGradient id="Degradado_sin_nombre_3615" data-name="Degradado sin nombre 36" x1="122.34" y1="104.76" x2="151.31" y2="104.76" xlink:href="#Degradado_sin_nombre_36"/>
    <linearGradient id="Degradado_sin_nombre_3616" data-name="Degradado sin nombre 36" x1="158.15" y1="104.73" x2="183.48" y2="104.73" xlink:href="#Degradado_sin_nombre_36"/>
    <linearGradient id="Degradado_sin_nombre_3617" data-name="Degradado sin nombre 36" x1="205.53" y1="104.86" x2="235.55" y2="104.86" xlink:href="#Degradado_sin_nombre_36"/>
    <linearGradient id="Degradado_sin_nombre_3618" data-name="Degradado sin nombre 36" x1="240.32" y1="105.11" x2="273.52" y2="105.11" xlink:href="#Degradado_sin_nombre_36"/>
    <linearGradient id="Degradado_sin_nombre_3619" data-name="Degradado sin nombre 36" x1="280.67" y1="104.97" x2="306.96" y2="104.97" xlink:href="#Degradado_sin_nombre_36"/>
    <linearGradient id="Degradado_sin_nombre_3620" data-name="Degradado sin nombre 36" x1="311.92" y1="104.88" x2="339.09" y2="104.88" xlink:href="#Degradado_sin_nombre_36"/>
    <linearGradient id="Degradado_sin_nombre_3621" data-name="Degradado sin nombre 36" x1="345.85" y1="104.83" x2="372.81" y2="104.83" xlink:href="#Degradado_sin_nombre_36"/>
    <linearGradient id="Degradado_sin_nombre_3622" data-name="Degradado sin nombre 36" x1="379.94" y1="104.86" x2="401.2" y2="104.86" xlink:href="#Degradado_sin_nombre_36"/>
    <linearGradient id="Degradado_sin_nombre_3623" data-name="Degradado sin nombre 36" x1="398.93" y1="104.6" x2="428.52" y2="104.6" xlink:href="#Degradado_sin_nombre_36"/>
    <linearGradient id="Degradado_sin_nombre_3624" data-name="Degradado sin nombre 36" x1="433.28" y1="105.11" x2="466.48" y2="105.11" xlink:href="#Degradado_sin_nombre_36"/>
    <linearGradient id="Degradado_sin_nombre_3625" data-name="Degradado sin nombre 36" x1="473.35" y1="104.73" x2="498.68" y2="104.73" xlink:href="#Degradado_sin_nombre_36"/>
    <linearGradient id="Degradado_sin_nombre_3626" data-name="Degradado sin nombre 36" x1="504.91" y1="104.81" x2="526.37" y2="104.81" xlink:href="#Degradado_sin_nombre_36"/>
    <linearGradient id="Degradado_sin_nombre_3627" data-name="Degradado sin nombre 36" x1="531.45" y1="104.88" x2="558.62" y2="104.88" xlink:href="#Degradado_sin_nombre_36"/>
    <linearGradient id="Degradado_sin_nombre_3628" data-name="Degradado sin nombre 36" x1="583.12" y1="104.82" x2="586.9" y2="104.82" xlink:href="#Degradado_sin_nombre_36"/>
    <linearGradient id="Degradado_sin_nombre_3629" data-name="Degradado sin nombre 36" x1="594.08" y1="104.97" x2="620.37" y2="104.97" xlink:href="#Degradado_sin_nombre_36"/>
    <linearGradient id="Degradado_sin_nombre_3630" data-name="Degradado sin nombre 36" x1="623.03" y1="104.6" x2="652.61" y2="104.6" xlink:href="#Degradado_sin_nombre_36"/>
    <linearGradient id="Degradado_sin_nombre_3631" data-name="Degradado sin nombre 36" x1="658.8" y1="104.81" x2="680.28" y2="104.81" xlink:href="#Degradado_sin_nombre_36"/>
    <linearGradient id="Degradado_sin_nombre_3632" data-name="Degradado sin nombre 36" x1="684.69" y1="104.67" x2="716.49" y2="104.67" xlink:href="#Degradado_sin_nombre_36"/>
    <linearGradient id="Degradado_sin_nombre_3633" data-name="Degradado sin nombre 36" x1="723.43" y1="104.73" x2="748.76" y2="104.73" xlink:href="#Degradado_sin_nombre_36"/>
    <linearGradient id="Degradado_sin_nombre_3634" data-name="Degradado sin nombre 36" x1="752.74" y1="104.76" x2="781.71" y2="104.76" xlink:href="#Degradado_sin_nombre_36"/>
    <linearGradient id="Degradado_sin_nombre_3635" data-name="Degradado sin nombre 36" x1="788.82" y1="104.86" x2="810.09" y2="104.86" xlink:href="#Degradado_sin_nombre_36"/>
    <linearGradient id="Degradado_sin_nombre_3636" data-name="Degradado sin nombre 36" x1="816.33" y1="104.81" x2="837.81" y2="104.81" xlink:href="#Degradado_sin_nombre_36"/>
    <linearGradient id="Degradado_sin_nombre_3637" data-name="Degradado sin nombre 36" x1="842.86" y1="104.88" x2="870.03" y2="104.88" xlink:href="#Degradado_sin_nombre_36"/>
    <linearGradient id="Degradado_sin_nombre_3638" data-name="Degradado sin nombre 36" x1="0" y1="107.31" x2="73.02" y2="107.31" xlink:href="#Degradado_sin_nombre_36"/>
    <linearGradient id="Degradado_sin_nombre_3639" data-name="Degradado sin nombre 36" x1="883.5" y1="107.31" x2="956.53" y2="107.31" xlink:href="#Degradado_sin_nombre_36"/>
  </defs>
  <g class="st22">
    <path class="st0" d="M28.35,37.78v17.17c0,3.9.3,6.25.9,7.05s2.37,1.3,5.31,1.51l.83.04v2.71H11.19v-2.71l.83-.04c3.52-.23,5.61-.74,6.27-1.51s.98-3.12.98-7.05V12.93c0-3.94-.33-6.29-.98-7.04-.66-.75-2.75-1.25-6.27-1.48l-.83-.09V1.62h15.49l7.83-.22,3.48-.09c13.32,0,19.98,5.44,19.98,16.32,0,9.04-4.41,15.09-13.24,18.15l12.56,19.06c2.8,4.03,4.62,6.44,5.46,7.23s1.95,1.21,3.32,1.27c.41.06,1.38.12,2.93.18l.87.04v2.71h-16.48l-17.54-28.48h-7.5ZM28.44,34.86h3.2c11.32,0,16.98-5.4,16.98-16.21,0-5.12-1.06-8.76-3.18-10.9-2.12-2.14-5.74-3.21-10.85-3.21h-6.15v30.31h0Z"/>
    <path class="st14" d="M73.41,4.32V1.62h25.47v2.71l-.79.09c-3.58.23-5.69.72-6.33,1.46s-.96,3.09-.96,7.06v27.65c0,6.69.17,11.05.52,13.08.35,2.04,1.22,3.97,2.62,5.8,2.82,3.66,7.05,5.49,12.67,5.49,5.27,0,9.49-1.6,12.67-4.8,1.78-1.8,2.93-3.79,3.47-5.97s.81-6.07.81-11.68V12.93c0-3.94-.33-6.29-.98-7.04-.66-.75-2.76-1.25-6.31-1.48l-.79-.09V1.62h20.71v2.71l-.83.09c-3.58.23-5.69.72-6.31,1.46-.63.74-.94,3.09-.94,7.06v27.08c0,6-.33,10.4-1,13.19s-2.01,5.4-4.02,7.82c-3.79,4.57-9.64,6.86-17.56,6.86-16.02,0-24.02-8.61-24.02-25.82V12.93c0-3.94-.33-6.29-.98-7.04-.66-.75-2.75-1.25-6.27-1.48l-.83-.09h-.02Z"/>
    <path class="st15" d="M171.27,32.78c5.32.87,9.49,2.84,12.51,5.89s4.53,6.84,4.53,11.35c0,5.47-1.79,9.55-5.38,12.22-3.58,2.68-9.06,4.02-16.43,4.02h-24.94v-2.71l.83-.04c3.52-.23,5.61-.74,6.27-1.51s.98-3.12.98-7.05V12.93c0-3.94-.33-6.29-.98-7.04-.66-.75-2.75-1.25-6.27-1.48l-.83-.09V1.62h26.12c5.84,0,10.29,1.22,13.36,3.67,3.06,2.45,4.6,6,4.6,10.67,0,3.79-1.2,7.09-3.59,9.9-2.4,2.81-5.99,5.12-10.78,6.93h0ZM158.69,31.28h2.56c5,0,8.75-1.2,11.25-3.61s3.75-6,3.75-10.79c0-4.52-1.15-7.71-3.46-9.56-2.31-1.85-6.29-2.78-11.96-2.78h-2.14v26.73h0ZM158.69,34.2v20.75c0,4.46.37,6.87,1.1,7.25,1.38.76,3.43,1.14,6.15,1.14,3.82,0,6.92-1.2,9.31-3.6,2.39-2.4,3.58-5.53,3.58-9.37,0-10.77-6.71-16.16-20.14-16.16h0Z"/>
    <path class="st12" d="M222.23,37.61l-14.76-24.42c-3.12-5.12-4.85-7.84-5.2-8.15-.35-.31-1.85-.52-4.5-.63l-.87-.08V1.62h25.07v2.71h-.87c-4.14,0-6.23.47-6.29,1.42-.06.83,1.14,3.31,3.59,7.44l12.11,20.38,12.64-20.32c2.5-4.04,3.76-6.52,3.76-7.45,0-.99-2.02-1.48-6.07-1.48h-.79V1.62h17.49v2.71l-.83.08c-2.83.17-4.46.45-4.91.83s-2.22,3.03-5.31,7.96l-15.07,24.42v17.34c0,3.96.31,6.31.94,7.05.63.74,2.73,1.25,6.31,1.51l.83.04v2.71h-25.34v-2.71l.79-.04c3.61-.26,5.73-.76,6.36-1.51.63-.74.94-3.09.94-7.05v-17.34h-.02Z"/>
    <path class="st2" d="M309.15,37.78v17.17c0,3.9.3,6.25.9,7.05s2.37,1.3,5.31,1.51l.83.04v2.71h-24.2v-2.71l.83-.04c3.52-.23,5.61-.74,6.27-1.51s.98-3.12.98-7.05V12.93c0-3.94-.33-6.29-.98-7.04-.66-.75-2.75-1.25-6.27-1.48l-.83-.09V1.62h15.49l7.83-.22,3.48-.09c13.32,0,19.98,5.44,19.98,16.32,0,9.04-4.41,15.09-13.24,18.15l12.56,19.06c2.8,4.03,4.62,6.44,5.46,7.23s1.95,1.21,3.32,1.27c.41.06,1.38.12,2.93.18l.87.04v2.71h-16.48l-17.54-28.48h-7.5ZM309.23,34.86h3.2c11.32,0,16.98-5.4,16.98-16.21,0-5.12-1.06-8.76-3.18-10.9-2.12-2.14-5.74-3.21-10.85-3.21h-6.15v30.31h0Z"/>
    <path class="st5" d="M369.83,46.35l-3.74,8.59c-1.44,3.39-2.15,5.65-2.15,6.78,0,1.22,1.88,1.84,5.63,1.84h.7v2.71h-16.77v-2.71l.92-.04c2.5-.12,4-.43,4.48-.94s1.7-3.05,3.65-7.62L385.35.79h3.05l22.68,54.47c1.78,3.9,3.03,6.22,3.76,6.97.73.74,2.15,1.17,4.28,1.29l1,.04v2.71h-23.98v-2.71h.79c4.08,0,6.12-.58,6.12-1.75,0-1.72-.61-4-1.83-6.86l-3.62-8.6h-27.77ZM371.24,42.81h24.76l-12.29-29.44-12.47,29.44Z"/>
    <path class="st32" d="M424.64,4.32V1.62h18.55l19.3,47.1L481.38,1.62h16.25v2.71l-.83.09c-3.52.23-5.61.72-6.27,1.48-.66.75-.98,3.1-.98,7.04v42.02c0,3.93.33,6.28.98,7.05s2.74,1.27,6.27,1.51l.83.04v2.71h-24.64v-2.71l.79-.04c3.52-.23,5.61-.74,6.25-1.51.64-.77.96-3.12.96-7.05V10.53l-20.23,50.58h-3.24l-19.99-51.28v45.12c0,3.93.33,6.28.98,7.05s2.74,1.27,6.27,1.51l.83.04v2.71h-20.97v-2.71l.83-.04c3.52-.23,5.61-.74,6.27-1.51s.98-3.12.98-7.05V12.93c0-3.94-.32-6.29-.96-7.04-.64-.75-2.74-1.25-6.29-1.48l-.83-.09h0Z"/>
    <path class="st13" d="M537.24,67.88c-9.38,0-16.78-3.03-22.18-9.09-5.41-6.06-8.11-14.34-8.11-24.85s2.7-18.8,8.11-24.86c5.41-6.06,12.8-9.08,22.18-9.08s16.78,3.03,22.18,9.08c5.41,6.06,8.11,14.34,8.11,24.86s-2.7,18.8-8.11,24.85c-5.41,6.06-12.8,9.09-22.18,9.09ZM537.24,64.95c6.44,0,11.48-2.74,15.13-8.22s5.47-13.07,5.47-22.77-1.82-17.3-5.47-22.8c-3.64-5.49-8.69-8.24-15.13-8.24s-11.48,2.75-15.13,8.24c-3.64,5.49-5.47,13.09-5.47,22.8s1.82,17.3,5.47,22.77c3.65,5.48,8.69,8.22,15.13,8.22Z"/>
    <path class="st20" d="M579.79,64.95v-12.45h4.59l.04.79c.09,1.46.13,2.55.13,3.28,0,2.3.95,4.03,2.84,5.2,3.09,1.92,6.49,2.88,10.22,2.88s6.9-1.1,9.09-3.3c2.18-2.2,3.28-5.23,3.28-9.11,0-3.26-.7-5.85-2.1-7.78-1.4-1.92-4.12-4.02-8.17-6.29l-4.59-2.62c-9.9-5.59-14.85-11.69-14.85-18.3,0-4.98,1.78-9.1,5.35-12.36C589.19,1.63,593.66,0,599.05,0c2.33,0,4.86.23,7.58.68,2.72.45,5.64,1.14,8.76,2.08v11.49h-4.85l-.04-.74c-.09-1.57-.14-2.72-.14-3.45,0-2.45-.88-4.24-2.63-5.39s-4.49-1.72-8.23-1.72c-3.12,0-5.65,1.03-7.59,3.08s-2.91,4.75-2.91,8.1c0,2.85.67,5.21,2.01,7.08,1.34,1.86,3.76,3.79,7.25,5.77l4.59,2.62c6.35,3.61,10.63,6.76,12.84,9.43,2.21,2.68,3.32,6.04,3.32,10.09,0,5.39-2,9.87-6.01,13.43-4,3.57-9.01,5.35-15,5.35-3.49,0-6.76-.25-9.81-.74-3.04-.5-5.85-1.22-8.41-2.18v-.03Z"/>
    <path class="st18" d="M674.7,37.78v17.17c0,3.9.3,6.25.9,7.05s2.37,1.3,5.31,1.51l.83.04v2.71h-24.2v-2.71l.83-.04c3.52-.23,5.61-.74,6.27-1.51s.98-3.12.98-7.05V12.93c0-3.94-.33-6.29-.98-7.04-.66-.75-2.75-1.25-6.27-1.48l-.83-.09V1.62h15.49l7.83-.22,3.48-.09c13.32,0,19.98,5.44,19.98,16.32,0,9.04-4.41,15.09-13.24,18.15l12.56,19.06c2.8,4.03,4.62,6.44,5.46,7.23s1.95,1.21,3.32,1.27c.41.06,1.38.12,2.93.18l.87.04v2.71h-16.48l-17.54-28.48h-7.5ZM674.79,34.86h3.2c11.32,0,16.98-5.4,16.98-16.21,0-5.12-1.06-8.76-3.18-10.9s-5.74-3.21-10.85-3.21h-6.15v30.31h0Z"/>
    <path class="st26" d="M753.9,67.88c-9.38,0-16.78-3.03-22.18-9.09-5.41-6.06-8.11-14.34-8.11-24.85s2.7-18.8,8.11-24.86c5.41-6.06,12.8-9.08,22.18-9.08s16.78,3.03,22.18,9.08c5.41,6.06,8.11,14.34,8.11,24.86s-2.7,18.8-8.11,24.85c-5.41,6.06-12.8,9.09-22.18,9.09ZM753.9,64.95c6.44,0,11.48-2.74,15.13-8.22s5.47-13.07,5.47-22.77-1.82-17.3-5.47-22.8c-3.64-5.49-8.69-8.24-15.13-8.24s-11.48,2.75-15.13,8.24c-3.64,5.49-5.47,13.09-5.47,22.8s1.82,17.3,5.47,22.77,8.69,8.22,15.13,8.22Z"/>
    <path class="st39" d="M791.76,78.32v-11.84h5.11l.04,1.05.17,3.23c0,3.44,1.8,5.15,5.42,5.15,2.24,0,4.08-.92,5.5-2.77,1.43-1.85,2.14-4.23,2.14-7.14l-.04-6.2V12.93c-.17-4.35-.5-6.79-.98-7.34s-2.57-.94-6.27-1.17l-.83-.09V1.62h25.34v2.71l-.83.09c-3.55.23-5.65.72-6.29,1.48-.64.75-.96,3.1-.96,7.04v41.54c0,9-1.51,15.36-4.54,19.09-3.03,3.76-8.2,5.63-15.51,5.63-2.33,0-4.82-.29-7.47-.87h0Z"/>
    <path class="st23" d="M847.99,46.35l-3.74,8.59c-1.44,3.39-2.15,5.65-2.15,6.78,0,1.22,1.88,1.84,5.63,1.84h.7v2.71h-16.77v-2.71l.92-.04c2.5-.12,4-.43,4.48-.94s1.7-3.05,3.65-7.62L863.51.79h3.04l22.68,54.47c1.78,3.9,3.03,6.22,3.76,6.97.73.74,2.15,1.17,4.28,1.29l1,.04v2.71h-23.98v-2.71h.79c4.08,0,6.12-.58,6.12-1.75,0-1.72-.61-4-1.83-6.86l-3.62-8.6h-27.76ZM849.4,42.81h24.76l-12.29-29.44-12.47,29.44h0Z"/>
    <path class="st28" d="M906.12,64.95v-12.45h4.59l.04.79c.09,1.46.13,2.55.13,3.28,0,2.3.95,4.03,2.84,5.2,3.09,1.92,6.49,2.88,10.22,2.88s6.9-1.1,9.09-3.3c2.18-2.2,3.28-5.23,3.28-9.11,0-3.26-.7-5.85-2.1-7.78-1.4-1.92-4.12-4.02-8.17-6.29l-4.59-2.62c-9.9-5.59-14.85-11.69-14.85-18.3,0-4.98,1.78-9.1,5.35-12.36C915.52,1.63,919.99,0,925.38,0c2.33,0,4.86.23,7.58.68,2.72.45,5.64,1.14,8.76,2.08v11.49h-4.85l-.04-.74c-.09-1.57-.14-2.72-.14-3.45,0-2.45-.88-4.24-2.63-5.39s-4.49-1.72-8.23-1.72c-3.12,0-5.65,1.03-7.59,3.08s-2.91,4.75-2.91,8.1c0,2.85.67,5.21,2.01,7.08,1.34,1.86,3.76,3.79,7.25,5.77l4.59,2.62c6.35,3.61,10.63,6.76,12.84,9.43,2.21,2.68,3.32,6.04,3.32,10.09,0,5.39-2,9.87-6.01,13.43-4,3.57-9.01,5.35-15,5.35-3.49,0-6.76-.25-9.81-.74-3.04-.5-5.85-1.22-8.41-2.18v-.03Z"/>
  </g>
  <g>
    <g class="st22">
      <g class="st22">
        <path class="st35" d="M92.98,110c.53,0,.98.17,1.36.52s.57.79.57,1.32c.03,1.49.33,2.73.89,3.72s1.31,1.79,2.23,2.41c.93.61,1.98,1.04,3.18,1.29,1.19.25,2.43.37,3.72.37.93,0,1.9-.09,2.93-.27,1.02-.18,2-.48,2.93-.89.93-.41,1.73-.98,2.41-1.69s1.12-1.6,1.32-2.66c.3-1.36.02-2.7-.84-4.02-.93-1.39-2.38-2.37-4.37-2.93l-5.61-1.44c-.66-.17-1.36-.36-2.08-.6-.73-.23-1.46-.49-2.18-.77-.73-.28-1.42-.59-2.08-.94-.66-.35-1.26-.74-1.79-1.17-2.25-1.85-3.21-4.38-2.88-7.59.17-1.55.66-2.85,1.49-3.9.83-1.04,1.84-1.89,3.03-2.56,1.19-.66,2.5-1.13,3.92-1.41,1.42-.28,2.8-.42,4.12-.42,1.49.03,2.94.26,4.37.69,1.42.43,2.69,1.06,3.8,1.89s2,1.85,2.68,3.08c.68,1.22,1.03,2.66,1.07,4.32.03.5-.13.93-.5,1.29-.36.36-.79.56-1.29.6-.53,0-.98-.17-1.34-.52-.36-.35-.56-.79-.6-1.31,0-1.19-.27-2.19-.82-3s-1.26-1.46-2.13-1.94c-.88-.48-1.84-.83-2.88-1.04s-2.06-.32-3.05-.32c-.76,0-1.6.09-2.51.27s-1.77.47-2.58.87c-.81.4-1.5.91-2.06,1.54s-.89,1.39-.99,2.28c-.2,1.89.26,3.29,1.39,4.22.56.46,1.41.95,2.53,1.46,1.12.51,2.58.99,4.37,1.42.2.03.61.13,1.24.3.63.17,1.27.33,1.91.5.65.17,1.22.31,1.71.45.5.13.73.2.69.2,2.91.73,5.09,2.2,6.55,4.42,1.46,2.15,1.9,4.45,1.34,6.9-.36,1.59-1,2.92-1.91,4s-1.99,1.94-3.25,2.61c-1.26.66-2.61,1.13-4.07,1.42-1.46.28-2.91.42-4.37.42-1.89,0-3.62-.23-5.21-.69s-2.97-1.17-4.14-2.11-2.11-2.12-2.8-3.55c-.69-1.42-1.09-3.11-1.19-5.06-.03-.53.13-.98.5-1.34.36-.36.79-.56,1.29-.59l-.02-.05Z"/>
        <path class="st37" d="M122.46,120.07c1.92-4.73,3.91-9.77,5.98-15.11,2.07-5.34,4.23-11.06,6.48-17.15.17-.36.4-.65.72-.84.31-.2.65-.3,1.02-.3.23,0,.4.02.5.05.73.03,1.22.41,1.49,1.14.66,1.89,1.31,3.57,1.94,5.04s1.14,2.77,1.54,3.9c.13.36.35.94.65,1.71s.68,1.78,1.14,3l1.44,3.82c.03.1.09.26.17.47.08.22.17.46.27.72.1.27.2.52.3.77s.18.46.25.62c.99,2.61,1.88,4.95,2.66,7s1.5,3.84,2.16,5.36c.2.46.19.93-.02,1.41-.22.48-.55.82-1.02,1.02-.2.1-.43.15-.69.15-.83,0-1.41-.4-1.74-1.19-.43-1.06-.86-2.13-1.29-3.23-.43-1.09-.84-2.18-1.24-3.28h-4.76c-1.56,0-3.09.02-4.62.05h-7.35c-.13.33-.39,1.02-.77,2.06s-.95,2.44-1.71,4.19c-.33.79-.91,1.19-1.74,1.19-.27,0-.5-.05-.69-.15-.46-.23-.8-.58-1.02-1.04-.22-.46-.22-.93-.02-1.39h-.03ZM135.77,111.49c1.22-.03,2.49-.05,3.8-.05h4.14c-.1-.26-.25-.64-.45-1.14s-.33-.84-.4-1.04c-.69-1.89-1.4-3.75-2.11-5.58s-1.43-3.7-2.16-5.58c-.27-.79-.55-1.58-.84-2.36s-.61-1.55-.94-2.31c-1.39,3.64-2.66,6.96-3.8,9.95-1.14,3-2.19,5.7-3.15,8.11h5.91,0Z"/>
        <path class="st38" d="M158.15,121.07c.03-1.12.08-5.97.15-14.54v-17.87c.03-.53.24-.99.62-1.39.38-.4.85-.6,1.41-.6.4,0,.68-.02.84-.05h.99c1.59-.1,3.08-.15,4.47-.15,2.05,0,4.19.19,6.4.57,2.22.38,4.2,1.08,5.96,2.11,3.04,1.82,4.52,4.63,4.42,8.44-.07,2.68-.81,4.9-2.23,6.65s-3.42,2.93-6,3.52c1.69,2.42,3.18,4.64,4.49,6.67,1.31,2.04,2.49,3.9,3.55,5.58.26.43.33.89.2,1.39s-.41.88-.84,1.14c-.33.2-.66.3-.99.3-.66,0-1.17-.3-1.54-.89-1.29-2.05-2.67-4.2-4.14-6.45s-3.07-4.6-4.79-7.05c-.03-.03-.05-.07-.05-.1-.5.07-1.02.1-1.56.1h-1.71c-.86,0-1.77-.02-2.73-.05-.96-.03-1.97-.1-3.03-.2-.03,7.64-.08,11.96-.15,12.95,0,.5-.18.93-.55,1.29-.36.36-.81.55-1.34.55-.5-.03-.93-.23-1.29-.6-.36-.36-.55-.81-.55-1.34v.02ZM162.02,104.44c2.25.2,4.27.3,6.06.3,1.36,0,2.7-.06,4.04-.17,1.34-.12,2.56-.41,3.67-.89,1.11-.48,2.03-1.21,2.75-2.18.73-.98,1.12-2.31,1.19-4,.07-2.38-.83-4.12-2.68-5.21-.79-.46-1.65-.83-2.56-1.09-.91-.26-1.84-.47-2.8-.62s-1.92-.24-2.88-.27-1.89-.05-2.78-.05h-1.79c-.63,0-1.27.02-1.94.05-.03,0-.08,0-.15.02-.07.02-.12.02-.15.02v14.1h.02Z"/>
        <path class="st31" d="M208.82,93.52c1.59-2.25,3.55-4.03,5.88-5.33,2.33-1.31,4.87-1.96,7.62-1.96,1.49,0,2.9.22,4.24.67,1.34.45,2.56,1.08,3.67,1.89s2.08,1.79,2.93,2.93,1.51,2.41,2.01,3.8c.17.46.13.93-.1,1.39-.23.46-.58.78-1.04.94-.1.07-.21.1-.32.1h-.32c-.36,0-.71-.11-1.04-.32-.33-.21-.56-.52-.69-.92-.66-2.08-1.86-3.72-3.6-4.91-1.74-1.19-3.68-1.79-5.83-1.79s-4.06.49-5.83,1.46c-1.77.98-3.25,2.36-4.44,4.14-2.02,3.01-2.93,6.68-2.73,11.02.07,1.65.41,3.27,1.04,4.84.63,1.57,1.48,2.98,2.56,4.22,1.07,1.24,2.35,2.23,3.82,2.98,1.47.74,3.08,1.12,4.84,1.12,1.39,0,2.63-.28,3.72-.84s2.06-1.29,2.9-2.18,1.58-1.91,2.21-3.05,1.16-2.29,1.59-3.45c.33-.83.93-1.24,1.79-1.24.13,0,.33.03.6.1.5.13.85.44,1.07.92.21.48.24.95.07,1.41-.53,1.62-1.22,3.16-2.06,4.62s-1.86,2.73-3.05,3.82-2.53,1.96-4.02,2.61-3.14.97-4.96.97c-.53,0-1.07-.02-1.61-.07s-1.1-.16-1.66-.32c-1.85-.5-3.53-1.27-5.04-2.33-1.51-1.06-2.8-2.3-3.87-3.72-1.08-1.42-1.92-3-2.53-4.74s-.97-3.55-1.07-5.43c-.27-5.23.83-9.66,3.28-13.3l-.03-.05Z"/>
        <path class="st16" d="M240.33,104.89c.03-2.48.42-4.81,1.17-7s1.81-4.1,3.2-5.76c1.39-1.65,3.08-3,5.09-4.04,2-1.04,4.28-1.68,6.82-1.91.07-.03.15-.05.25-.05.13,0,.21.02.25.05,5.53.2,9.83,2.42,12.9,6.65,2.71,3.77,3.85,8.3,3.42,13.6-.2,2.35-.73,4.59-1.59,6.73-.86,2.13-2.01,4.01-3.45,5.63s-3.16,2.91-5.16,3.87-4.26,1.44-6.77,1.44c-2.88,0-5.34-.55-7.4-1.64-2.05-1.09-3.87-2.88-5.46-5.36-2.22-3.54-3.31-7.61-3.28-12.21h.01ZM246.74,115.11c1.16,1.85,2.52,3.19,4.09,4.02,1.57.83,3.42,1.24,5.53,1.24s3.82-.4,5.41-1.19,2.94-1.84,4.07-3.15c1.12-1.31,2.02-2.82,2.68-4.54s1.06-3.51,1.19-5.36c.36-4.43-.55-8.16-2.73-11.17-2.38-3.34-5.82-5.03-10.32-5.06-2.05.2-3.85.73-5.41,1.59-1.56.86-2.86,1.96-3.92,3.3-1.06,1.34-1.86,2.88-2.41,4.62-.55,1.74-.84,3.58-.87,5.53-.03,3.87.86,7.26,2.68,10.17h.01Z"/>
        <path class="st3" d="M306.89,89.01c-.03,1.42-.05,3.42-.05,6.01s.02,5.81.05,9.58v1.79c0,3.28.02,6.15.05,8.64.03,2.45.02,4.52-.05,6.2-.03.5-.23.93-.6,1.29-.36.36-.81.55-1.34.55-.07,0-.15-.02-.25-.05-.1-.03-.17-.05-.2-.05-.53-.07-.96-.31-1.29-.74-7.18-9.33-13.45-18.58-18.81-27.74v9.88c.03.53.05,1.12.05,1.79v6.25c0,3.74-.02,6.6-.05,8.59,0,.5-.18.93-.55,1.29-.36.37-.81.55-1.34.55-.5-.03-.93-.23-1.29-.59-.36-.36-.55-.81-.55-1.34.03-1.92.05-4.73.05-8.44v-6.25c0-.66-.02-1.27-.05-1.84v-15.68c.03-.5.23-.93.6-1.29.36-.36.81-.55,1.34-.55.4.07.76.2,1.09.4.4.17.69.41.89.74,4.5,7.51,10.69,16.73,18.56,27.64v-11.02c-.03-3.77-.05-6.96-.05-9.58s.02-4.65.05-6.1c0-.5.18-.93.55-1.29.36-.36.81-.55,1.34-.55.5.03.93.23,1.29.6.36.36.55.81.55,1.34v-.03Z"/>
        <path class="st9" d="M313.69,110c.53,0,.98.17,1.36.52.38.35.57.79.57,1.32.03,1.49.33,2.73.89,3.72.56.99,1.31,1.79,2.23,2.41.93.61,1.98,1.04,3.18,1.29,1.19.25,2.43.37,3.72.37.93,0,1.9-.09,2.93-.27,1.02-.18,2-.48,2.93-.89.93-.41,1.73-.98,2.41-1.69s1.12-1.6,1.32-2.66c.3-1.36.02-2.7-.84-4.02-.93-1.39-2.38-2.37-4.37-2.93l-5.61-1.44c-.66-.17-1.36-.36-2.08-.6-.73-.23-1.46-.49-2.18-.77-.73-.28-1.42-.59-2.08-.94-.66-.35-1.26-.74-1.79-1.17-2.25-1.85-3.21-4.38-2.88-7.59.17-1.55.66-2.85,1.49-3.9.83-1.04,1.84-1.89,3.03-2.56,1.19-.66,2.5-1.13,3.92-1.41,1.42-.28,2.8-.42,4.12-.42,1.49.03,2.94.26,4.37.69,1.42.43,2.69,1.06,3.8,1.89s2,1.85,2.68,3.08c.68,1.22,1.03,2.66,1.07,4.32.03.5-.13.93-.5,1.29-.36.36-.79.56-1.29.6-.53,0-.98-.17-1.34-.52s-.56-.79-.6-1.31c0-1.19-.27-2.19-.82-3-.55-.81-1.26-1.46-2.13-1.94-.88-.48-1.84-.83-2.88-1.04s-2.06-.32-3.05-.32c-.76,0-1.6.09-2.51.27s-1.77.47-2.58.87-1.5.91-2.06,1.54-.89,1.39-.99,2.28c-.2,1.89.26,3.29,1.39,4.22.56.46,1.41.95,2.53,1.46s2.58.99,4.37,1.42c.2.03.61.13,1.24.3.63.17,1.27.33,1.91.5.65.17,1.22.31,1.71.45.5.13.73.2.69.2,2.91.73,5.09,2.2,6.55,4.42,1.46,2.15,1.9,4.45,1.34,6.9-.36,1.59-1,2.92-1.91,4s-1.99,1.94-3.25,2.61c-1.26.66-2.61,1.13-4.07,1.42-1.46.28-2.91.42-4.37.42-1.89,0-3.62-.23-5.21-.69s-2.97-1.17-4.14-2.11-2.11-2.12-2.8-3.55c-.69-1.42-1.09-3.11-1.19-5.06-.03-.53.13-.98.5-1.34.36-.36.79-.56,1.29-.59l-.02-.05Z"/>
        <path class="st7" d="M345.85,110.05v-3.7c0-1.07.02-2.04.05-2.9,0-.2,0-.51.02-.94s.02-.78.02-1.04c0-.13,0-.36.02-.69s.02-.65.02-.94v-.4c0-.86.05-4.48.15-10.87,0-.5.18-.93.55-1.29.36-.36.79-.55,1.29-.55.53,0,.98.18,1.34.55.36.36.55.81.55,1.34-.1,6.35-.15,9.98-.15,10.87l-.05.89v1.14c0,.27,0,.62-.02,1.07s-.02.77-.02.97c-.03.83-.05,1.78-.05,2.85v3.7c-.03,2.08.38,3.82,1.24,5.21.76,1.22,1.72,2.1,2.88,2.63.93.53,1.97.89,3.13,1.07s2.27.27,3.33.27c2.68-.07,4.77-.91,6.28-2.53,1.5-1.62,2.32-3.75,2.46-6.4.07-1.39.12-2.96.15-4.71s.05-3.71.05-5.86c0-.86-.02-2-.05-3.42s-.05-2.93-.05-4.52c-.03-.66-.05-1.27-.05-1.84v-1.49c-.03-.5.13-.93.5-1.32.36-.38.81-.57,1.34-.57.5,0,.93.17,1.29.52.36.35.56.79.6,1.32,0,1.22,0,2.44.02,3.65s.04,2.42.07,3.65v2.38c0,.66.02,1.21.05,1.64,0,2.18-.02,4.17-.05,5.96s-.08,3.39-.15,4.81c-.1,1.82-.46,3.48-1.07,4.99-.61,1.51-1.45,2.8-2.51,3.9-1.06,1.09-2.33,1.94-3.82,2.56-1.49.61-3.16.95-5.01,1.02-1.19,0-2.39-.09-3.6-.27s-2.37-.5-3.47-.94c-1.11-.45-2.13-1.03-3.08-1.76-.94-.73-1.75-1.64-2.41-2.73-1.26-2.05-1.85-4.47-1.79-7.25v-.03Z"/>
        <path class="st34" d="M379.94,88.66c.03-.5.23-.93.6-1.29.36-.36.81-.55,1.34-.55.5.03.92.23,1.27.6.35.36.52.81.52,1.34-.07,2.85-.07,8.04,0,15.58.03.27.05.55.05.84v14h4.22c1.82,0,3.67,0,5.56-.03,1.89-.02,3.82-.07,5.81-.17.53-.03.98.12,1.34.47s.55.79.55,1.32c.03.53-.12.98-.47,1.34-.35.36-.79.55-1.31.55-2.91.07-5.81.12-8.69.17-2.88.05-5.76.07-8.64.07-.6-.07-1.1-.26-1.51-.57s-.62-.8-.62-1.46c.03-1.46.06-3.4.07-5.83.02-2.43,0-5.38-.02-8.86v-.97c0-.31-.02-.6-.05-.87-.03-7.54-.03-12.77,0-15.68h-.02Z"/>
        <path class="st17" d="M398.95,88.46c0-.5.17-.93.52-1.29.35-.36.79-.56,1.31-.6,2.55,0,5.08,0,7.59.02s5.05.04,7.59.08c2.02.03,3.9.05,5.66.05h5.01c.53,0,.98.18,1.34.55.36.36.55.81.55,1.34,0,.5-.18.93-.55,1.29-.36.36-.81.55-1.34.55h-5.01c-1.75,0-3.64-.02-5.66-.05h-.65c.07,3.61.09,7.93.07,12.98s-.06,10.86-.12,17.45c0,.5-.19.93-.57,1.29s-.82.53-1.32.5c-.53,0-.97-.18-1.31-.55-.35-.36-.52-.81-.52-1.34.07-6.58.11-12.39.12-17.42.02-5.03,0-9.35-.07-12.95h-2.48c-1.06-.03-2.28-.05-3.65-.05h-4.64c-.53.03-.98-.13-1.34-.5-.36-.36-.55-.81-.55-1.34h.02Z"/>
        <path class="st8" d="M433.29,104.89c.03-2.48.42-4.81,1.17-7s1.81-4.1,3.2-5.76c1.39-1.65,3.08-3,5.09-4.04,2-1.04,4.28-1.68,6.82-1.91.07-.03.15-.05.25-.05.13,0,.21.02.25.05,5.53.2,9.83,2.42,12.9,6.65,2.71,3.77,3.85,8.3,3.42,13.6-.2,2.35-.73,4.59-1.59,6.73-.86,2.13-2.01,4.01-3.45,5.63s-3.16,2.91-5.16,3.87-4.26,1.44-6.77,1.44c-2.88,0-5.34-.55-7.4-1.64-2.05-1.09-3.87-2.88-5.46-5.36-2.22-3.54-3.31-7.61-3.28-12.21h0ZM439.7,115.11c1.16,1.85,2.52,3.19,4.09,4.02,1.57.83,3.42,1.24,5.53,1.24s3.82-.4,5.41-1.19,2.94-1.84,4.07-3.15c1.12-1.31,2.02-2.82,2.68-4.54s1.06-3.51,1.19-5.36c.36-4.43-.55-8.16-2.73-11.17-2.38-3.34-5.82-5.03-10.32-5.06-2.05.2-3.85.73-5.41,1.59-1.56.86-2.86,1.96-3.92,3.3-1.06,1.34-1.86,2.88-2.41,4.62-.55,1.74-.84,3.58-.87,5.53-.03,3.87.86,7.26,2.68,10.17h.01Z"/>
        <path class="st24" d="M473.35,121.07c.03-1.12.08-5.97.15-14.54v-17.87c.03-.53.24-.99.62-1.39s.85-.6,1.41-.6c.4,0,.68-.02.84-.05h.99c1.59-.1,3.08-.15,4.47-.15,2.05,0,4.19.19,6.4.57,2.22.38,4.2,1.08,5.96,2.11,3.04,1.82,4.52,4.63,4.42,8.44-.07,2.68-.81,4.9-2.23,6.65s-3.42,2.93-6,3.52c1.69,2.42,3.18,4.64,4.49,6.67,1.31,2.04,2.49,3.9,3.55,5.58.26.43.33.89.2,1.39-.13.5-.41.88-.84,1.14-.33.2-.66.3-.99.3-.66,0-1.17-.3-1.54-.89-1.29-2.05-2.67-4.2-4.14-6.45s-3.07-4.6-4.79-7.05c-.03-.03-.05-.07-.05-.1-.5.07-1.02.1-1.56.1h-1.71c-.86,0-1.77-.02-2.73-.05-.96-.03-1.97-.1-3.03-.2-.03,7.64-.08,11.96-.15,12.95,0,.5-.18.93-.55,1.29-.36.36-.81.55-1.34.55-.5-.03-.93-.23-1.29-.6-.36-.36-.55-.81-.55-1.34v.02ZM477.22,104.44c2.25.2,4.27.3,6.06.3,1.36,0,2.7-.06,4.04-.17,1.34-.12,2.56-.41,3.67-.89,1.11-.48,2.03-1.21,2.75-2.18.73-.98,1.12-2.31,1.19-4,.07-2.38-.83-4.12-2.68-5.21-.79-.46-1.65-.83-2.56-1.09-.91-.26-1.84-.47-2.8-.62s-1.92-.24-2.88-.27-1.89-.05-2.78-.05h-1.79c-.63,0-1.27.02-1.94.05-.03,0-.08,0-.15.02s-.12.02-.15.02v14.1h.02Z"/>
        <path class="st1" d="M506.94,86.87c1.49.03,2.9.06,4.22.07,1.32.02,2.6.03,3.82.03,1.89,0,3.62-.02,5.19-.05s3.02-.08,4.34-.15h.15c.56,0,.98.19,1.26.57s.43.79.45,1.24-.12.87-.4,1.27c-.28.4-.72.61-1.31.65-3.01.1-6.77.15-11.27.15h-4.71v.92c0,.41,0,.88.03,1.41.02.53.02,1.07.02,1.61v1.46h3.57c1.16,0,2.27-.02,3.33-.05h.99c1.46-.03,2.76-.05,3.92-.05h3.03c.6,0,1.04.19,1.34.57.3.38.45.81.45,1.29s-.15.91-.45,1.29-.75.57-1.34.57h-3.03c-1.16,0-2.45.02-3.87.05h-.99c-1.06.03-2.17.05-3.33.05h-3.57v9.43c0,.3,0,.63.02.99s.03.69.03.99v7.94h3.67c1.19,0,2.32-.02,3.38-.05h1.04c1.52-.03,2.89-.05,4.09-.05h3.25c.6,0,1.04.19,1.34.57.3.38.45.81.45,1.29s-.15.91-.45,1.29-.74.57-1.34.57h-3.2c-1.21,0-2.57.02-4.09.05h-1.04c-1.49.03-2.94.05-4.34.05h-4.59c-.5.03-.93-.13-1.29-.5-.36-.36-.55-.81-.55-1.34-.03-.6-.05-1.67-.05-3.23v-7.54c-.03-.36-.05-.7-.05-1.02v-3.6c0-8.44-.05-13.85-.15-16.23,0-.63.17-1.21.5-1.74s.84-.79,1.54-.79v.02Z"/>
        <path class="st27" d="M533.2,110c.53,0,.98.17,1.37.52.38.35.57.79.57,1.32.03,1.49.33,2.73.89,3.72s1.31,1.79,2.23,2.41c.93.61,1.99,1.04,3.18,1.29s2.43.37,3.72.37c.93,0,1.9-.09,2.93-.27,1.02-.18,2-.48,2.93-.89.93-.41,1.73-.98,2.41-1.69s1.12-1.6,1.32-2.66c.3-1.36.02-2.7-.84-4.02-.93-1.39-2.38-2.37-4.37-2.93l-5.61-1.44c-.66-.17-1.36-.36-2.08-.6-.73-.23-1.46-.49-2.18-.77-.73-.28-1.42-.59-2.08-.94-.66-.35-1.26-.74-1.79-1.17-2.25-1.85-3.21-4.38-2.88-7.59.17-1.55.66-2.85,1.49-3.9.83-1.04,1.84-1.89,3.03-2.56,1.19-.66,2.5-1.13,3.92-1.41,1.42-.28,2.8-.42,4.12-.42,1.49.03,2.94.26,4.37.69,1.42.43,2.69,1.06,3.8,1.89s2,1.85,2.68,3.08c.68,1.22,1.03,2.66,1.07,4.32.03.5-.13.93-.5,1.29s-.79.56-1.29.6c-.53,0-.98-.17-1.34-.52-.36-.35-.56-.79-.59-1.31,0-1.19-.27-2.19-.82-3s-1.26-1.46-2.13-1.94c-.88-.48-1.84-.83-2.88-1.04s-2.06-.32-3.05-.32c-.76,0-1.6.09-2.51.27s-1.77.47-2.58.87-1.5.91-2.06,1.54-.89,1.39-.99,2.28c-.2,1.89.26,3.29,1.39,4.22.56.46,1.41.95,2.53,1.46,1.12.51,2.58.99,4.37,1.42.2.03.61.13,1.24.3.63.17,1.27.33,1.91.5.65.17,1.22.31,1.71.45.5.13.73.2.69.2,2.91.73,5.09,2.2,6.55,4.42,1.46,2.15,1.9,4.45,1.34,6.9-.37,1.59-1,2.92-1.91,4s-1.99,1.94-3.25,2.61c-1.26.66-2.61,1.13-4.07,1.42-1.46.28-2.91.42-4.37.42-1.89,0-3.62-.23-5.21-.69s-2.97-1.17-4.14-2.11c-1.17-.94-2.11-2.12-2.8-3.55-.69-1.42-1.09-3.11-1.19-5.06-.03-.53.13-.98.5-1.34.36-.36.79-.56,1.29-.59l-.04-.05Z"/>
        <path class="st6" d="M586.85,88.76v15.58c.03.53.05,1.12.05,1.79v6.25c0,3.74-.02,6.6-.05,8.59,0,.5-.18.93-.55,1.29-.36.37-.81.55-1.34.55-.5-.03-.93-.23-1.29-.59s-.55-.81-.55-1.34c.03-1.92.05-4.73.05-8.44v-6.25c0-.66-.02-1.27-.05-1.84v-15.68c.03-.5.23-.93.6-1.29.36-.36.81-.55,1.34-.55.5.03.92.22,1.27.57.35.35.52.75.52,1.22v.15h0Z"/>
        <path class="st4" d="M620.3,89.01c-.03,1.42-.05,3.42-.05,6.01s.02,5.81.05,9.58v1.79c0,3.28.02,6.15.05,8.64.03,2.45.02,4.52-.05,6.2-.03.5-.23.93-.6,1.29-.36.36-.81.55-1.34.55-.07,0-.15-.02-.25-.05-.1-.03-.17-.05-.2-.05-.53-.07-.96-.31-1.29-.74-7.18-9.33-13.45-18.58-18.81-27.74v9.88c.03.53.05,1.12.05,1.79v6.25c0,3.74-.02,6.6-.05,8.59,0,.5-.18.93-.55,1.29-.36.37-.81.55-1.34.55-.5-.03-.93-.23-1.29-.59s-.55-.81-.55-1.34c.03-1.92.05-4.73.05-8.44v-6.25c0-.66-.02-1.27-.05-1.84v-15.68c.03-.5.23-.93.6-1.29.36-.36.81-.55,1.34-.55.4.07.76.2,1.09.4.4.17.7.41.89.74,4.5,7.51,10.69,16.73,18.56,27.64v-11.02c-.03-3.77-.05-6.96-.05-9.58s.02-4.65.05-6.1c0-.5.18-.93.55-1.29.36-.36.81-.55,1.34-.55.5.03.93.23,1.29.6.36.36.55.81.55,1.34v-.03Z"/>
        <path class="st40" d="M623.03,88.46c0-.5.17-.93.52-1.29s.79-.56,1.32-.6c2.55,0,5.08,0,7.59.02s5.04.04,7.59.08c2.02.03,3.9.05,5.66.05h5.01c.53,0,.98.18,1.34.55.36.36.55.81.55,1.34,0,.5-.18.93-.55,1.29s-.81.55-1.34.55h-5.01c-1.75,0-3.64-.02-5.66-.05h-.64c.07,3.61.09,7.93.07,12.98s-.06,10.86-.12,17.45c0,.5-.19.93-.57,1.29s-.82.53-1.31.5c-.53,0-.97-.18-1.32-.55-.35-.36-.52-.81-.52-1.34.07-6.58.11-12.39.12-17.42s0-9.35-.07-12.95h-2.48c-1.06-.03-2.28-.05-3.65-.05h-4.64c-.53.03-.98-.13-1.34-.5-.36-.36-.55-.81-.55-1.34h0Z"/>
        <path class="st25" d="M660.84,86.87c1.49.03,2.89.06,4.22.07,1.32.02,2.6.03,3.82.03,1.89,0,3.61-.02,5.19-.05s3.02-.08,4.34-.15h.15c.56,0,.98.19,1.27.57.28.38.43.79.45,1.24s-.12.87-.4,1.27c-.28.4-.72.61-1.32.65-3.01.1-6.77.15-11.27.15h-4.71v.92c0,.41,0,.88.03,1.41.02.53.02,1.07.02,1.61v1.46h3.57c1.16,0,2.27-.02,3.33-.05h.99c1.46-.03,2.76-.05,3.92-.05h3.03c.6,0,1.04.19,1.34.57.3.38.45.81.45,1.29s-.15.91-.45,1.29-.74.57-1.34.57h-3.03c-1.16,0-2.45.02-3.87.05h-.99c-1.06.03-2.17.05-3.33.05h-3.57v9.43c0,.3,0,.63.02.99s.03.69.03.99v7.94h3.67c1.19,0,2.32-.02,3.37-.05h1.04c1.52-.03,2.89-.05,4.09-.05h3.25c.6,0,1.04.19,1.34.57.3.38.45.81.45,1.29s-.15.91-.45,1.29-.74.57-1.34.57h-3.2c-1.21,0-2.57.02-4.09.05h-1.04c-1.49.03-2.94.05-4.34.05h-4.59c-.5.03-.93-.13-1.29-.5s-.55-.81-.55-1.34c-.03-.6-.05-1.67-.05-3.23v-7.54c-.03-.36-.05-.7-.05-1.02v-3.6c0-8.44-.05-13.85-.15-16.23,0-.63.17-1.21.5-1.74s.84-.79,1.54-.79v.02Z"/>
        <path class="st30" d="M688.44,92.48c1.62-2.08,3.58-3.66,5.88-4.71s4.76-1.59,7.37-1.59c1.59,0,3.13.22,4.64.65,1.5.43,2.91,1.06,4.22,1.89s2.46,1.84,3.47,3.03c1.01,1.19,1.78,2.55,2.31,4.07.17.46.14.93-.08,1.39-.21.46-.55.79-1.02.99-.2.1-.43.15-.7.15-.36,0-.7-.11-1.02-.32-.31-.21-.54-.5-.67-.87-.4-1.16-.98-2.18-1.74-3.08s-1.65-1.65-2.66-2.26c-1.01-.61-2.09-1.08-3.25-1.42-1.16-.33-2.32-.5-3.47-.5-1.99,0-3.9.41-5.73,1.24-1.84.83-3.38,2.03-4.64,3.62-2.12,2.71-3.08,6.25-2.88,10.62.1,1.82.53,3.56,1.29,5.21.76,1.66,1.77,3.11,3.03,4.37s2.71,2.25,4.34,2.98c1.64.73,3.38,1.09,5.24,1.09,2.45,0,4.55-.67,6.3-2.01s3.13-3.1,4.12-5.29v-4.32c-.1,0-.44,0-1.02.02s-1.4.04-2.46.08c-1.29.03-2.4.05-3.33.05h-2.28c-.33,0-.67,0-1.02-.02-.35-.02-.66-.09-.94-.22-.28-.13-.51-.32-.7-.57s-.27-.6-.27-1.07c.03-.53.23-.97.59-1.32.36-.35.79-.52,1.29-.52.17,0,.39,0,.67.02.28.02.62.03,1.02.03.56,0,1.25,0,2.06-.03.81-.02,1.75-.04,2.8-.07.79-.03,1.59-.06,2.38-.07s1.6-.03,2.43-.03c.33-.07.55-.1.65-.1.53,0,.97.18,1.31.55.35.36.52.79.52,1.29v10.08c-.03.76-.05,1.62-.05,2.58v3.18c0,.53-.18.98-.55,1.34-.36.36-.79.55-1.29.55-.53,0-.98-.18-1.34-.55-.37-.36-.55-.81-.55-1.34v-2.88c-1.39,1.39-2.97,2.47-4.74,3.25s-3.65,1.17-5.63,1.17c-.76,0-1.51-.06-2.26-.17-.75-.12-1.51-.29-2.31-.52-1.89-.53-3.62-1.32-5.19-2.38s-2.92-2.32-4.04-3.77c-1.13-1.46-2.02-3.07-2.68-4.84s-1.04-3.63-1.14-5.58c-.23-5.19.99-9.55,3.67-13.05l.05-.02Z"/>
        <path class="st21" d="M723.43,121.07c.03-1.12.08-5.97.15-14.54v-17.87c.03-.53.24-.99.62-1.39s.85-.6,1.42-.6c.4,0,.68-.02.84-.05h.99c1.59-.1,3.08-.15,4.47-.15,2.05,0,4.19.19,6.4.57,2.22.38,4.2,1.08,5.96,2.11,3.04,1.82,4.52,4.63,4.42,8.44-.07,2.68-.81,4.9-2.23,6.65s-3.42,2.93-6.01,3.52c1.69,2.42,3.18,4.64,4.49,6.67,1.31,2.04,2.49,3.9,3.55,5.58.26.43.33.89.2,1.39s-.41.88-.84,1.14c-.33.2-.66.3-.99.3-.66,0-1.17-.3-1.54-.89-1.29-2.05-2.67-4.2-4.14-6.45-1.47-2.25-3.07-4.6-4.79-7.05-.03-.03-.05-.07-.05-.1-.5.07-1.02.1-1.56.1h-1.71c-.86,0-1.77-.02-2.73-.05-.96-.03-1.97-.1-3.03-.2-.03,7.64-.08,11.96-.15,12.95,0,.5-.18.93-.55,1.29-.36.36-.81.55-1.34.55-.5-.03-.93-.23-1.29-.6-.37-.36-.55-.81-.55-1.34v.02ZM727.3,104.44c2.25.2,4.27.3,6.05.3,1.36,0,2.71-.06,4.04-.17s2.56-.41,3.67-.89c1.11-.48,2.03-1.21,2.75-2.18.73-.98,1.12-2.31,1.19-4,.07-2.38-.83-4.12-2.68-5.21-.79-.46-1.65-.83-2.56-1.09-.91-.26-1.84-.47-2.8-.62-.96-.15-1.92-.24-2.88-.27s-1.89-.05-2.78-.05h-1.79c-.63,0-1.27.02-1.94.05-.03,0-.08,0-.15.02s-.12.02-.15.02v14.1h.03Z"/>
        <path class="st19" d="M752.86,120.07c1.92-4.73,3.91-9.77,5.98-15.11s4.23-11.06,6.48-17.15c.17-.36.4-.65.72-.84.31-.2.65-.3,1.02-.3.23,0,.4.02.5.05.73.03,1.22.41,1.49,1.14.66,1.89,1.31,3.57,1.94,5.04s1.14,2.77,1.54,3.9c.13.36.35.94.65,1.71.3.78.68,1.78,1.14,3l1.44,3.82c.03.1.09.26.17.47.08.22.17.46.27.72.1.27.2.52.3.77s.18.46.25.62c.99,2.61,1.88,4.95,2.66,7,.78,2.05,1.5,3.84,2.16,5.36.2.46.19.93-.02,1.41-.22.48-.55.82-1.02,1.02-.2.1-.43.15-.69.15-.83,0-1.41-.4-1.74-1.19-.43-1.06-.86-2.13-1.29-3.23s-.84-2.18-1.24-3.28h-4.76c-1.56,0-3.09.02-4.62.05h-7.35c-.13.33-.39,1.02-.77,2.06s-.95,2.44-1.71,4.19c-.33.79-.91,1.19-1.74,1.19-.26,0-.5-.05-.69-.15-.46-.23-.8-.58-1.02-1.04-.22-.46-.22-.93-.02-1.39h-.03ZM766.16,111.49c1.22-.03,2.49-.05,3.8-.05h4.14c-.1-.26-.25-.64-.45-1.14s-.33-.84-.4-1.04c-.69-1.89-1.4-3.75-2.11-5.58-.71-1.84-1.43-3.7-2.16-5.58-.27-.79-.55-1.58-.84-2.36-.3-.78-.61-1.55-.94-2.31-1.39,3.64-2.66,6.96-3.8,9.95-1.14,3-2.19,5.7-3.15,8.11h5.91Z"/>
        <path class="st33" d="M788.84,88.66c.03-.5.23-.93.59-1.29.36-.36.81-.55,1.34-.55.5.03.92.23,1.27.6.35.36.52.81.52,1.34-.07,2.85-.07,8.04,0,15.58.03.27.05.55.05.84v14h4.22c1.82,0,3.67,0,5.56-.03,1.89-.02,3.82-.07,5.81-.17.53-.03.98.12,1.34.47.36.35.55.79.55,1.32.03.53-.12.98-.47,1.34-.35.36-.79.55-1.32.55-2.91.07-5.81.12-8.68.17-2.88.05-5.76.07-8.64.07-.6-.07-1.1-.26-1.51-.57-.41-.31-.62-.8-.62-1.46.03-1.46.06-3.4.07-5.83.02-2.43,0-5.38-.03-8.86v-.97c0-.31-.02-.6-.05-.87-.03-7.54-.03-12.77,0-15.68h0Z"/>
        <path class="st29" d="M818.37,86.87c1.49.03,2.89.06,4.22.07,1.32.02,2.6.03,3.82.03,1.89,0,3.61-.02,5.19-.05s3.02-.08,4.34-.15h.15c.56,0,.98.19,1.27.57.28.38.43.79.45,1.24s-.12.87-.4,1.27c-.28.4-.72.61-1.32.65-3.01.1-6.77.15-11.27.15h-4.71v.92c0,.41,0,.88.03,1.41.02.53.02,1.07.02,1.61v1.46h3.57c1.16,0,2.27-.02,3.33-.05h.99c1.46-.03,2.76-.05,3.92-.05h3.03c.6,0,1.04.19,1.34.57.3.38.45.81.45,1.29s-.15.91-.45,1.29-.74.57-1.34.57h-3.03c-1.16,0-2.45.02-3.87.05h-.99c-1.06.03-2.17.05-3.33.05h-3.57v9.43c0,.3,0,.63.02.99s.03.69.03.99v7.94h3.67c1.19,0,2.32-.02,3.37-.05h1.04c1.52-.03,2.89-.05,4.09-.05h3.25c.6,0,1.04.19,1.34.57.3.38.45.81.45,1.29s-.15.91-.45,1.29-.74.57-1.34.57h-3.2c-1.21,0-2.57.02-4.09.05h-1.04c-1.49.03-2.94.05-4.34.05h-4.59c-.5.03-.93-.13-1.29-.5s-.55-.81-.55-1.34c-.03-.6-.05-1.67-.05-3.23v-7.54c-.03-.36-.05-.7-.05-1.02v-3.6c0-8.44-.05-13.85-.15-16.23,0-.63.17-1.21.5-1.74s.84-.79,1.54-.79v.02Z"/>
        <path class="st10" d="M844.62,110c.53,0,.98.17,1.37.52.38.35.57.79.57,1.32.03,1.49.33,2.73.89,3.72s1.31,1.79,2.23,2.41c.93.61,1.99,1.04,3.18,1.29s2.43.37,3.72.37c.93,0,1.9-.09,2.93-.27,1.03-.18,2-.48,2.93-.89.93-.41,1.73-.98,2.41-1.69s1.12-1.6,1.31-2.66c.3-1.36.02-2.7-.84-4.02-.93-1.39-2.38-2.37-4.37-2.93l-5.61-1.44c-.66-.17-1.36-.36-2.08-.6-.73-.23-1.46-.49-2.18-.77-.73-.28-1.42-.59-2.08-.94s-1.26-.74-1.79-1.17c-2.25-1.85-3.21-4.38-2.88-7.59.17-1.55.66-2.85,1.49-3.9.83-1.04,1.84-1.89,3.03-2.56,1.19-.66,2.5-1.13,3.92-1.41,1.42-.28,2.79-.42,4.12-.42,1.49.03,2.94.26,4.37.69,1.42.43,2.69,1.06,3.8,1.89s2,1.85,2.68,3.08c.68,1.22,1.03,2.66,1.07,4.32.03.5-.13.93-.5,1.29s-.79.56-1.29.6c-.53,0-.98-.17-1.34-.52-.36-.35-.56-.79-.6-1.31,0-1.19-.27-2.19-.82-3s-1.26-1.46-2.13-1.94-1.84-.83-2.88-1.04-2.06-.32-3.05-.32c-.76,0-1.6.09-2.51.27-.91.18-1.77.47-2.58.87s-1.5.91-2.06,1.54-.89,1.39-.99,2.28c-.2,1.89.26,3.29,1.39,4.22.56.46,1.41.95,2.53,1.46,1.12.51,2.58.99,4.37,1.42.2.03.61.13,1.24.3.63.17,1.27.33,1.91.5.65.17,1.22.31,1.71.45.5.13.73.2.7.2,2.91.73,5.09,2.2,6.55,4.42,1.46,2.15,1.9,4.45,1.34,6.9-.36,1.59-1,2.92-1.91,4s-1.99,1.94-3.25,2.61c-1.26.66-2.61,1.13-4.07,1.42-1.46.28-2.91.42-4.37.42-1.89,0-3.62-.23-5.21-.69s-2.97-1.17-4.14-2.11c-1.17-.94-2.11-2.12-2.8-3.55-.69-1.42-1.09-3.11-1.19-5.06-.03-.53.13-.98.5-1.34s.79-.56,1.29-.59l-.03-.05Z"/>
      </g>
    </g>
    <rect class="st36" y="106.31" width="73.02" height="2"/>
    <rect class="st11" x="883.5" y="106.31" width="73.03" height="2"/>
  </g>
</svg>