<?xml version="1.0" encoding="UTF-8"?>
<svg id="Capa_1" xmlns="http://www.w3.org/2000/svg" version="1.1" xmlns:xlink="http://www.w3.org/1999/xlink" viewBox="0 0 732.92 745.72">
  <!-- Generator: Adobe Illustrator 30.5.1, SVG Export Plug-In . SVG Version: 2.1.4 Build 3)  -->
  <defs>
    <style>
      .st0 {
        fill: url(#Degradado_sin_nombre_3665);
      }

      .st1 {
        fill: #bb9d6d;
      }

      .st2 {
        fill: url(#Degradado_sin_nombre_3658);
      }

      .st3 {
        fill: url(#Degradado_sin_nombre_36);
      }

      .st4 {
        fill: url(#Degradado_sin_nombre_3626);
      }

      .st5 {
        fill: url(#Degradado_sin_nombre_364);
      }

      .st6 {
        fill: url(#Degradado_sin_nombre_3619);
      }

      .st7 {
        fill: url(#Degradado_sin_nombre_3629);
      }

      .st8 {
        fill: url(#Degradado_sin_nombre_365);
      }

      .st9 {
        fill: url(#Degradado_sin_nombre_3666);
      }

      .st10 {
        fill: url(#Degradado_sin_nombre_3628);
      }

      .st11 {
        fill: url(#Degradado_sin_nombre_3645);
      }

      .st12 {
        fill: url(#Degradado_sin_nombre_3641);
      }

      .st13 {
        fill: url(#Degradado_sin_nombre_3621);
      }

      .st14 {
        fill: url(#Degradado_sin_nombre_3624);
      }

      .st15 {
        fill: url(#Degradado_sin_nombre_3620);
      }

      .st16 {
        fill: #c4a774;
      }

      .st17 {
        fill: url(#Degradado_sin_nombre_3637);
      }

      .st18 {
        fill: url(#Degradado_sin_nombre_3639);
      }

      .st19 {
        fill: url(#Degradado_sin_nombre_363);
      }

      .st20 {
        fill: url(#Degradado_sin_nombre_367);
      }

      .st21 {
        fill: url(#Degradado_sin_nombre_3649);
      }

      .st22 {
        fill: #ba9c6c;
      }

      .st23 {
        fill: url(#Degradado_sin_nombre_3657);
      }

      .st24 {
        fill: url(#Degradado_sin_nombre_361);
      }

      .st25 {
        fill: url(#Degradado_sin_nombre_362);
      }

      .st26 {
        fill: none;
      }

      .st27 {
        fill: url(#Degradado_sin_nombre_3618);
      }

      .st28 {
        fill: #bd9f6e;
      }

      .st29 {
        fill: url(#Degradado_sin_nombre_3623);
      }

      .st30 {
        fill: #ccaf7b;
      }

      .st31 {
        fill: url(#Degradado_sin_nombre_369);
      }

      .st32 {
        fill: url(#Degradado_sin_nombre_3634);
      }

      .st33 {
        fill: url(#Degradado_sin_nombre_368);
      }

      .st34 {
        clip-path: url(#clippath-1);
      }

      .st35 {
        fill: url(#Degradado_sin_nombre_3656);
      }

      .st36 {
        fill: url(#Degradado_sin_nombre_3633);
      }

      .st37 {
        fill: url(#Degradado_sin_nombre_3663);
      }

      .st38 {
        fill: #ceb17d;
      }

      .st39 {
        isolation: isolate;
      }

      .st40 {
        fill: #c6a976;
      }

      .st41 {
        fill: url(#Degradado_sin_nombre_3652);
      }

      .st42 {
        fill: url(#Degradado_sin_nombre_3642);
      }

      .st43 {
        fill: url(#Degradado_sin_nombre_3651);
      }

      .st44 {
        fill: url(#Degradado_sin_nombre_3667);
      }

      .st45 {
        fill: #b89a6a;
      }

      .st46 {
        fill: url(#Degradado_sin_nombre_3650);
      }

      .st47 {
        fill: url(#Degradado_sin_nombre_3612);
      }

      .st48 {
        fill: url(#Degradado_sin_nombre_3625);
      }

      .st49 {
        fill: url(#Degradado_sin_nombre_3644);
      }

      .st50 {
        fill: url(#Degradado_sin_nombre_3631);
      }

      .st51 {
        fill: url(#Degradado_sin_nombre_3655);
      }

      .st52 {
        clip-path: url(#clippath-3);
      }

      .st53 {
        fill: url(#Degradado_sin_nombre_3647);
      }

      .st54 {
        fill: #c0a271;
      }

      .st55 {
        fill: url(#Degradado_sin_nombre_3653);
      }

      .st56 {
        fill: #bea06f;
      }

      .st57 {
        fill: url(#Degradado_sin_nombre_3659);
      }

      .st58 {
        fill: url(#Degradado_sin_nombre_3610);
      }

      .st59 {
        fill: #c3a574;
      }

      .st60 {
        fill: url(#Degradado_sin_nombre_3643);
      }

      .st61 {
        fill: url(#Degradado_sin_nombre_3661);
      }

      .st62 {
        fill: url(#Degradado_sin_nombre_3669);
      }

      .st63 {
        fill: url(#Degradado_sin_nombre_3627);
      }

      .st64 {
        fill: #caad7a;
      }

      .st65 {
        fill: url(#Degradado_sin_nombre_3648);
      }

      .st66 {
        fill: #cdb07c;
      }

      .st67 {
        fill: url(#Degradado_sin_nombre_3613);
      }

      .st68 {
        fill: url(#Degradado_sin_nombre_3670);
      }

      .st69 {
        fill: url(#Degradado_sin_nombre_3654);
      }

      .st70 {
        fill: #c5a875;
      }

      .st71 {
        fill: #c7aa77;
      }

      .st72 {
        fill: url(#Degradado_sin_nombre_3668);
      }

      .st73 {
        fill: url(#Degradado_sin_nombre_3640);
      }

      .st74 {
        fill: #c2a473;
      }

      .st75 {
        fill: url(#Degradado_sin_nombre_3636);
      }

      .st76 {
        fill: url(#Degradado_sin_nombre_3632);
      }

      .st77 {
        fill: url(#Degradado_sin_nombre_3617);
      }

      .st78 {
        fill: url(#Degradado_sin_nombre_366);
      }

      .st79 {
        fill: url(#Degradado_sin_nombre_3635);
      }

      .st80 {
        fill: url(#Degradado_sin_nombre_3660);
      }

      .st81 {
        fill: url(#Degradado_sin_nombre_3622);
      }

      .st82 {
        fill: url(#Degradado_sin_nombre_3614);
      }

      .st83 {
        fill: #bfa170;
      }

      .st84 {
        fill: url(#Degradado_sin_nombre_3638);
      }

      .st85 {
        fill: #cfb27e;
      }

      .st86 {
        clip-path: url(#clippath-2);
      }

      .st87 {
        fill: #cbae7b;
      }

      .st88 {
        fill: #bc9e6d;
      }

      .st89 {
        fill: url(#Degradado_sin_nombre_3615);
      }

      .st90 {
        fill: url(#Degradado_sin_nombre_3616);
      }

      .st91 {
        fill: #c9ac79;
      }

      .st92 {
        fill: #c1a372;
      }

      .st93 {
        fill: url(#Degradado_sin_nombre_3664);
      }

      .st94 {
        fill: url(#Degradado_sin_nombre_3646);
      }

      .st95 {
        fill: url(#Degradado_sin_nombre_3611);
      }

      .st96 {
        fill: #c8ab78;
      }

      .st97 {
        clip-path: url(#clippath);
      }

      .st98 {
        fill: #b99b6b;
      }

      .st99 {
        fill: url(#Degradado_sin_nombre_3662);
      }

      .st100 {
        fill: url(#Degradado_sin_nombre_3630);
      }

      .st101 {
        fill: url(#Degradado_sin_nombre_3671);
      }
    </style>
    <linearGradient id="Degradado_sin_nombre_36" data-name="Degradado sin nombre 36" x1="141.16" y1="7.95" x2="591.78" y2="7.95" gradientUnits="userSpaceOnUse">
      <stop offset="0" stop-color="#cfb27e"/>
      <stop offset="1" stop-color="#b89a6a"/>
    </linearGradient>
    <linearGradient id="Degradado_sin_nombre_361" data-name="Degradado sin nombre 36" x1="139.44" y1="7.95" x2="593.5" y2="7.95" xlink:href="#Degradado_sin_nombre_36"/>
    <linearGradient id="Degradado_sin_nombre_362" data-name="Degradado sin nombre 36" x1="250.72" y1="86.4" x2="482.21" y2="86.4" xlink:href="#Degradado_sin_nombre_36"/>
    <linearGradient id="Degradado_sin_nombre_363" data-name="Degradado sin nombre 36" x1="248.86" y1="86.39" x2="484.07" y2="86.39" xlink:href="#Degradado_sin_nombre_36"/>
    <linearGradient id="Degradado_sin_nombre_364" data-name="Degradado sin nombre 36" x1="84.01" y1="277.74" x2="214.04" y2="277.74" xlink:href="#Degradado_sin_nombre_36"/>
    <linearGradient id="Degradado_sin_nombre_365" data-name="Degradado sin nombre 36" x1="235.83" y1="275.75" x2="432.71" y2="275.75" xlink:href="#Degradado_sin_nombre_36"/>
    <linearGradient id="Degradado_sin_nombre_366" data-name="Degradado sin nombre 36" x1="449.45" y1="277.67" x2="648.92" y2="277.67" xlink:href="#Degradado_sin_nombre_36"/>
    <linearGradient id="Degradado_sin_nombre_367" data-name="Degradado sin nombre 36" x1="214.96" y1="570.6" x2="241.68" y2="570.6" xlink:href="#Degradado_sin_nombre_36"/>
    <linearGradient id="Degradado_sin_nombre_368" data-name="Degradado sin nombre 36" x1="271.44" y1="597.23" x2="298.16" y2="597.23" xlink:href="#Degradado_sin_nombre_36"/>
    <linearGradient id="Degradado_sin_nombre_369" data-name="Degradado sin nombre 36" x1="327.92" y1="623.85" x2="354.64" y2="623.85" xlink:href="#Degradado_sin_nombre_36"/>
    <linearGradient id="Degradado_sin_nombre_3610" data-name="Degradado sin nombre 36" x1="382.11" y1="624.66" x2="408.83" y2="624.66" xlink:href="#Degradado_sin_nombre_36"/>
    <linearGradient id="Degradado_sin_nombre_3611" data-name="Degradado sin nombre 36" x1="436.31" y1="599.5" x2="463.02" y2="599.5" xlink:href="#Degradado_sin_nombre_36"/>
    <linearGradient id="Degradado_sin_nombre_3612" data-name="Degradado sin nombre 36" x1="491.26" y1="573.98" x2="517.97" y2="573.98" xlink:href="#Degradado_sin_nombre_36"/>
    <linearGradient id="Degradado_sin_nombre_3613" data-name="Degradado sin nombre 36" x1="112.92" y1="100.26" x2="620" y2="100.26" xlink:href="#Degradado_sin_nombre_36"/>
    <linearGradient id="Degradado_sin_nombre_3614" data-name="Degradado sin nombre 36" x1="112.43" y1="100.25" x2="620.49" y2="100.25" xlink:href="#Degradado_sin_nombre_36"/>
    <clipPath id="clippath">
      <line class="st26" x1="73.87" y1="409.82" x2="334.3" y2="409.82"/>
    </clipPath>
    <linearGradient id="Degradado_sin_nombre_3615" data-name="Degradado sin nombre 36" x1="73.87" y1="409.82" x2="334.3" y2="409.82" xlink:href="#Degradado_sin_nombre_36"/>
    <clipPath id="clippath-1">
      <line class="st26" x1="386.83" y1="409.82" x2="659.06" y2="409.82"/>
    </clipPath>
    <linearGradient id="Degradado_sin_nombre_3616" data-name="Degradado sin nombre 36" x1="386.83" y1="409.82" x2="659.06" y2="409.82" xlink:href="#Degradado_sin_nombre_36"/>
    <linearGradient id="Degradado_sin_nombre_3617" data-name="Degradado sin nombre 36" x1="346.23" y1="407.22" x2="374.88" y2="407.22" gradientTransform="translate(393.56 -135.68) rotate(45)" xlink:href="#Degradado_sin_nombre_36"/>
    <clipPath id="clippath-2">
      <line class="st26" x1="73.87" y1="474.34" x2="334.3" y2="474.34"/>
    </clipPath>
    <linearGradient id="Degradado_sin_nombre_3618" data-name="Degradado sin nombre 36" x1="73.87" y1="474.34" x2="334.3" y2="474.34" xlink:href="#Degradado_sin_nombre_36"/>
    <clipPath id="clippath-3">
      <line class="st26" x1="386.83" y1="474.34" x2="659.06" y2="474.34"/>
    </clipPath>
    <linearGradient id="Degradado_sin_nombre_3619" data-name="Degradado sin nombre 36" x1="386.83" y1="474.34" x2="659.06" y2="474.34" xlink:href="#Degradado_sin_nombre_36"/>
    <linearGradient id="Degradado_sin_nombre_3620" data-name="Degradado sin nombre 36" x1="346.23" y1="471.75" x2="374.88" y2="471.75" gradientTransform="translate(439.19 -116.78) rotate(45)" xlink:href="#Degradado_sin_nombre_36"/>
    <linearGradient id="Degradado_sin_nombre_3621" data-name="Degradado sin nombre 36" x1="0" y1="440.99" x2="9.33" y2="440.99" xlink:href="#Degradado_sin_nombre_36"/>
    <linearGradient id="Degradado_sin_nombre_3622" data-name="Degradado sin nombre 36" x1="12.57" y1="440.88" x2="25.44" y2="440.88" xlink:href="#Degradado_sin_nombre_36"/>
    <linearGradient id="Degradado_sin_nombre_3623" data-name="Degradado sin nombre 36" x1="28.67" y1="440.84" x2="40.75" y2="440.84" xlink:href="#Degradado_sin_nombre_36"/>
    <linearGradient id="Degradado_sin_nombre_3624" data-name="Degradado sin nombre 36" x1="43.47" y1="438.31" x2="47.14" y2="438.31" xlink:href="#Degradado_sin_nombre_36"/>
    <linearGradient id="Degradado_sin_nombre_3625" data-name="Degradado sin nombre 36" x1="50.29" y1="440.94" x2="63.49" y2="440.94" xlink:href="#Degradado_sin_nombre_36"/>
    <linearGradient id="Degradado_sin_nombre_3626" data-name="Degradado sin nombre 36" x1="66.89" y1="440.88" x2="68.69" y2="440.88" xlink:href="#Degradado_sin_nombre_36"/>
    <linearGradient id="Degradado_sin_nombre_3627" data-name="Degradado sin nombre 36" x1="70.93" y1="440.88" x2="85.25" y2="440.88" xlink:href="#Degradado_sin_nombre_36"/>
    <linearGradient id="Degradado_sin_nombre_3628" data-name="Degradado sin nombre 36" x1="87.54" y1="441.01" x2="103.39" y2="441.01" xlink:href="#Degradado_sin_nombre_36"/>
    <linearGradient id="Degradado_sin_nombre_3629" data-name="Degradado sin nombre 36" x1="114.35" y1="440.59" x2="116.3" y2="440.59" xlink:href="#Degradado_sin_nombre_36"/>
    <linearGradient id="Degradado_sin_nombre_3630" data-name="Degradado sin nombre 36" x1="126.81" y1="440.88" x2="141.13" y2="440.88" xlink:href="#Degradado_sin_nombre_36"/>
    <linearGradient id="Degradado_sin_nombre_3631" data-name="Degradado sin nombre 36" x1="143.43" y1="441.01" x2="159.28" y2="441.01" xlink:href="#Degradado_sin_nombre_36"/>
    <linearGradient id="Degradado_sin_nombre_3632" data-name="Degradado sin nombre 36" x1="162.67" y1="440.94" x2="175.21" y2="440.94" xlink:href="#Degradado_sin_nombre_36"/>
    <linearGradient id="Degradado_sin_nombre_3633" data-name="Degradado sin nombre 36" x1="176.48" y1="440.76" x2="190.59" y2="440.76" xlink:href="#Degradado_sin_nombre_36"/>
    <linearGradient id="Degradado_sin_nombre_3634" data-name="Degradado sin nombre 36" x1="188.08" y1="440.85" x2="201.9" y2="440.85" xlink:href="#Degradado_sin_nombre_36"/>
    <linearGradient id="Degradado_sin_nombre_3635" data-name="Degradado sin nombre 36" x1="204.73" y1="440.89" x2="217.29" y2="440.89" xlink:href="#Degradado_sin_nombre_36"/>
    <linearGradient id="Degradado_sin_nombre_3636" data-name="Degradado sin nombre 36" x1="220.69" y1="440.89" x2="230.84" y2="440.89" xlink:href="#Degradado_sin_nombre_36"/>
    <linearGradient id="Degradado_sin_nombre_3637" data-name="Degradado sin nombre 36" x1="233.8" y1="440.88" x2="244.06" y2="440.88" xlink:href="#Degradado_sin_nombre_36"/>
    <linearGradient id="Degradado_sin_nombre_3638" data-name="Degradado sin nombre 36" x1="255.08" y1="440.59" x2="257.03" y2="440.59" xlink:href="#Degradado_sin_nombre_36"/>
    <linearGradient id="Degradado_sin_nombre_3639" data-name="Degradado sin nombre 36" x1="266.61" y1="440.76" x2="280.72" y2="440.76" xlink:href="#Degradado_sin_nombre_36"/>
    <linearGradient id="Degradado_sin_nombre_3640" data-name="Degradado sin nombre 36" x1="283.96" y1="440.84" x2="296.04" y2="440.84" xlink:href="#Degradado_sin_nombre_36"/>
    <linearGradient id="Degradado_sin_nombre_3641" data-name="Degradado sin nombre 36" x1="299.5" y1="440.88" x2="301.3" y2="440.88" xlink:href="#Degradado_sin_nombre_36"/>
    <linearGradient id="Degradado_sin_nombre_3642" data-name="Degradado sin nombre 36" x1="304.13" y1="440.89" x2="316.69" y2="440.89" xlink:href="#Degradado_sin_nombre_36"/>
    <linearGradient id="Degradado_sin_nombre_3643" data-name="Degradado sin nombre 36" x1="319.94" y1="440.88" x2="332.81" y2="440.88" xlink:href="#Degradado_sin_nombre_36"/>
    <linearGradient id="Degradado_sin_nombre_3644" data-name="Degradado sin nombre 36" x1="334.07" y1="440.76" x2="348.18" y2="440.76" xlink:href="#Degradado_sin_nombre_36"/>
    <linearGradient id="Degradado_sin_nombre_3645" data-name="Degradado sin nombre 36" x1="345.67" y1="440.85" x2="359.49" y2="440.85" xlink:href="#Degradado_sin_nombre_36"/>
    <linearGradient id="Degradado_sin_nombre_3646" data-name="Degradado sin nombre 36" x1="362.74" y1="440.84" x2="374.82" y2="440.84" xlink:href="#Degradado_sin_nombre_36"/>
    <linearGradient id="Degradado_sin_nombre_3647" data-name="Degradado sin nombre 36" x1="378.28" y1="440.88" x2="380.08" y2="440.88" xlink:href="#Degradado_sin_nombre_36"/>
    <linearGradient id="Degradado_sin_nombre_3648" data-name="Degradado sin nombre 36" x1="382.38" y1="441.01" x2="398.23" y2="441.01" xlink:href="#Degradado_sin_nombre_36"/>
    <linearGradient id="Degradado_sin_nombre_3649" data-name="Degradado sin nombre 36" x1="409.19" y1="440.59" x2="411.14" y2="440.59" xlink:href="#Degradado_sin_nombre_36"/>
    <linearGradient id="Degradado_sin_nombre_3650" data-name="Degradado sin nombre 36" x1="422.36" y1="440.88" x2="432.62" y2="440.88" xlink:href="#Degradado_sin_nombre_36"/>
    <linearGradient id="Degradado_sin_nombre_3651" data-name="Degradado sin nombre 36" x1="436.08" y1="440.94" x2="451.64" y2="440.94" xlink:href="#Degradado_sin_nombre_36"/>
    <linearGradient id="Degradado_sin_nombre_3652" data-name="Degradado sin nombre 36" x1="454.89" y1="440.85" x2="466.95" y2="440.85" xlink:href="#Degradado_sin_nombre_36"/>
    <linearGradient id="Degradado_sin_nombre_3653" data-name="Degradado sin nombre 36" x1="470.22" y1="440.84" x2="482.3" y2="440.84" xlink:href="#Degradado_sin_nombre_36"/>
    <linearGradient id="Degradado_sin_nombre_3654" data-name="Degradado sin nombre 36" x1="485.28" y1="440.88" x2="495.54" y2="440.88" xlink:href="#Degradado_sin_nombre_36"/>
    <linearGradient id="Degradado_sin_nombre_3655" data-name="Degradado sin nombre 36" x1="497.97" y1="440.9" x2="510.95" y2="440.9" xlink:href="#Degradado_sin_nombre_36"/>
    <linearGradient id="Degradado_sin_nombre_3656" data-name="Degradado sin nombre 36" x1="512.8" y1="440.85" x2="526.62" y2="440.85" xlink:href="#Degradado_sin_nombre_36"/>
    <linearGradient id="Degradado_sin_nombre_3657" data-name="Degradado sin nombre 36" x1="529.87" y1="440.84" x2="541.95" y2="440.84" xlink:href="#Degradado_sin_nombre_36"/>
    <linearGradient id="Degradado_sin_nombre_3658" data-name="Degradado sin nombre 36" x1="545.41" y1="440.88" x2="547.21" y2="440.88" xlink:href="#Degradado_sin_nombre_36"/>
    <linearGradient id="Degradado_sin_nombre_3659" data-name="Degradado sin nombre 36" x1="549.1" y1="440.85" x2="562.92" y2="440.85" xlink:href="#Degradado_sin_nombre_36"/>
    <linearGradient id="Degradado_sin_nombre_3660" data-name="Degradado sin nombre 36" x1="566.32" y1="440.89" x2="576.47" y2="440.89" xlink:href="#Degradado_sin_nombre_36"/>
    <linearGradient id="Degradado_sin_nombre_3661" data-name="Degradado sin nombre 36" x1="587.47" y1="440.59" x2="589.42" y2="440.59" xlink:href="#Degradado_sin_nombre_36"/>
    <linearGradient id="Degradado_sin_nombre_3662" data-name="Degradado sin nombre 36" x1="601.06" y1="440.99" x2="611.58" y2="440.99" xlink:href="#Degradado_sin_nombre_36"/>
    <linearGradient id="Degradado_sin_nombre_3663" data-name="Degradado sin nombre 36" x1="615.01" y1="440.88" x2="616.81" y2="440.88" xlink:href="#Degradado_sin_nombre_36"/>
    <linearGradient id="Degradado_sin_nombre_3664" data-name="Degradado sin nombre 36" x1="620.25" y1="440.94" x2="632.78" y2="440.94" xlink:href="#Degradado_sin_nombre_36"/>
    <linearGradient id="Degradado_sin_nombre_3665" data-name="Degradado sin nombre 36" x1="634.63" y1="440.85" x2="648.45" y2="440.85" xlink:href="#Degradado_sin_nombre_36"/>
    <linearGradient id="Degradado_sin_nombre_3666" data-name="Degradado sin nombre 36" x1="651.88" y1="440.94" x2="664.41" y2="440.94" xlink:href="#Degradado_sin_nombre_36"/>
    <linearGradient id="Degradado_sin_nombre_3667" data-name="Degradado sin nombre 36" x1="666.61" y1="440.88" x2="680.93" y2="440.88" xlink:href="#Degradado_sin_nombre_36"/>
    <linearGradient id="Degradado_sin_nombre_3668" data-name="Degradado sin nombre 36" x1="684.36" y1="440.88" x2="686.16" y2="440.88" xlink:href="#Degradado_sin_nombre_36"/>
    <linearGradient id="Degradado_sin_nombre_3669" data-name="Degradado sin nombre 36" x1="689.11" y1="440.88" x2="699.37" y2="440.88" xlink:href="#Degradado_sin_nombre_36"/>
    <linearGradient id="Degradado_sin_nombre_3670" data-name="Degradado sin nombre 36" x1="702.65" y1="440.84" x2="714.74" y2="440.84" xlink:href="#Degradado_sin_nombre_36"/>
    <linearGradient id="Degradado_sin_nombre_3671" data-name="Degradado sin nombre 36" x1="717.07" y1="441.01" x2="732.92" y2="441.01" xlink:href="#Degradado_sin_nombre_36"/>
  </defs>
  <g>
    <rect class="st3" x="141.16" y="1.72" width="450.62" height="12.46"/>
    <path class="st24" d="M590.06,3.44v9.02H142.88V3.44h447.18M593.5,0H139.44v15.89h454.05V0h.01Z"/>
  </g>
  <g>
    <path class="st25" d="M262.43,94.48c-6.46,0-11.71-5.25-11.71-11.71v-4.46h231.49v4.46c0,6.46-5.25,11.71-11.71,11.71h-208.08,0Z"/>
    <path class="st19" d="M480.36,80.18v2.6c0,5.43-4.42,9.85-9.85,9.85h-208.08c-5.43,0-9.85-4.42-9.85-9.85v-2.6h227.78M484.07,76.46h-235.21v6.31c0,7.49,6.07,13.56,13.56,13.56h208.08c7.49,0,13.56-6.07,13.56-13.56v-6.31h.01,0Z"/>
  </g>
  <g class="st39">
    <path class="st5" d="M201.05,180.73l1.5,61.8h-5.61c-2.64-15.49-9.14-27.96-19.48-37.39-10.35-9.43-21.53-14.15-33.56-14.15-9.3,0-16.66,2.48-22.08,7.45s-8.13,10.69-8.13,17.16c0,4.1.96,7.75,2.87,10.94,2.64,4.29,6.88,8.52,12.71,12.71,4.28,3.01,14.17,8.34,29.67,16,21.69,10.66,36.32,20.74,43.89,30.21,7.47,9.48,11.21,20.33,11.21,32.54,0,15.5-6.04,28.83-18.12,39.99-12.08,11.17-27.41,16.75-46.01,16.75-5.83,0-11.35-.59-16.54-1.78-5.2-1.19-11.71-3.42-19.55-6.7-4.38-1.82-7.98-2.73-10.8-2.73-2.37,0-4.88.91-7.52,2.73s-4.79,4.6-6.43,8.34h-5.06v-70h5.06c4.01,19.69,11.73,34.71,23.17,45.05,11.44,10.35,23.77,15.52,36.98,15.52,10.21,0,18.34-2.78,24.4-8.34s9.09-12.03,9.09-19.41c0-4.38-1.16-8.61-3.49-12.71s-5.86-8-10.6-11.69-13.12-8.5-25.16-14.42c-16.86-8.29-28.98-15.36-36.37-21.19-7.38-5.83-13.06-12.35-17.02-19.55-3.96-7.2-5.95-15.13-5.95-23.79,0-14.77,5.42-27.34,16.27-37.73,10.85-10.39,24.52-15.59,41.02-15.59,6.02,0,11.85.73,17.5,2.19,4.28,1.09,9.5,3.12,15.65,6.08s10.46,4.44,12.92,4.44,4.24-.73,5.61-2.19,2.64-4.97,3.83-10.53h4.13Z"/>
    <path class="st8" d="M350.13,317.59h-65.49l-7.79,18.05c-2.55,6.02-3.83,10.98-3.83,14.9,0,5.2,2.1,9.02,6.29,11.48,2.46,1.46,8.52,2.55,18.18,3.28v5.06h-61.66v-5.06c6.65-1,12.12-3.76,16.41-8.27,4.28-4.51,9.57-13.83,15.86-27.96l66.31-147.93h2.6l66.86,152.03c6.38,14.4,11.62,23.47,15.72,27.21,3.1,2.83,7.47,4.47,13.12,4.92v5.06h-89.69v-5.06h3.69c7.2,0,12.26-1,15.18-3.01,2-1.46,3.01-3.55,3.01-6.29,0-1.64-.27-3.33-.82-5.06-.18-.82-1.55-4.24-4.1-10.25l-9.84-23.11h-.01ZM345.48,307.47l-27.62-63.85-28.44,63.85h56.06Z"/>
    <path class="st78" d="M518.63,285.87v51.95c0,10.03.62,16.34,1.85,18.94s3.39,4.67,6.49,6.22,8.89,2.32,17.36,2.32v5.06h-94.88v-5.06c8.57,0,14.38-.8,17.43-2.39,3.05-1.59,5.2-3.67,6.43-6.22,1.23-2.55,1.85-8.84,1.85-18.87v-120.31c0-10.03-.62-16.34-1.85-18.94s-3.4-4.67-6.49-6.22c-3.1-1.55-8.89-2.32-17.36-2.32v-5.06h86.13c22.42,0,38.83,1.55,49.22,4.65,10.39,3.1,18.87,8.82,25.43,17.16s9.84,18.12,9.84,29.33c0,13.67-4.92,24.97-14.77,33.91-6.29,5.65-15.09,9.89-26.39,12.71l44.57,62.75c5.83,8.11,9.98,13.17,12.44,15.18,3.74,2.83,8.07,4.38,12.99,4.65v5.06h-58.38l-59.75-84.49h-12.17.01ZM518.63,194.95v81.21h7.79c12.67,0,22.15-1.16,28.44-3.49s11.23-6.52,14.83-12.58c3.6-6.06,5.4-13.97,5.4-23.72,0-14.13-3.3-24.56-9.91-31.31-6.61-6.74-17.25-10.12-31.92-10.12h-14.63Z"/>
  </g>
  <g>
    <polygon class="st20" points="214.96 503.61 214.96 590.93 215.34 612.75 241.68 637.58 241.68 503.61 214.96 503.61"/>
    <polygon class="st33" points="271.44 503.61 271.44 665.65 298.16 690.84 298.16 503.61 271.44 503.61"/>
    <polygon class="st31" points="327.92 503.61 327.92 718.91 354.64 744.1 354.64 503.61 327.92 503.61"/>
    <polygon class="st58" points="382.11 503.61 382.11 745.72 408.83 720.91 408.83 503.61 382.11 503.61"/>
    <polygon class="st95" points="436.31 503.61 436.31 695.39 463.02 670.58 463.02 503.61 436.31 503.61"/>
    <polygon class="st47" points="491.26 503.61 491.26 644.35 517.97 619.54 517.97 503.61 491.26 503.61"/>
  </g>
  <g>
    <path class="st67" d="M183.03,163.58c-5.8,0-11.69-.69-17.52-2.04-5.73-1.33-9.97-2.54-12.59-3.6-6.69-2.72-13-6.59-18.73-11.5-11.29-9.85-17.91-21.11-20.24-34.41-1.29-7.08-1.36-13.95-.21-20.41.6-3.61,1.43-6.84,2.52-9.88l.52-1.39c.46-1.31.87-2.35,1.32-3.37l2.44-4.82c.44-.88.88-1.64,1.37-2.39l2.28-3.63,2.58-3.43c3.05-4,6.64-7.39,10.71-10.15,7.44-5.03,13.72-7.8,21.66-9.55,18.28-4.03,73.39-6.07,163.8-6.07,70.71,0,144.26,1.24,183.78,1.9,13.68.23,22.72.38,25.78.38h.85c1.99-.05,3.96-.08,5.85-.08,31.48,0,45.28,6.87,55.5,14.3,3.44,2.5,6.08,4.77,8.82,7.58,15.69,16.12,18.3,36.05,15.51,49.33-2.45,11.64-10.9,24.93-22.07,34.68-5.66,4.85-15.62,10.53-22.66,12.93-12.26,4.17-22.43,4.79-27.4,4.79-2.04,0-3.19-.11-3.2-.11-17.75-.08-32.32-5.38-42.16-15.33-8.31-8.4-12.85-19.78-12.78-32.05.08-13.66,4.2-23.83,12.23-30.21,6.55-5.6,15.45-8.81,24.43-8.81,2.12,0,4.17.18,6.09.55,9.15,1.39,17.27,6.89,20.71,14.01,2.65,5.19,2.85,9.85,2.71,13l-15.07,4.37-.09-4.13c-.05-1.74-.29-4.35-1.86-6.88-.62-1.03-3.1-4.48-9.05-5.04h-.21c-.13,0-13.58.5-16.63,4.65-4.5,4.26-4.01,10.75-3.53,17.03l.04.49c2.45,32.27,29.73,35.75,41.34,35.75,2.28,0,3.93-.13,4.55-.18,13.27-1.07,24.19-7.89,27.13-10.83,5.3-5.46,11.86-14.86,13.75-22.63,3.32-13.63,2.41-32.91-20.72-47.36-.3-.19-.54-.34-.72-.45-4.42-2.58-13.56-7.91-33.31-9.89-17.56-1.76-125.17-2.12-212.36-2.12-64.98,0-119.49.21-120.17.24-19.21.79-34.66,3.63-45.91,8.43-17.85,7.53-27.27,20.13-28.01,37.44-.02.4-.03.73-.05.99-1.54,20.25,11.74,34.35,18.98,38.97,9.33,5.96,15.77,7,25.86,7,1.61,0,3.3-.03,5.11-.06,9.08-.18,18.27-3.07,23.98-7.56,11.11-8.73,11.58-17.98,11.81-22.42.19-3.65.22-16.19-7.24-24.04-3.93-4.14-9.31-6.23-15.98-6.23-1.48,0-3.05.1-4.66.31-3.51.45-6.23,2-8.08,4.6-3.75,5.25-2.88,13.2-2.48,15.76l-14.98-4.2c-.15-2.47-.32-7.63,2.76-13.64,3.38-7.06,11.56-12.53,20.83-13.96,1.8-.34,3.84-.51,5.92-.51,8.98,0,17.93,3.25,24.57,8.91,9.15,7.27,14.81,19.44,14.43,31-.51,15.54-5.84,27.75-15.01,34.4-.15.11-.27.2-.35.26-4.76,4.08-11.23,7.17-19.24,9.2-5.55,1.4-11.35,2.11-17.25,2.11h0Z"/>
    <path class="st82" d="M322.94,37.46c70.73,0,144.29,1.24,183.81,1.9,13.67.23,22.69.38,25.75.38h.87c1.99-.05,3.95-.08,5.84-.08,31.34,0,45.05,6.82,55.2,14.2,3.42,2.48,6.03,4.73,8.75,7.52,15.55,15.98,18.14,35.72,15.38,48.87-2.42,11.54-10.82,24.72-21.9,34.39-5.63,4.82-15.51,10.46-22.5,12.84-12.19,4.14-22.29,4.76-27.23,4.76-2.01,0-3.14-.1-3.16-.1h-.09c-17.57-.08-32.01-5.33-41.76-15.18-8.22-8.31-12.7-19.56-12.63-31.69.08-13.5,4.13-23.54,12.06-29.84,6.44-5.51,15.22-8.67,24.09-8.67,2.09,0,4.11.18,6.03.54,8.97,1.36,16.94,6.75,20.32,13.74,2.49,4.88,2.76,9.29,2.66,12.38l-14.08,4.08-.08-3.47c-.05-1.8-.3-4.49-1.92-7.11-.65-1.1-3.25-4.71-9.42-5.29-.05,0-.14-.01-.28-.01s-13.72.44-17.02,4.82c-4.64,4.43-4.14,11.03-3.65,17.41l.04.49c2.48,32.69,30.09,36.22,41.85,36.22,2.3,0,3.96-.13,4.62-.19,13.38-1.08,24.43-7.99,27.43-10.99,5.52-5.68,11.95-14.96,13.87-22.86,3.36-13.79,2.45-33.31-20.94-47.92-.29-.18-.53-.33-.71-.45l-.02-.02h-.02c-4.42-2.6-13.63-7.97-33.49-9.95-17.58-1.76-125.21-2.13-212.41-2.13-64.98,0-119.51.21-120.19.24-19.28.79-34.78,3.64-46.09,8.47-18.05,7.62-27.58,20.36-28.32,37.89-.02.39-.03.72-.05.97-1.56,20.49,11.88,34.76,19.21,39.43,9.38,5.99,16.16,7.08,26.13,7.08,1.71,0,3.47-.03,5.12-.06,9.18-.18,18.49-3.12,24.28-7.67,9.95-7.82,11.65-15.91,12.01-22.8.19-3.71.22-16.42-7.38-24.41-4.03-4.24-9.53-6.39-16.35-6.39-1.5,0-3.09.11-4.72.32-3.66.47-6.49,2.09-8.43,4.81-3.52,4.94-3.09,12.16-2.68,15.35l-13.89-3.9c-.14-2.54-.15-7.41,2.73-13.04,3.3-6.9,11.33-12.26,20.48-13.67,1.76-.33,3.77-.5,5.81-.5,8.86,0,17.69,3.2,24.27,8.82,9.02,7.17,14.6,19.17,14.22,30.58-.51,15.38-5.76,27.45-14.8,34.01-.16.12-.28.21-.39.3-4.68,4.02-11.08,7.07-19.02,9.08-5.51,1.39-11.27,2.1-17.13,2.1s-11.62-.68-17.4-2.02c-5.7-1.32-9.91-2.53-12.51-3.57-6.64-2.7-12.9-6.54-18.59-11.41-11.2-9.77-17.77-20.93-20.07-34.12-1.28-7.02-1.35-13.82-.21-20.24.6-3.57,1.41-6.78,2.49-9.78l.53-1.41c.45-1.28.85-2.3,1.29-3.31l2.44-4.83c.43-.86.86-1.6,1.36-2.35l2.25-3.58,2.57-3.43-.81-.61.85.56c2.97-3.9,6.52-7.26,10.55-9.98,7.39-4.99,13.61-7.74,21.49-9.47,18.25-4.02,73.32-6.06,163.69-6.06M322.94,36.44c-73.18,0-142.39,1.34-163.91,6.08-7.25,1.6-13.75,4.16-21.84,9.62-4.13,2.79-7.77,6.24-10.78,10.2,0,.02-.03.04-.04.06l-2.6,3.46-2.27,3.61c-.41.62-.87,1.38-1.4,2.44l-2.46,4.85c-.51,1.17-.93,2.28-1.33,3.4l-.52,1.4c-1.09,3.04-1.94,6.32-2.54,9.97-1.16,6.51-1.09,13.44.21,20.59,2.37,13.54,9.16,24.89,20.41,34.7,5.81,4.98,12.15,8.86,18.87,11.59,3.09,1.25,8.01,2.54,12.66,3.62,5.79,1.34,11.72,2.05,17.63,2.05s11.68-.69,17.38-2.13c7.41-1.87,14.26-4.85,19.44-9.29,1.29-1.03,14.69-9.25,15.55-35.04.39-11.9-5.54-24.2-14.6-31.4-6.73-5.74-15.8-9.04-24.9-9.04-2.12,0-4.19.18-6,.52-9.44,1.45-17.78,7.07-21.21,14.23-3.27,6.39-2.94,11.91-2.79,14.26l16.11,4.52s-3.89-18.78,9.99-20.56c1.62-.21,3.15-.31,4.59-.31,21.42,0,23.12,21.85,22.71,29.73-.28,5.45-1.25,13.91-11.62,22.05-6.11,4.8-15.41,7.3-23.68,7.46-1.8.03-3.49.06-5.1.06-9.74,0-16.27-.97-25.59-6.92-7.04-4.49-20.27-18.47-18.74-38.5.31-4.02-.71-26,27.75-38,14.64-6.25,33.73-7.9,45.74-8.39.74-.03,55.29-.24,120.15-.24,87.99,0,194.94.38,212.31,2.12,19.03,1.9,27.91,6.79,33.08,9.81,3.23,2.14,28.82,16.03,21.22,47.28-1.77,7.26-7.83,16.43-13.61,22.39-3.14,3.14-14.05,9.66-26.78,10.68-.62.05-2.25.18-4.54.18-11.23,0-38.4-3.21-40.84-35.28-.48-6.31-1.11-12.95,3.37-17.15,2.62-3.68,14.62-4.48,16.25-4.48h.16c4.54.42,7.42,2.71,8.66,4.8,1.52,2.45,1.74,4.96,1.78,6.62l.11,4.79,16.05-4.65c.17-3.2.08-8.09-2.74-13.61-3.51-7.25-11.84-12.88-21.07-14.29-1.98-.37-4.07-.56-6.18-.56-9.1,0-18.18,3.3-24.75,8.92-9.21,7.33-12.35,18.72-12.42,30.61-.15,24.15,17.56,47.71,55.4,47.88,0,0,1.16.11,3.25.11,4.98,0,15.22-.62,27.56-4.82,6.86-2.33,16.98-8.01,22.83-13.03,11.21-9.78,19.75-23.14,22.23-34.95,2.67-12.72.45-33.25-15.65-49.79-2.88-2.96-5.54-5.21-8.88-7.64-10.55-7.67-24.69-14.39-55.8-14.39-1.89,0-3.85.02-5.87.08h-.84c-11.73,0-114.02-2.29-209.55-2.29h0Z"/>
  </g>
  <g>
    <g>
      <g class="st97">
        <path class="st85" d="M73.87,409.82h0Z"/>
        <path class="st85" d="M84.72,409.82h0Z"/>
        <path class="st38" d="M95.57,409.82h0Z"/>
        <path class="st66" d="M106.42,409.82h0Z"/>
        <path class="st30" d="M117.27,409.82h0Z"/>
        <path class="st87" d="M128.12,409.82h0Z"/>
        <path class="st64" d="M138.98,409.82h0Z"/>
        <path class="st91" d="M149.83,409.82h0Z"/>
        <path class="st96" d="M160.68,409.82h0Z"/>
        <path class="st71" d="M171.53,409.82h0Z"/>
        <path class="st40" d="M182.38,409.82h0Z"/>
        <path class="st70" d="M193.23,409.82h0Z"/>
        <path class="st16" d="M204.08,409.82h0Z"/>
        <path class="st59" d="M214.93,409.82h0Z"/>
        <path class="st74" d="M225.79,409.82h0Z"/>
        <path class="st92" d="M236.64,409.82h0Z"/>
        <path class="st54" d="M247.49,409.82h0Z"/>
        <path class="st83" d="M258.34,409.82h0Z"/>
        <path class="st56" d="M269.19,409.82h0Z"/>
        <path class="st28" d="M280.04,409.82h0Z"/>
        <path class="st88" d="M290.89,409.82h0Z"/>
        <path class="st1" d="M301.74,409.82h0Z"/>
        <path class="st22" d="M312.6,409.82h0Z"/>
        <path class="st98" d="M323.45,409.82h0Z"/>
        <path class="st45" d="M334.3,409.82h0Z"/>
        <path class="st45" d="M334.3,409.82h0Z"/>
      </g>
      <rect class="st89" x="73.87" y="407.82" width="260.43" height="4"/>
    </g>
    <g>
      <g class="st34">
        <path class="st85" d="M386.83,409.82h0Z"/>
        <path class="st85" d="M398.17,409.82h0Z"/>
        <path class="st38" d="M409.51,409.82h0Z"/>
        <path class="st66" d="M420.86,409.82h0Z"/>
        <path class="st30" d="M432.2,409.82h0Z"/>
        <path class="st87" d="M443.54,409.82h0Z"/>
        <path class="st64" d="M454.89,409.82h0Z"/>
        <path class="st91" d="M466.23,409.82h0Z"/>
        <path class="st96" d="M477.57,409.82h0Z"/>
        <path class="st71" d="M488.91,409.82h0Z"/>
        <path class="st40" d="M500.26,409.82h0Z"/>
        <path class="st70" d="M511.6,409.82h0Z"/>
        <path class="st16" d="M522.94,409.82h0Z"/>
        <path class="st59" d="M534.29,409.82h0Z"/>
        <path class="st74" d="M545.63,409.82h0Z"/>
        <path class="st92" d="M556.97,409.82h0Z"/>
        <path class="st54" d="M568.31,409.82h0Z"/>
        <path class="st83" d="M579.66,409.82h0Z"/>
        <path class="st56" d="M591,409.82h0Z"/>
        <path class="st28" d="M602.34,409.82h0Z"/>
        <path class="st88" d="M613.69,409.82h0Z"/>
        <path class="st1" d="M625.03,409.82h0Z"/>
        <path class="st22" d="M636.37,409.82h0Z"/>
        <path class="st98" d="M647.71,409.82h0Z"/>
        <path class="st45" d="M659.06,409.82h0Z"/>
        <path class="st45" d="M659.06,409.82h0Z"/>
      </g>
      <rect class="st90" x="386.83" y="407.82" width="272.23" height="4"/>
    </g>
    <rect class="st77" x="350.43" y="397.09" width="20.26" height="20.26" transform="translate(-182.35 374.23) rotate(-45)"/>
  </g>
  <g>
    <g>
      <g class="st86">
        <path class="st85" d="M73.87,474.34h0Z"/>
        <path class="st85" d="M84.72,474.34h0Z"/>
        <path class="st38" d="M95.57,474.34h0Z"/>
        <path class="st66" d="M106.42,474.34h0Z"/>
        <path class="st30" d="M117.27,474.34h0Z"/>
        <path class="st87" d="M128.12,474.34h0Z"/>
        <path class="st64" d="M138.98,474.34h0Z"/>
        <path class="st91" d="M149.83,474.34h0Z"/>
        <path class="st96" d="M160.68,474.34h0Z"/>
        <path class="st71" d="M171.53,474.34h0Z"/>
        <path class="st40" d="M182.38,474.34h0Z"/>
        <path class="st70" d="M193.23,474.34h0Z"/>
        <path class="st16" d="M204.08,474.34h0Z"/>
        <path class="st59" d="M214.93,474.34h0Z"/>
        <path class="st74" d="M225.79,474.34h0Z"/>
        <path class="st92" d="M236.64,474.34h0Z"/>
        <path class="st54" d="M247.49,474.34h0Z"/>
        <path class="st83" d="M258.34,474.34h0Z"/>
        <path class="st56" d="M269.19,474.34h0Z"/>
        <path class="st28" d="M280.04,474.34h0Z"/>
        <path class="st88" d="M290.89,474.34h0Z"/>
        <path class="st1" d="M301.74,474.34h0Z"/>
        <path class="st22" d="M312.6,474.34h0Z"/>
        <path class="st98" d="M323.45,474.34h0Z"/>
        <path class="st45" d="M334.3,474.34h0Z"/>
        <path class="st45" d="M334.3,474.34h0Z"/>
      </g>
      <rect class="st27" x="73.87" y="472.34" width="260.43" height="4"/>
    </g>
    <g>
      <g class="st52">
        <path class="st85" d="M386.83,474.34h0Z"/>
        <path class="st85" d="M398.17,474.34h0Z"/>
        <path class="st38" d="M409.51,474.34h0Z"/>
        <path class="st66" d="M420.86,474.34h0Z"/>
        <path class="st30" d="M432.2,474.34h0Z"/>
        <path class="st87" d="M443.54,474.34h0Z"/>
        <path class="st64" d="M454.89,474.34h0Z"/>
        <path class="st91" d="M466.23,474.34h0Z"/>
        <path class="st96" d="M477.57,474.34h0Z"/>
        <path class="st71" d="M488.91,474.34h0Z"/>
        <path class="st40" d="M500.26,474.34h0Z"/>
        <path class="st70" d="M511.6,474.34h0Z"/>
        <path class="st16" d="M522.94,474.34h0Z"/>
        <path class="st59" d="M534.29,474.34h0Z"/>
        <path class="st74" d="M545.63,474.34h0Z"/>
        <path class="st92" d="M556.97,474.34h0Z"/>
        <path class="st54" d="M568.31,474.34h0Z"/>
        <path class="st83" d="M579.66,474.34h0Z"/>
        <path class="st56" d="M591,474.34h0Z"/>
        <path class="st28" d="M602.34,474.34h0Z"/>
        <path class="st88" d="M613.69,474.34h0Z"/>
        <path class="st1" d="M625.03,474.34h0Z"/>
        <path class="st22" d="M636.37,474.34h0Z"/>
        <path class="st98" d="M647.71,474.34h0Z"/>
        <path class="st45" d="M659.06,474.34h0Z"/>
        <path class="st45" d="M659.06,474.34h0Z"/>
      </g>
      <rect class="st6" x="386.83" y="472.34" width="272.23" height="4"/>
    </g>
    <rect class="st15" x="350.43" y="461.62" width="20.26" height="20.26" transform="translate(-227.98 393.13) rotate(-45)"/>
  </g>
  <g class="st39">
    <path class="st13" d="M.05,444.22c.02-.27.11-.47.28-.59.17-.13.37-.19.59-.19.24,0,.45.08.65.22.2.15.28.38.25.7-.09,1.15.16,2.05.76,2.7.58.63,1.3.95,2.15.95.49,0,.91-.1,1.25-.31.35-.21.64-.47.86-.8.23-.33.4-.71.52-1.12.12-.42.18-.84.18-1.27.03-1.55.03-3.18,0-4.9v-2.13c-.02-1.28-.03-2.29-.04-3.02,0-.73-.01-1.2-.01-1.41,0-.3.09-.52.28-.66s.39-.21.62-.21.43.07.62.21c.19.14.28.36.28.66v2.37c0,.73,0,1.41.02,2.04v2.15c.02.95.02,1.83.02,2.65s-.02,1.59-.05,2.3c-.02.68-.13,1.33-.33,1.97-.21.63-.5,1.19-.89,1.68-.39.49-.86.88-1.42,1.16s-1.21.43-1.95.43-1.4-.12-1.92-.37c-.52-.24-1.03-.64-1.54-1.2-.92-1.04-1.32-2.38-1.21-4h.03Z"/>
    <path class="st81" d="M12.57,443.37v-1.76c0-.51,0-.97.02-1.38,0-.09,0-.25.01-.45,0-.21.01-.37.01-.5,0-.06,0-.17.01-.33,0-.16.01-.31.01-.45v-.19c0-.41.02-2.14.07-5.19,0-.24.09-.44.26-.62.17-.17.38-.26.62-.26s.47.09.64.26.26.39.26.64c-.05,3.03-.07,4.76-.07,5.19l-.02.43v.54c0,.13,0,.3-.01.51,0,.21-.01.37-.01.46-.02.4-.02.85-.02,1.36v1.76c-.02,1,.18,1.82.59,2.49.36.58.82,1,1.37,1.25.44.25.94.42,1.49.51s1.08.13,1.59.13c1.28-.03,2.28-.43,3-1.21.72-.77,1.11-1.79,1.17-3.05.03-.66.06-1.41.07-2.25s.02-1.77.02-2.79c0-.41,0-.96-.02-1.63-.02-.68-.02-1.4-.02-2.15-.02-.32-.02-.61-.02-.88v-.71c-.02-.24.06-.45.24-.63.17-.18.39-.27.64-.27s.44.08.62.25c.17.17.27.38.28.63,0,.58,0,1.16.01,1.74,0,.58.02,1.16.04,1.74v1.14c0,.32,0,.58.02.78,0,1.04,0,1.99-.02,2.84s-.04,1.62-.07,2.3c-.05.87-.22,1.66-.51,2.38s-.69,1.34-1.2,1.86-1.11.93-1.82,1.22-1.51.45-2.39.49c-.57,0-1.14-.04-1.72-.13s-1.13-.24-1.66-.45c-.53-.21-1.02-.49-1.47-.84s-.83-.78-1.15-1.3c-.6-.98-.88-2.13-.85-3.46v-.02Z"/>
    <path class="st29" d="M28.7,448.62c.02-.54.04-2.85.07-6.94v-8.52c.02-.25.11-.47.3-.66.18-.19.41-.28.67-.28.19,0,.32,0,.4-.02h.47c.76-.05,1.47-.07,2.13-.07.98,0,2,.09,3.05.27s2,.52,2.84,1.01c1.45.87,2.15,2.21,2.11,4.03-.03,1.28-.39,2.34-1.07,3.17-.68.84-1.63,1.4-2.87,1.68.8,1.15,1.52,2.21,2.14,3.18s1.19,1.86,1.69,2.66c.13.21.16.43.09.66-.06.24-.2.42-.4.54-.16.09-.32.14-.47.14-.32,0-.56-.14-.73-.43-.62-.98-1.27-2-1.98-3.08-.7-1.07-1.46-2.19-2.29-3.36-.02-.02-.02-.03-.02-.05-.24.03-.49.05-.75.05h-.82c-.41,0-.84,0-1.3-.02s-.94-.05-1.44-.09c-.02,3.65-.04,5.71-.07,6.18,0,.24-.09.44-.26.62-.17.17-.39.26-.64.26-.24-.02-.44-.11-.62-.28-.17-.17-.26-.39-.26-.64h.03ZM30.55,440.69c1.07.09,2.04.14,2.89.14.65,0,1.29-.03,1.93-.08s1.22-.2,1.75-.43c.53-.23.97-.58,1.31-1.04s.54-1.1.57-1.91c.03-1.14-.39-1.97-1.28-2.49-.38-.22-.79-.39-1.22-.52-.43-.13-.88-.23-1.34-.3-.46-.07-.92-.11-1.37-.13-.46-.02-.9-.02-1.33-.02h-.85c-.3,0-.61,0-.92.02-.02,0-.04,0-.07.01-.03,0-.06.01-.07.01v6.73h0Z"/>
    <path class="st14" d="M43.64,429.73c.39-.6,1.06-1.37,1.99-2.3.17-.17.37-.26.59-.26.17,0,.34.05.49.15s.26.23.34.38.11.31.09.49c-.02.17-.1.34-.26.5-.41.41-.77.79-1.07,1.12-.3.34-.54.64-.71.91-.08.13-.19.22-.32.28s-.27.09-.41.09c-.19,0-.36-.05-.5-.14-.21-.13-.33-.31-.38-.56-.05-.24,0-.47.14-.67h0ZM44.21,433.16c.02-.24.11-.44.28-.62.17-.17.39-.26.64-.26.24.02.44.11.6.28.17.17.25.39.25.64-.03,1.36-.03,3.84,0,7.44.02.13.02.26.02.4v.45c.02,1.66.02,3.08,0,4.25,0,1.18-.02,2.12-.04,2.83,0,.24-.09.44-.26.62-.17.17-.39.26-.64.26-.24-.02-.44-.11-.62-.28-.17-.17-.26-.39-.26-.64.02-.69.03-1.62.04-2.78,0-1.16,0-2.57,0-4.23v-.46c0-.15,0-.29-.02-.42-.02-3.6-.02-6.09,0-7.48h0Z"/>
    <path class="st48" d="M50.3,448.62c0-1.82.02-4.97.07-9.47v-.71c.05-1.74.07-3.46.07-5.19,0-.24.09-.44.26-.62.17-.17.38-.26.62-.26h.09c.43-.03.84-.06,1.23-.07s.78-.02,1.16-.02c1.56,0,2.95.15,4.16.44s2.22.78,3.04,1.46,1.44,1.58,1.86,2.7c.42,1.12.63,2.52.63,4.19-.03,1.63-.3,2.98-.82,4.07-.51,1.09-1.21,1.96-2.1,2.63-.88.66-1.93,1.13-3.14,1.41s-2.53.41-3.97.41c-.33,0-.67,0-1.03-.02-.35-.02-.72-.04-1.1-.07-.02,0-.04,0-.08.01s-.07.01-.08.01c-.25,0-.46-.09-.63-.26-.17-.17-.25-.39-.25-.64h.01ZM60.27,445.66c.58-.63.96-1.35,1.14-2.16.17-.8.28-1.62.31-2.44,0-1.39-.16-2.53-.47-3.43-.32-.9-.8-1.61-1.44-2.14-.65-.53-1.46-.9-2.43-1.11s-2.11-.32-3.42-.32h-.84c-.29,0-.6.02-.91.05,0,.02,0,.39,0,1.11,0,.73-.02,1.81-.04,3.24v.71c-.05,3.98-.07,6.84-.07,8.6.24.02.47.03.7.04.23,0,.45.01.67.01.58,0,1.19-.03,1.81-.08s1.24-.16,1.84-.32,1.17-.38,1.72-.66c.54-.28,1.03-.65,1.46-1.09h-.02Z"/>
    <path class="st4" d="M68.67,433.21v7.44c.02.25.02.54.02.85v2.98c0,1.78,0,3.15-.02,4.1,0,.24-.09.44-.26.62-.17.17-.39.26-.64.26-.24-.02-.44-.11-.62-.28-.17-.17-.26-.39-.26-.64.02-.92.02-2.26.02-4.03v-2.98c0-.32,0-.61-.02-.88v-7.48c.02-.24.11-.44.28-.62.17-.17.39-.26.64-.26.24.02.44.11.6.27.17.17.25.36.25.58v.07h.01Z"/>
    <path class="st63" d="M72.51,435.48c.76-1.07,1.69-1.92,2.81-2.54,1.11-.62,2.32-.94,3.63-.94.71,0,1.39.11,2.02.32.64.21,1.22.51,1.75.9s.99.85,1.4,1.4c.4.54.72,1.15.96,1.81.08.22.06.44-.05.66s-.28.37-.5.45c-.05.03-.1.05-.15.05h-.15c-.17,0-.34-.05-.5-.15s-.27-.25-.33-.44c-.32-.99-.89-1.78-1.72-2.34-.83-.57-1.76-.85-2.78-.85s-1.94.23-2.78.7-1.55,1.12-2.12,1.98c-.96,1.44-1.4,3.19-1.3,5.26.03.79.2,1.56.5,2.31s.71,1.42,1.22,2.01,1.12,1.07,1.82,1.42,1.47.53,2.31.53c.66,0,1.25-.13,1.78-.4.52-.27.98-.62,1.39-1.04.4-.43.75-.91,1.05-1.46s.55-1.09.76-1.65c.16-.39.44-.59.85-.59.06,0,.16.02.28.05.24.06.41.21.51.44s.11.45.04.67c-.25.77-.58,1.51-.98,2.2-.4.7-.89,1.3-1.46,1.82-.57.52-1.21.94-1.92,1.24s-1.5.46-2.37.46c-.25,0-.51-.01-.77-.04-.26-.02-.52-.08-.79-.15-.88-.24-1.69-.61-2.4-1.11-.72-.5-1.33-1.1-1.85-1.78s-.92-1.43-1.21-2.26c-.29-.83-.46-1.69-.51-2.59-.13-2.49.39-4.61,1.56-6.35h0Z"/>
    <path class="st10" d="M87.54,440.9c.02-1.18.2-2.3.56-3.34s.86-1.96,1.53-2.75c.66-.79,1.47-1.43,2.43-1.93s2.04-.8,3.26-.91c.03-.01.07-.02.12-.02.06,0,.1,0,.12.02,2.64.09,4.69,1.15,6.16,3.17,1.29,1.8,1.84,3.96,1.63,6.49-.09,1.12-.35,2.19-.76,3.21s-.96,1.92-1.65,2.69-1.51,1.39-2.46,1.85c-.96.46-2.03.69-3.23.69-1.37,0-2.55-.26-3.53-.78-.98-.52-1.85-1.37-2.6-2.56-1.06-1.69-1.58-3.63-1.56-5.83h-.02ZM90.6,445.78c.55.88,1.2,1.52,1.95,1.92.75.4,1.63.59,2.64.59s1.82-.19,2.58-.57,1.4-.88,1.94-1.5.96-1.35,1.28-2.17.51-1.67.57-2.56c.17-2.12-.26-3.89-1.3-5.33-1.14-1.59-2.78-2.4-4.93-2.42-.98.09-1.84.35-2.58.76-.74.41-1.37.94-1.87,1.58-.51.64-.89,1.37-1.15,2.2-.26.83-.4,1.71-.41,2.64-.02,1.85.41,3.47,1.28,4.85h0Z"/>
    <path class="st7" d="M114.35,448.62c.08-3.47.13-6.54.15-9.21.02-2.67.03-4.96.01-6.87,0-.25.09-.46.26-.64.17-.17.38-.26.62-.26s.47.08.64.25.26.38.26.63c.02,1.93.01,4.23-.01,6.9-.02,2.68-.08,5.76-.15,9.25-.02.25-.11.46-.28.63s-.39.25-.64.25c-.24-.02-.44-.11-.62-.28-.17-.17-.25-.39-.24-.64h0Z"/>
    <path class="st100" d="M128.39,435.48c.76-1.07,1.69-1.92,2.81-2.54,1.11-.62,2.32-.94,3.63-.94.71,0,1.39.11,2.02.32.64.21,1.22.51,1.75.9s.99.85,1.4,1.4c.4.54.72,1.15.96,1.81.08.22.06.44-.05.66s-.28.37-.5.45c-.05.03-.1.05-.15.05h-.15c-.17,0-.34-.05-.5-.15s-.27-.25-.33-.44c-.32-.99-.89-1.78-1.72-2.34-.83-.57-1.76-.85-2.78-.85s-1.94.23-2.78.7-1.55,1.12-2.12,1.98c-.96,1.44-1.4,3.19-1.3,5.26.03.79.2,1.56.5,2.31s.71,1.42,1.22,2.01,1.12,1.07,1.82,1.42,1.47.53,2.31.53c.66,0,1.25-.13,1.78-.4.52-.27.98-.62,1.39-1.04.4-.43.75-.91,1.05-1.46s.55-1.09.76-1.65c.16-.39.44-.59.85-.59.06,0,.16.02.28.05.24.06.41.21.51.44.1.23.11.45.04.67-.25.77-.58,1.51-.98,2.2-.4.7-.89,1.3-1.46,1.82-.57.52-1.21.94-1.92,1.24s-1.5.46-2.37.46c-.25,0-.51-.01-.77-.04-.26-.02-.52-.08-.79-.15-.88-.24-1.69-.61-2.4-1.11-.72-.5-1.33-1.1-1.85-1.78s-.92-1.43-1.21-2.26c-.29-.83-.46-1.69-.51-2.59-.13-2.49.39-4.61,1.56-6.35h0Z"/>
    <path class="st50" d="M143.43,440.9c.02-1.18.2-2.3.56-3.34s.86-1.96,1.53-2.75c.66-.79,1.47-1.43,2.43-1.93.96-.5,2.04-.8,3.26-.91.03-.01.07-.02.12-.02.06,0,.1,0,.12.02,2.64.09,4.69,1.15,6.16,3.17,1.29,1.8,1.84,3.96,1.63,6.49-.09,1.12-.35,2.19-.76,3.21-.41,1.02-.96,1.92-1.65,2.69-.69.77-1.51,1.39-2.46,1.85-.96.46-2.03.69-3.23.69-1.37,0-2.55-.26-3.53-.78s-1.85-1.37-2.6-2.56c-1.06-1.69-1.58-3.63-1.56-5.83h-.02ZM146.48,445.78c.55.88,1.2,1.52,1.95,1.92.75.4,1.63.59,2.64.59s1.82-.19,2.58-.57,1.4-.88,1.94-1.5c.54-.62.96-1.35,1.28-2.17.32-.82.51-1.67.57-2.56.17-2.12-.26-3.89-1.3-5.33-1.14-1.59-2.78-2.4-4.93-2.42-.98.09-1.84.35-2.58.76s-1.37.94-1.87,1.58c-.51.64-.89,1.37-1.15,2.2-.26.83-.4,1.71-.41,2.64-.02,1.85.41,3.47,1.28,4.85h0Z"/>
    <path class="st76" d="M175.18,433.33c-.02.68-.02,1.63-.02,2.87s0,2.77.02,4.57v.85c0,1.56,0,2.94.02,4.12.02,1.17,0,2.15-.02,2.96-.02.24-.11.44-.28.62-.17.17-.39.26-.64.26-.03,0-.07,0-.12-.02-.05-.02-.08-.02-.09-.02-.25-.03-.46-.15-.62-.35-3.43-4.45-6.42-8.86-8.98-13.24v4.71c.02.25.02.54.02.85v2.98c0,1.78,0,3.15-.02,4.1,0,.24-.09.44-.26.62-.17.17-.39.26-.64.26-.24-.02-.44-.11-.62-.28-.17-.17-.26-.39-.26-.64.02-.92.02-2.26.02-4.03v-2.98c0-.32,0-.61-.02-.88v-7.48c.02-.24.11-.44.28-.62.17-.17.39-.26.64-.26.19.03.36.09.52.19.19.08.33.2.43.35,2.15,3.58,5.1,7.98,8.86,13.19v-5.26c-.02-1.8-.02-3.32-.02-4.57s0-2.22.02-2.91c0-.24.09-.44.26-.62.17-.17.39-.26.64-.26.24.02.44.11.62.28.17.17.26.39.26.64h0Z"/>
    <path class="st36" d="M176.48,433.06c0-.24.08-.44.25-.62.17-.17.37-.27.63-.28,1.22,0,2.42,0,3.62.01,1.2,0,2.41.02,3.62.04.96.02,1.86.02,2.7.02h2.39c.25,0,.47.09.64.26s.26.39.26.64-.09.44-.26.62c-.17.17-.39.26-.64.26h-2.39c-.84,0-1.74,0-2.7-.02h-.31c.03,1.72.04,3.79.04,6.19s-.03,5.18-.06,8.32c0,.24-.09.44-.27.62-.18.17-.39.25-.63.24-.25,0-.46-.09-.63-.26s-.25-.39-.25-.64c.03-3.14.05-5.91.06-8.31,0-2.4,0-4.46-.04-6.18h-1.18c-.51-.02-1.09-.02-1.74-.02h-2.21c-.25.02-.47-.06-.64-.24-.17-.17-.26-.39-.26-.64h0Z"/>
    <path class="st32" d="M188.16,448.15c.92-2.26,1.87-4.66,2.85-7.21.99-2.55,2.02-5.28,3.09-8.18.08-.17.19-.31.34-.4s.31-.14.49-.14c.11,0,.19,0,.24.02.35.02.58.2.71.54.32.9.62,1.7.92,2.4.3.7.54,1.32.73,1.86.06.17.17.45.31.82s.32.85.54,1.43l.69,1.82s.04.12.08.23c.04.1.08.22.13.34.05.13.09.25.14.37s.09.22.12.3c.47,1.25.9,2.36,1.27,3.34.37.98.71,1.83,1.03,2.56.09.22.09.45,0,.67-.1.23-.26.39-.49.49-.09.05-.21.07-.33.07-.39,0-.67-.19-.83-.57-.21-.5-.41-1.02-.62-1.54-.21-.52-.4-1.04-.59-1.56h-2.27c-.74,0-1.48,0-2.2.02h-3.5c-.06.16-.19.49-.37.98s-.45,1.16-.82,2c-.16.38-.43.57-.83.57-.13,0-.24-.02-.33-.07-.22-.11-.38-.28-.49-.5-.1-.22-.11-.44,0-.66h0ZM194.51,444.05c.58-.02,1.19-.02,1.81-.02h1.98c-.05-.13-.12-.31-.21-.54-.09-.24-.16-.4-.19-.5-.33-.9-.67-1.79-1.01-2.66s-.68-1.76-1.03-2.66c-.13-.38-.26-.75-.4-1.12s-.29-.74-.45-1.1c-.66,1.74-1.27,3.32-1.81,4.75s-1.05,2.72-1.5,3.87h2.82v-.02Z"/>
    <path class="st79" d="M204.74,448.6c0-.68.02-3.24.07-7.7,0-2.59.02-5.19.07-7.79,0-.25.09-.46.26-.63s.39-.25.64-.25c.03,0,.07,0,.11.01.04,0,.07.01.08.01h4.93c.57,0,1.07.1,1.52.3.44.2.87.49,1.28.89.92.87,1.36,1.97,1.33,3.32-.02.9-.37,1.7-1.07,2.39.47.19.91.44,1.31.75s.75.66,1.05,1.07c.3.4.54.83.71,1.29.17.46.26.94.26,1.44.02,1.69-.51,3.13-1.59,4.31-.49.54-1,.93-1.54,1.17-.54.24-1.17.37-1.89.37h-6.01c-.24,0-.4,0-.47-.02-.06,0-.12,0-.17-.02s-.09-.02-.12-.02c-.22-.03-.41-.13-.56-.3-.15-.17-.22-.36-.2-.58h0ZM209.12,447.75h2.05c.53,0,.91,0,1.15.02.81,0,1.51-.33,2.11-.99.36-.41.64-.87.84-1.37s.28-1.07.25-1.68c-.02-.41-.11-.8-.28-1.16-.17-.36-.4-.68-.69-.96-.28-.28-.61-.5-.97-.67s-.74-.28-1.14-.31c-.39-.03-.73-.05-1.02-.07-.28-.02-.51-.02-.69-.02-.32.02-.63.03-.95.04-.32,0-.65.01-.99.01h-2.2v.33c-.05,2.29-.07,4.58-.07,6.87h1.36c.43,0,.85,0,1.24-.02v-.02ZM206.58,438.75c.08.02.18.02.31.02h.45c.38-.02.74-.03,1.09-.04.35,0,.68-.01.99-.01.22,0,.43,0,.64.01.21,0,.41.01.62.01.05-.02.16-.02.33-.02.28-.03.56-.11.83-.22.27-.12.5-.27.71-.45.2-.18.37-.39.5-.63s.19-.47.19-.71c0-.33-.05-.65-.15-.97-.1-.32-.26-.6-.46-.85-.21-.25-.45-.46-.72-.62-.28-.16-.6-.24-.96-.24h-4.31v1.68c-.02.43-.02.82-.02,1.18v1c-.02.09-.02.21-.02.35v.5h-.02Z"/>
    <path class="st75" d="M220.72,433.16c.02-.24.11-.44.28-.62.17-.17.39-.26.64-.26.24.02.44.11.6.28.17.17.25.39.25.64-.03,1.36-.03,3.84,0,7.44.02.13.02.26.02.4v6.68h2.01c.87,0,1.75,0,2.65-.01.9,0,1.82-.04,2.77-.08.25-.02.47.06.64.22s.26.38.26.63c.02.25-.06.47-.23.64s-.38.26-.63.26c-1.39.03-2.77.06-4.14.08s-2.75.04-4.12.04c-.28-.03-.53-.12-.72-.27-.2-.15-.3-.38-.3-.7.02-.69.03-1.62.04-2.78,0-1.16,0-2.57,0-4.23v-.46c0-.15,0-.29-.02-.42-.02-3.6-.02-6.09,0-7.48h.01Z"/>
    <path class="st17" d="M234.81,432.31c.71.02,1.38.03,2.01.04.63,0,1.24.01,1.82.01.9,0,1.72,0,2.47-.02s1.44-.04,2.07-.07h.07c.27,0,.47.09.6.27s.21.38.21.59-.06.41-.19.6-.34.29-.63.31c-1.44.05-3.23.07-5.38.07h-2.25v.44c0,.2,0,.42,0,.68,0,.25,0,.51,0,.77v.7h1.71c.55,0,1.08,0,1.59-.02h.47c.69-.02,1.32-.02,1.87-.02h1.44c.28,0,.5.09.64.27s.21.39.21.62-.07.43-.21.62c-.14.18-.36.27-.64.27h-1.44c-.55,0-1.17,0-1.85.02h-.47c-.51.02-1.03.02-1.59.02h-1.71v4.5c0,.14,0,.3,0,.47,0,.17,0,.33,0,.47v3.79h1.75c.57,0,1.1,0,1.61-.02h.5c.73-.02,1.38-.02,1.95-.02h1.55c.28,0,.5.09.64.27s.21.39.21.62-.07.43-.21.62-.36.27-.64.27h-1.53c-.58,0-1.23,0-1.95.02h-.5c-.71.02-1.4.02-2.07.02h-2.19c-.24.02-.44-.06-.62-.24-.17-.17-.26-.39-.26-.64-.02-.28-.02-.8-.02-1.54v-3.6c-.02-.17-.02-.33-.02-.49v-1.72c0-4.03-.02-6.61-.07-7.74,0-.3.08-.58.24-.83s.4-.38.73-.38h.04Z"/>
    <path class="st84" d="M255.08,448.62c.08-3.47.13-6.54.15-9.21.02-2.67.03-4.96,0-6.87,0-.25.09-.46.26-.64.17-.17.38-.26.62-.26s.47.08.64.25.26.38.26.63c.02,1.93.01,4.23-.01,6.9-.02,2.68-.08,5.76-.15,9.25-.02.25-.11.46-.28.63s-.39.25-.64.25c-.24-.02-.44-.11-.62-.28-.17-.17-.25-.39-.24-.64h0Z"/>
    <path class="st18" d="M266.61,433.06c0-.24.08-.44.25-.62.17-.17.37-.27.63-.28,1.22,0,2.42,0,3.62.01,1.2,0,2.41.02,3.62.04.96.02,1.86.02,2.7.02h2.39c.25,0,.47.09.64.26s.26.39.26.64-.09.44-.26.62c-.17.17-.39.26-.64.26h-2.39c-.84,0-1.74,0-2.7-.02h-.31c.03,1.72.04,3.79.04,6.19s-.03,5.18-.06,8.32c0,.24-.09.44-.27.62-.18.17-.39.25-.63.24-.25,0-.46-.09-.63-.26s-.25-.39-.25-.64c.03-3.14.05-5.91.06-8.31,0-2.4,0-4.46-.04-6.18h-1.18c-.51-.02-1.09-.02-1.74-.02h-2.21c-.25.02-.47-.06-.64-.24-.17-.17-.26-.39-.26-.64h0Z"/>
    <path class="st73" d="M283.99,448.62c.02-.54.04-2.85.07-6.94v-8.52c.02-.25.11-.47.3-.66.18-.19.41-.28.67-.28.19,0,.32,0,.4-.02h.47c.76-.05,1.47-.07,2.13-.07.98,0,2,.09,3.05.27s2,.52,2.84,1.01c1.45.87,2.15,2.21,2.11,4.03-.03,1.28-.39,2.34-1.07,3.17-.68.84-1.63,1.4-2.87,1.68.8,1.15,1.52,2.21,2.14,3.18s1.19,1.86,1.69,2.66c.13.21.16.43.09.66-.06.24-.2.42-.4.54-.16.09-.32.14-.47.14-.32,0-.56-.14-.73-.43-.62-.98-1.27-2-1.98-3.08-.7-1.07-1.46-2.19-2.29-3.36-.02-.02-.02-.03-.02-.05-.24.03-.49.05-.75.05h-.82c-.41,0-.84,0-1.3-.02s-.94-.05-1.44-.09c-.02,3.65-.04,5.71-.07,6.18,0,.24-.09.44-.26.62-.17.17-.39.26-.64.26-.24-.02-.44-.11-.62-.28-.17-.17-.26-.39-.26-.64h.03ZM285.84,440.69c1.07.09,2.04.14,2.89.14.65,0,1.29-.03,1.93-.08.64-.05,1.22-.2,1.75-.43.53-.23.97-.58,1.31-1.04s.54-1.1.57-1.91c.03-1.14-.39-1.97-1.28-2.49-.38-.22-.79-.39-1.22-.52-.43-.13-.88-.23-1.34-.3-.46-.07-.92-.11-1.37-.13-.46-.02-.9-.02-1.33-.02h-.85c-.3,0-.61,0-.92.02-.02,0-.04,0-.07.01-.03,0-.06.01-.07.01v6.73h0Z"/>
    <path class="st12" d="M301.28,433.21v7.44c.02.25.02.54.02.85v2.98c0,1.78,0,3.15-.02,4.1,0,.24-.09.44-.26.62-.17.17-.39.26-.64.26-.24-.02-.44-.11-.62-.28-.17-.17-.26-.39-.26-.64.02-.92.02-2.26.02-4.03v-2.98c0-.32,0-.61-.02-.88v-7.48c.02-.24.11-.44.28-.62.17-.17.39-.26.64-.26.24.02.44.11.6.27.17.17.25.36.25.58v.07h.01Z"/>
    <path class="st42" d="M304.14,448.6c0-.68.02-3.24.07-7.7,0-2.59.02-5.19.07-7.79,0-.25.09-.46.26-.63s.39-.25.64-.25c.03,0,.07,0,.11.01.04,0,.07.01.08.01h4.93c.57,0,1.07.1,1.52.3.44.2.87.49,1.28.89.92.87,1.36,1.97,1.33,3.32-.02.9-.37,1.7-1.07,2.39.47.19.91.44,1.31.75s.75.66,1.05,1.07c.3.4.54.83.71,1.29.17.46.26.94.26,1.44.02,1.69-.51,3.13-1.59,4.31-.49.54-1,.93-1.54,1.17-.54.24-1.17.37-1.89.37h-6.01c-.24,0-.4,0-.47-.02-.06,0-.12,0-.17-.02s-.09-.02-.12-.02c-.22-.03-.41-.13-.56-.3-.15-.17-.22-.36-.2-.58h0ZM308.52,447.75h2.05c.53,0,.91,0,1.15.02.81,0,1.51-.33,2.11-.99.36-.41.64-.87.84-1.37.2-.5.28-1.07.25-1.68-.02-.41-.11-.8-.28-1.16-.17-.36-.4-.68-.69-.96-.28-.28-.61-.5-.97-.67-.36-.17-.74-.28-1.14-.31-.39-.03-.73-.05-1.02-.07-.28-.02-.51-.02-.69-.02-.32.02-.63.03-.95.04-.32,0-.65.01-.99.01h-2.2v.33c-.05,2.29-.07,4.58-.07,6.87h1.36c.43,0,.85,0,1.24-.02v-.02ZM305.99,438.75c.08.02.18.02.31.02h.45c.38-.02.74-.03,1.09-.04.35,0,.68-.01.99-.01.22,0,.43,0,.64.01.21,0,.41.01.62.01.05-.02.16-.02.33-.02.28-.03.56-.11.83-.22.27-.12.5-.27.71-.45.2-.18.37-.39.5-.63s.19-.47.19-.71c0-.33-.05-.65-.15-.97s-.26-.6-.46-.85c-.21-.25-.45-.46-.72-.62-.28-.16-.6-.24-.96-.24h-4.31v1.68c-.02.43-.02.82-.02,1.18v1c-.02.09-.02.21-.02.35v.5h-.02Z"/>
    <path class="st60" d="M319.94,443.37v-1.76c0-.51,0-.97.02-1.38,0-.09,0-.25.01-.45,0-.21.01-.37.01-.5,0-.06,0-.17.01-.33,0-.16.01-.31.01-.45v-.19c0-.41.02-2.14.07-5.19,0-.24.09-.44.26-.62.17-.17.38-.26.62-.26s.47.09.64.26.26.39.26.64c-.05,3.03-.07,4.76-.07,5.19l-.02.43v.54c0,.13,0,.3-.01.51,0,.21-.01.37-.01.46-.02.4-.02.85-.02,1.36v1.76c-.02,1,.18,1.82.59,2.49.36.58.82,1,1.37,1.25.44.25.94.42,1.49.51s1.08.13,1.59.13c1.28-.03,2.28-.43,3-1.21.72-.77,1.11-1.79,1.17-3.05.03-.66.06-1.41.07-2.25s.02-1.77.02-2.79c0-.41,0-.96-.02-1.63-.02-.68-.02-1.4-.02-2.15-.02-.32-.02-.61-.02-.88v-.71c-.02-.24.06-.45.24-.63.17-.18.39-.27.64-.27s.44.08.62.25c.17.17.27.38.28.63,0,.58,0,1.16.01,1.74,0,.58.02,1.16.04,1.74v1.14c0,.32,0,.58.02.78,0,1.04,0,1.99-.02,2.84s-.04,1.62-.07,2.3c-.05.87-.22,1.66-.51,2.38s-.69,1.34-1.2,1.86-1.11.93-1.82,1.22-1.51.45-2.39.49c-.57,0-1.14-.04-1.72-.13s-1.13-.24-1.66-.45c-.53-.21-1.02-.49-1.47-.84s-.83-.78-1.15-1.3c-.6-.98-.88-2.13-.85-3.46v-.02Z"/>
    <path class="st49" d="M334.07,433.06c0-.24.08-.44.25-.62.17-.17.37-.27.63-.28,1.22,0,2.42,0,3.62.01,1.2,0,2.41.02,3.62.04.96.02,1.86.02,2.7.02h2.39c.25,0,.47.09.64.26s.26.39.26.64-.09.44-.26.62c-.17.17-.39.26-.64.26h-2.39c-.84,0-1.74,0-2.7-.02h-.31c.03,1.72.04,3.79.04,6.19s-.03,5.18-.06,8.32c0,.24-.09.44-.27.62-.18.17-.39.25-.63.24-.25,0-.46-.09-.63-.26s-.25-.39-.25-.64c.03-3.14.05-5.91.06-8.31,0-2.4,0-4.46-.04-6.18h-1.18c-.51-.02-1.09-.02-1.74-.02h-2.21c-.25.02-.47-.06-.64-.24-.17-.17-.26-.39-.26-.64h0Z"/>
    <path class="st11" d="M345.75,448.15c.92-2.26,1.87-4.66,2.85-7.21.99-2.55,2.02-5.28,3.09-8.18.08-.17.19-.31.34-.4s.31-.14.49-.14c.11,0,.19,0,.24.02.35.02.58.2.71.54.32.9.62,1.7.92,2.4.3.7.54,1.32.73,1.86.06.17.17.45.31.82.14.37.32.85.54,1.43l.69,1.82s.04.12.08.23c.04.1.08.22.13.34.05.13.09.25.14.37s.09.22.12.3c.47,1.25.9,2.36,1.27,3.34s.71,1.83,1.03,2.56c.09.22.09.45-.01.67-.1.23-.26.39-.49.49-.09.05-.21.07-.33.07-.39,0-.67-.19-.83-.57-.21-.5-.41-1.02-.62-1.54-.21-.52-.4-1.04-.59-1.56h-2.27c-.74,0-1.48,0-2.2.02h-3.5c-.06.16-.19.49-.37.98s-.45,1.16-.82,2c-.16.38-.43.57-.83.57-.13,0-.24-.02-.33-.07-.22-.11-.38-.28-.49-.5-.1-.22-.11-.44-.01-.66h0ZM352.09,444.05c.58-.02,1.19-.02,1.81-.02h1.98c-.05-.13-.12-.31-.21-.54-.09-.24-.16-.4-.19-.5-.33-.9-.67-1.79-1.01-2.66s-.68-1.76-1.03-2.66c-.13-.38-.26-.75-.4-1.12-.14-.37-.29-.74-.45-1.1-.66,1.74-1.27,3.32-1.81,4.75s-1.05,2.72-1.5,3.87h2.82v-.02Z"/>
    <path class="st94" d="M362.77,448.62c.02-.54.04-2.85.07-6.94v-8.52c.02-.25.11-.47.3-.66.18-.19.41-.28.67-.28.19,0,.32,0,.4-.02h.47c.76-.05,1.47-.07,2.13-.07.98,0,2,.09,3.05.27s2,.52,2.84,1.01c1.45.87,2.16,2.21,2.11,4.03-.03,1.28-.39,2.34-1.07,3.17s-1.63,1.4-2.87,1.68c.8,1.15,1.52,2.21,2.14,3.18.62.97,1.19,1.86,1.69,2.66.13.21.16.43.09.66-.06.24-.2.42-.4.54-.16.09-.32.14-.47.14-.32,0-.56-.14-.73-.43-.62-.98-1.27-2-1.98-3.08-.7-1.07-1.46-2.19-2.29-3.36-.02-.02-.02-.03-.02-.05-.24.03-.49.05-.75.05h-.82c-.41,0-.84,0-1.3-.02s-.94-.05-1.44-.09c-.02,3.65-.04,5.71-.07,6.18,0,.24-.09.44-.26.62-.17.17-.39.26-.64.26-.24-.02-.44-.11-.62-.28-.17-.17-.26-.39-.26-.64h.03ZM364.62,440.69c1.07.09,2.04.14,2.89.14.65,0,1.29-.03,1.93-.08.64-.05,1.22-.2,1.75-.43.53-.23.97-.58,1.31-1.04.35-.47.54-1.1.57-1.91.03-1.14-.39-1.97-1.28-2.49-.38-.22-.79-.39-1.22-.52-.43-.13-.88-.23-1.34-.3-.46-.07-.92-.11-1.37-.13s-.9-.02-1.33-.02h-.85c-.3,0-.61,0-.92.02-.02,0-.04,0-.07.01-.03,0-.06.01-.07.01v6.73h0Z"/>
    <path class="st53" d="M380.06,433.21v7.44c.02.25.02.54.02.85v2.98c0,1.78,0,3.15-.02,4.1,0,.24-.09.44-.26.62s-.39.26-.64.26c-.24-.02-.44-.11-.62-.28s-.26-.39-.26-.64c.02-.92.02-2.26.02-4.03v-2.98c0-.32,0-.61-.02-.88v-7.48c.02-.24.11-.44.28-.62.17-.17.39-.26.64-.26.24.02.44.11.6.27.17.17.25.36.25.58v.07h.01Z"/>
    <path class="st65" d="M382.38,440.9c.02-1.18.2-2.3.56-3.34s.86-1.96,1.53-2.75c.66-.79,1.47-1.43,2.43-1.93s2.04-.8,3.26-.91c.03-.01.07-.02.12-.02.06,0,.1,0,.12.02,2.64.09,4.69,1.15,6.16,3.17,1.29,1.8,1.84,3.96,1.63,6.49-.09,1.12-.35,2.19-.76,3.21s-.96,1.92-1.65,2.69-1.51,1.39-2.46,1.85-2.03.69-3.23.69c-1.37,0-2.55-.26-3.53-.78s-1.85-1.37-2.6-2.56c-1.06-1.69-1.58-3.63-1.56-5.83h-.02ZM385.43,445.78c.55.88,1.2,1.52,1.95,1.92.75.4,1.63.59,2.64.59s1.82-.19,2.58-.57,1.4-.88,1.94-1.5.96-1.35,1.28-2.17.51-1.67.57-2.56c.17-2.12-.26-3.89-1.3-5.33-1.14-1.59-2.78-2.4-4.93-2.42-.98.09-1.84.35-2.58.76s-1.37.94-1.87,1.58c-.5.64-.89,1.37-1.15,2.2-.26.83-.4,1.71-.41,2.64-.02,1.85.41,3.47,1.28,4.85h0Z"/>
    <path class="st21" d="M409.19,448.62c.08-3.47.13-6.54.15-9.21.02-2.67.03-4.96.01-6.87,0-.25.09-.46.26-.64s.38-.26.62-.26.46.08.64.25c.17.17.26.38.26.63.02,1.93.01,4.23-.01,6.9s-.08,5.76-.15,9.25c-.02.25-.11.46-.28.63s-.39.25-.64.25c-.24-.02-.44-.11-.62-.28-.17-.17-.25-.39-.24-.64h0Z"/>
    <path class="st46" d="M423.37,432.31c.71.02,1.38.03,2.01.04.63,0,1.24.01,1.82.01.9,0,1.72,0,2.47-.02s1.44-.04,2.07-.07h.07c.27,0,.47.09.6.27s.21.38.21.59-.06.41-.19.6-.34.29-.63.31c-1.44.05-3.23.07-5.38.07h-2.25v.44c0,.2,0,.42.01.68,0,.25.01.51.01.77v.7h1.71c.55,0,1.08,0,1.59-.02h.47c.69-.02,1.32-.02,1.87-.02h1.44c.28,0,.5.09.64.27s.21.39.21.62-.07.43-.21.62c-.14.18-.36.27-.64.27h-1.44c-.55,0-1.17,0-1.85.02h-.47c-.51.02-1.03.02-1.59.02h-1.71v4.5c0,.14,0,.3.01.47,0,.17.01.33.01.47v3.79h1.75c.57,0,1.1,0,1.61-.02h.5c.73-.02,1.38-.02,1.95-.02h1.55c.28,0,.5.09.64.27s.21.39.21.62-.07.43-.21.62c-.14.18-.36.27-.64.27h-1.53c-.58,0-1.23,0-1.95.02h-.5c-.71.02-1.4.02-2.07.02h-2.19c-.24.02-.44-.06-.62-.24-.17-.17-.26-.39-.26-.64-.02-.28-.02-.8-.02-1.54v-3.6c-.02-.17-.02-.33-.02-.49v-1.72c0-4.03-.02-6.61-.07-7.74,0-.3.08-.58.24-.83s.4-.38.73-.38h.04Z"/>
    <path class="st43" d="M436.08,433.16c.02-.24.11-.44.28-.62.17-.17.39-.26.64-.26.19.03.39.11.59.24.21.13.35.28.43.45.24.6.67,1.62,1.3,3.05.63,1.44,1.44,3.3,2.44,5.59.02.02.03.04.05.08.02.04.03.07.05.08.11.27.34.81.7,1.61.36.81.83,1.89,1.43,3.24.13-.3.29-.68.5-1.14.21-.46.44-.99.71-1.61s.48-1.11.64-1.48c.16-.37.26-.62.31-.75.02-.05.04-.1.07-.17.98-1.97,1.74-3.68,2.3-5.13.55-1.45,1.02-2.62,1.4-3.52.16-.35.41-.52.76-.52.14,0,.28.03.42.09.13.06.25.15.34.25s.16.23.19.38.02.31-.05.49h-.02c-.02.76-.02,1.74-.01,2.96s.02,2.66.04,4.33v.85c.03,3.13.03,5.49,0,7.08-.02.24-.11.44-.28.62-.17.17-.39.26-.64.26-.24-.02-.44-.11-.6-.28-.17-.17-.25-.39-.25-.64.03-1.55.03-3.88,0-7.01v-.88c-.02-.41-.02-.87-.02-1.37v-1.68c-.21.49-.47,1.1-.78,1.84-.32.73-.7,1.6-1.14,2.59,0,.06-.02.12-.07.17-.08.17-.23.54-.46,1.09s-.55,1.29-.96,2.2c-.41.92-.73,1.64-.96,2.18s-.38.89-.46,1.07c-.09.22-.25.38-.47.47l-.19.09c-.16.06-.28.09-.35.09-.35,0-.62-.18-.81-.54-.08-.16-.23-.5-.46-1.04-.23-.54-.55-1.26-.96-2.18-.41-.92-.74-1.65-.98-2.19-.25-.54-.41-.92-.49-1.12-.02-.05-.04-.1-.07-.17-.41-.84-.8-1.7-1.16-2.58s-.74-1.78-1.14-2.68v3.58c.02.13.02.26.02.4v.45c.02,1.66.02,3.08.01,4.25s-.02,2.12-.04,2.83c0,.24-.09.44-.26.62s-.39.26-.64.26c-.24-.02-.44-.11-.62-.28s-.26-.39-.26-.64c.02-.69.03-1.62.04-2.78,0-1.16,0-2.57-.01-4.23v-.46c0-.15,0-.29-.02-.42-.02-3.6-.02-6.09,0-7.48l-.03.02Z"/>
    <path class="st41" d="M454.91,448.62c.02-.54.04-2.85.07-6.94v-8.52c.02-.25.11-.47.3-.66s.41-.28.67-.28c.19,0,.32,0,.4-.02h.47c.76-.05,1.47-.07,2.13-.07.98,0,2,.09,3.05.27s2,.52,2.84,1.01c1.45.87,2.15,2.21,2.11,4.03-.03,1.12-.27,2.02-.71,2.7-.44.68-1.02,1.2-1.73,1.57-.71.37-1.51.62-2.39.73s-1.78.18-2.68.18c-.41,0-.84-.01-1.29-.04-.45-.02-.92-.05-1.41-.08-.02,3.65-.04,5.71-.07,6.18,0,.24-.09.44-.26.62s-.39.26-.64.26c-.24-.02-.44-.11-.62-.28-.17-.17-.26-.39-.26-.64l.02-.02ZM456.76,440.69c1.07.09,2.04.14,2.89.14.65,0,1.29-.03,1.93-.08.64-.05,1.22-.2,1.75-.43.53-.23.97-.58,1.31-1.04.35-.47.54-1.1.57-1.91.03-1.14-.39-1.97-1.28-2.49-.38-.22-.79-.39-1.22-.52-.43-.13-.88-.23-1.34-.3-.46-.07-.92-.11-1.37-.13-.46-.02-.9-.02-1.33-.02h-.85c-.3,0-.61,0-.92.02-.02,0-.04,0-.07.01-.03,0-.05.01-.07.01v6.73h0Z"/>
    <path class="st55" d="M470.25,448.62c.02-.54.04-2.85.07-6.94v-8.52c.02-.25.11-.47.3-.66s.41-.28.67-.28c.19,0,.32,0,.4-.02h.47c.76-.05,1.47-.07,2.13-.07.98,0,2,.09,3.05.27s2,.52,2.84,1.01c1.45.87,2.15,2.21,2.11,4.03-.03,1.28-.39,2.34-1.07,3.17-.68.84-1.63,1.4-2.87,1.68.8,1.15,1.52,2.21,2.14,3.18.62.97,1.19,1.86,1.69,2.66.13.21.16.43.09.66-.06.24-.2.42-.4.54-.16.09-.32.14-.47.14-.32,0-.56-.14-.73-.43-.62-.98-1.28-2-1.98-3.08-.7-1.07-1.46-2.19-2.29-3.36-.02-.02-.02-.03-.02-.05-.24.03-.49.05-.75.05h-.82c-.41,0-.84,0-1.3-.02s-.94-.05-1.44-.09c-.02,3.65-.04,5.71-.07,6.18,0,.24-.09.44-.26.62s-.39.26-.64.26c-.24-.02-.44-.11-.62-.28-.17-.17-.26-.39-.26-.64h.03ZM472.1,440.69c1.07.09,2.04.14,2.89.14.65,0,1.29-.03,1.93-.08.64-.05,1.22-.2,1.75-.43.53-.23.97-.58,1.31-1.04.35-.47.54-1.1.57-1.91.03-1.14-.39-1.97-1.28-2.49-.38-.22-.79-.39-1.22-.52-.43-.13-.88-.23-1.34-.3-.46-.07-.92-.11-1.37-.13-.46-.02-.9-.02-1.33-.02h-.85c-.3,0-.61,0-.92.02-.02,0-.04,0-.07.01-.03,0-.05.01-.07.01v6.73h0Z"/>
    <path class="st69" d="M486.29,432.31c.71.02,1.38.03,2.01.04.63,0,1.24.01,1.82.01.9,0,1.72,0,2.47-.02s1.44-.04,2.07-.07h.07c.27,0,.47.09.6.27s.21.38.21.59-.06.41-.19.6-.34.29-.63.31c-1.44.05-3.23.07-5.38.07h-2.25v.44c0,.2,0,.42.01.68,0,.25.01.51.01.77v.7h1.71c.55,0,1.08,0,1.59-.02h.47c.69-.02,1.32-.02,1.87-.02h1.44c.28,0,.5.09.64.27s.21.39.21.62-.07.43-.21.62c-.14.18-.36.27-.64.27h-1.44c-.55,0-1.17,0-1.85.02h-.47c-.51.02-1.03.02-1.59.02h-1.71v4.5c0,.14,0,.3.01.47,0,.17.01.33.01.47v3.79h1.75c.57,0,1.1,0,1.61-.02h.5c.73-.02,1.38-.02,1.95-.02h1.55c.28,0,.5.09.64.27s.21.39.21.62-.07.43-.21.62c-.14.18-.36.27-.64.27h-1.53c-.58,0-1.23,0-1.95.02h-.5c-.71.02-1.4.02-2.07.02h-2.19c-.24.02-.44-.06-.62-.24-.17-.17-.26-.39-.26-.64-.02-.28-.02-.8-.02-1.54v-3.6c-.02-.17-.02-.33-.02-.49v-1.72c0-4.03-.02-6.61-.07-7.74,0-.3.08-.58.24-.83s.4-.38.73-.38h.04Z"/>
    <path class="st51" d="M498.81,443.34c.25,0,.47.08.65.25s.27.38.27.63c.02.71.16,1.3.43,1.78.27.47.62.86,1.07,1.15.44.29.95.5,1.52.62s1.16.18,1.78.18c.44,0,.91-.04,1.4-.13s.96-.23,1.4-.43c.44-.2.83-.47,1.15-.8.32-.34.53-.76.63-1.27.14-.65,0-1.29-.4-1.92-.44-.66-1.14-1.13-2.08-1.4l-2.68-.69c-.32-.08-.65-.17-.99-.28-.35-.11-.7-.23-1.04-.37-.35-.13-.68-.28-1-.45s-.6-.35-.85-.56c-1.07-.88-1.53-2.09-1.37-3.62.08-.74.32-1.36.71-1.86.39-.5.88-.9,1.44-1.22.57-.32,1.19-.54,1.87-.67s1.33-.2,1.97-.2c.71.02,1.4.13,2.08.33.68.21,1.28.51,1.81.9.53.4.95.88,1.28,1.47.32.58.49,1.27.51,2.06.02.24-.06.44-.24.62-.17.17-.38.27-.62.28-.25,0-.47-.08-.64-.25s-.27-.38-.28-.63c0-.57-.13-1.05-.39-1.43-.26-.39-.6-.7-1.02-.92-.42-.23-.88-.39-1.37-.5-.5-.1-.98-.15-1.46-.15-.36,0-.76.04-1.2.13-.43.09-.84.23-1.23.42s-.71.43-.98.73-.43.66-.47,1.09c-.09.9.13,1.57.66,2.01.27.22.67.45,1.21.7.54.25,1.23.47,2.08.67.09.02.29.06.59.14s.6.16.91.24.58.15.82.21c.24.06.35.09.33.09,1.39.35,2.43,1.05,3.13,2.11.69,1.03.91,2.12.64,3.29-.17.76-.48,1.39-.91,1.91-.43.51-.95.93-1.55,1.24-.6.32-1.25.54-1.94.67s-1.39.2-2.08.2c-.9,0-1.73-.11-2.49-.33s-1.42-.56-1.98-1.01-1.01-1.01-1.34-1.69-.52-1.48-.57-2.42c-.02-.25.06-.46.24-.64s.38-.27.62-.28h-.03Z"/>
    <path class="st35" d="M512.88,448.15c.92-2.26,1.87-4.66,2.85-7.21.99-2.55,2.02-5.28,3.09-8.18.08-.17.19-.31.34-.4s.31-.14.49-.14c.11,0,.19,0,.24.02.35.02.58.2.71.54.32.9.62,1.7.92,2.4.3.7.54,1.32.73,1.86.06.17.17.45.31.82s.32.85.54,1.43l.69,1.82s.04.12.08.23c.04.1.08.22.13.34.05.13.09.25.14.37s.09.22.12.3c.47,1.25.9,2.36,1.27,3.34s.71,1.83,1.03,2.56c.09.22.09.45-.01.67-.1.23-.26.39-.49.49-.09.05-.21.07-.33.07-.39,0-.67-.19-.83-.57-.21-.5-.41-1.02-.62-1.54-.21-.52-.4-1.04-.59-1.56h-2.27c-.74,0-1.48,0-2.2.02h-3.5c-.06.16-.19.49-.37.98s-.45,1.16-.82,2c-.16.38-.43.57-.83.57-.13,0-.24-.02-.33-.07-.22-.11-.38-.28-.49-.5-.1-.22-.11-.44-.01-.66h.01ZM519.22,444.05c.58-.02,1.19-.02,1.81-.02h1.98c-.05-.13-.12-.31-.21-.54-.09-.24-.16-.4-.19-.5-.33-.9-.67-1.79-1.01-2.66-.34-.88-.68-1.76-1.03-2.66-.13-.38-.26-.75-.4-1.12s-.29-.74-.45-1.1c-.66,1.74-1.27,3.32-1.81,4.75s-1.05,2.72-1.5,3.87h2.82v-.02Z"/>
    <path class="st23" d="M529.9,448.62c.02-.54.04-2.85.07-6.94v-8.52c.01-.25.11-.47.3-.66.18-.19.41-.28.67-.28.19,0,.32,0,.4-.02h.47c.76-.05,1.47-.07,2.13-.07.98,0,2,.09,3.05.27s2,.52,2.84,1.01c1.45.87,2.16,2.21,2.11,4.03-.03,1.28-.39,2.34-1.07,3.17s-1.63,1.4-2.87,1.68c.8,1.15,1.52,2.21,2.14,3.18s1.19,1.86,1.69,2.66c.13.21.16.43.09.66-.06.24-.2.42-.4.54-.16.09-.32.14-.47.14-.32,0-.56-.14-.73-.43-.62-.98-1.28-2-1.98-3.08-.7-1.07-1.46-2.19-2.29-3.36-.02-.02-.02-.03-.02-.05-.24.03-.49.05-.75.05h-.82c-.41,0-.84,0-1.3-.02s-.94-.05-1.44-.09c-.02,3.65-.04,5.71-.07,6.18,0,.24-.09.44-.26.62-.17.17-.39.26-.64.26-.24-.02-.44-.11-.62-.28-.17-.17-.26-.39-.26-.64h.03ZM531.75,440.69c1.07.09,2.04.14,2.89.14.65,0,1.29-.03,1.93-.08s1.22-.2,1.75-.43c.53-.23.97-.58,1.31-1.04s.54-1.1.57-1.91c.03-1.14-.39-1.97-1.28-2.49-.38-.22-.79-.39-1.22-.52-.43-.13-.88-.23-1.34-.3-.46-.07-.92-.11-1.37-.13s-.9-.02-1.33-.02h-.85c-.3,0-.61,0-.92.02-.02,0-.04,0-.07.01-.03,0-.06.01-.07.01v6.73h0Z"/>
    <path class="st2" d="M547.19,433.21v7.44c.02.25.02.54.02.85v2.98c0,1.78,0,3.15-.02,4.1,0,.24-.09.44-.26.62s-.39.26-.64.26c-.24-.02-.44-.11-.62-.28s-.26-.39-.26-.64c.01-.92.02-2.26.02-4.03v-2.98c0-.32,0-.61-.02-.88v-7.48c.01-.24.11-.44.28-.62s.39-.26.64-.26c.24.02.44.11.6.27s.25.36.25.58v.07h.01Z"/>
    <path class="st57" d="M549.18,448.15c.92-2.26,1.87-4.66,2.85-7.21.99-2.55,2.02-5.28,3.09-8.18.08-.17.19-.31.34-.4s.31-.14.49-.14c.11,0,.19,0,.24.02.35.02.58.2.71.54.32.9.62,1.7.92,2.4.3.7.54,1.32.73,1.86.06.17.17.45.31.82s.32.85.54,1.43l.69,1.82s.04.12.08.23c.04.1.08.22.13.34.05.13.09.25.14.37s.09.22.12.3c.47,1.25.9,2.36,1.27,3.34s.71,1.83,1.03,2.56c.09.22.09.45-.01.67-.1.23-.26.39-.49.49-.09.05-.21.07-.33.07-.39,0-.67-.19-.83-.57-.21-.5-.41-1.02-.62-1.54-.21-.52-.4-1.04-.59-1.56h-2.27c-.74,0-1.48,0-2.2.02h-3.5c-.06.16-.19.49-.37.98s-.45,1.16-.82,2c-.16.38-.43.57-.83.57-.13,0-.24-.02-.33-.07-.22-.11-.38-.28-.49-.5-.1-.22-.11-.44-.01-.66h.01ZM555.53,444.05c.58-.02,1.19-.02,1.81-.02h1.98c-.05-.13-.12-.31-.21-.54-.09-.24-.16-.4-.19-.5-.33-.9-.67-1.79-1.01-2.66-.34-.88-.68-1.76-1.03-2.66-.13-.38-.26-.75-.4-1.12s-.29-.74-.45-1.1c-.66,1.74-1.27,3.32-1.81,4.75s-1.05,2.72-1.5,3.87h2.82v-.02Z"/>
    <path class="st80" d="M566.35,433.16c.01-.24.11-.44.28-.62s.39-.26.64-.26c.24.02.44.11.6.28.17.17.25.39.25.64-.03,1.36-.03,3.84,0,7.44.02.13.02.26.02.4v6.68h2.01c.87,0,1.75,0,2.65-.01.9,0,1.82-.04,2.77-.08.25-.02.47.06.64.22s.26.38.26.63c.02.25-.06.47-.23.64s-.38.26-.63.26c-1.39.03-2.77.06-4.14.08s-2.75.04-4.12.04c-.28-.03-.52-.12-.72-.27-.2-.15-.3-.38-.3-.7.01-.69.03-1.62.04-2.78s0-2.57-.01-4.23v-.46c0-.15,0-.29-.02-.42-.02-3.6-.02-6.09,0-7.48h0Z"/>
    <path class="st61" d="M587.47,448.62c.08-3.47.13-6.54.15-9.21.02-2.67.03-4.96.01-6.87,0-.25.09-.46.26-.64s.38-.26.62-.26.46.08.64.25c.17.17.26.38.26.63.02,1.93.01,4.23-.01,6.9s-.08,5.76-.15,9.25c-.02.25-.11.46-.28.63-.17.17-.39.25-.64.25-.24-.02-.44-.11-.62-.28-.17-.17-.25-.39-.24-.64h0Z"/>
    <path class="st99" d="M601.06,448.76v-.64c0-.33,0-.78.02-1.35v-5.94c.03-3.44.03-5.97,0-7.6,0-.24.09-.44.26-.62s.39-.27.64-.28h.07l.05.02h3.03c.38.02.76.02,1.16.02h1.93c.31,0,.62,0,.95.01.32,0,.63.01.91.01h.64c.24.02.44.11.62.28.17.17.25.39.24.64,0,.24-.09.44-.26.62s-.39.25-.64.24h-.62c-.28,0-.59,0-.91-.01-.32,0-.64-.01-.94-.01h-1.93c-.4,0-.79,0-1.17-.02h-2.23v3.58c1.64-.05,3.27-.07,4.88-.07h.19c.28,0,.5.09.64.27s.21.39.21.62-.07.43-.21.62c-.14.18-.36.27-.64.27h-.19c-1.59,0-3.22.02-4.88.07,0,.14,0,.36-.01.66,0,.3-.01.54-.01.71v5.92c-.02.57-.02,1.02-.02,1.35v.64c0,.28-.09.5-.27.65s-.38.23-.6.23-.43-.08-.62-.23c-.19-.15-.28-.37-.28-.65h-.01Z"/>
    <path class="st37" d="M616.79,433.21v7.44c.02.25.02.54.02.85v2.98c0,1.78,0,3.15-.02,4.1,0,.24-.09.44-.26.62s-.39.26-.64.26c-.24-.02-.44-.11-.62-.28s-.26-.39-.26-.64c.01-.92.02-2.26.02-4.03v-2.98c0-.32,0-.61-.02-.88v-7.48c.01-.24.11-.44.28-.62s.39-.26.64-.26c.24.02.44.11.6.27s.25.36.25.58v.07h.01Z"/>
    <path class="st93" d="M632.75,433.33c-.02.68-.02,1.63-.02,2.87s0,2.77.02,4.57v.85c0,1.56,0,2.94.02,4.12.02,1.17,0,2.15-.02,2.96-.02.24-.11.44-.28.62s-.39.26-.64.26c-.03,0-.07,0-.12-.02s-.08-.02-.09-.02c-.25-.03-.46-.15-.62-.35-3.43-4.45-6.42-8.86-8.97-13.24v4.71c.02.25.02.54.02.85v2.98c0,1.78,0,3.15-.02,4.1,0,.24-.09.44-.26.62s-.39.26-.64.26c-.24-.02-.44-.11-.62-.28s-.26-.39-.26-.64c.01-.92.02-2.26.02-4.03v-2.98c0-.32,0-.61-.02-.88v-7.48c.01-.24.11-.44.28-.62s.39-.26.64-.26c.19.03.36.09.52.19.19.08.33.2.43.35,2.15,3.58,5.1,7.98,8.86,13.19v-5.26c-.02-1.8-.02-3.32-.02-4.57s0-2.22.02-2.91c0-.24.09-.44.26-.62.17-.17.39-.26.64-.26.24.02.44.11.62.28s.26.39.26.64h-.01Z"/>
    <path class="st0" d="M634.71,448.15c.92-2.26,1.87-4.66,2.85-7.21.99-2.55,2.02-5.28,3.09-8.18.08-.17.19-.31.34-.4s.31-.14.49-.14c.11,0,.19,0,.24.02.35.02.58.2.71.54.32.9.62,1.7.92,2.4.3.7.54,1.32.73,1.86.06.17.17.45.31.82s.32.85.54,1.43l.69,1.82s.04.12.08.23c.04.1.08.22.13.34.05.13.09.25.14.37s.09.22.12.3c.47,1.25.9,2.36,1.27,3.34s.71,1.83,1.03,2.56c.09.22.09.45-.01.67-.1.23-.26.39-.49.49-.09.05-.21.07-.33.07-.39,0-.67-.19-.83-.57-.21-.5-.41-1.02-.62-1.54-.21-.52-.4-1.04-.59-1.56h-2.27c-.74,0-1.48,0-2.2.02h-3.5c-.06.16-.19.49-.37.98s-.45,1.16-.82,2c-.16.38-.43.57-.83.57-.13,0-.24-.02-.33-.07-.22-.11-.38-.28-.49-.5-.1-.22-.11-.44-.01-.66h.01ZM641.06,444.05c.58-.02,1.19-.02,1.81-.02h1.98c-.05-.13-.12-.31-.21-.54-.09-.24-.16-.4-.19-.5-.33-.9-.67-1.79-1.01-2.66-.34-.88-.68-1.76-1.03-2.66-.13-.38-.26-.75-.4-1.12s-.29-.74-.45-1.1c-.66,1.74-1.27,3.32-1.81,4.75s-1.05,2.72-1.5,3.87h2.82v-.02Z"/>
    <path class="st9" d="M664.38,433.33c-.02.68-.02,1.63-.02,2.87s0,2.77.02,4.57v.85c0,1.56,0,2.94.02,4.12.02,1.17,0,2.15-.02,2.96-.02.24-.11.44-.28.62s-.39.26-.64.26c-.03,0-.07,0-.12-.02s-.08-.02-.09-.02c-.25-.03-.46-.15-.62-.35-3.43-4.45-6.42-8.86-8.97-13.24v4.71c.02.25.02.54.02.85v2.98c0,1.78,0,3.15-.02,4.1,0,.24-.09.44-.26.62s-.39.26-.64.26c-.24-.02-.44-.11-.62-.28s-.26-.39-.26-.64c.01-.92.02-2.26.02-4.03v-2.98c0-.32,0-.61-.02-.88v-7.48c.01-.24.11-.44.28-.62s.39-.26.64-.26c.19.03.36.09.52.19.19.08.33.2.43.35,2.15,3.58,5.1,7.98,8.86,13.19v-5.26c-.02-1.8-.02-3.32-.02-4.57s0-2.22.02-2.91c0-.24.09-.44.26-.62.17-.17.39-.26.64-.26.24.02.44.11.62.28s.26.39.26.64h-.01Z"/>
    <path class="st44" d="M668.19,435.48c.76-1.07,1.69-1.92,2.81-2.54,1.11-.62,2.32-.94,3.63-.94.71,0,1.39.11,2.02.32.64.21,1.22.51,1.75.9.53.39.99.85,1.4,1.4.4.54.72,1.15.96,1.81.08.22.06.44-.05.66s-.28.37-.5.45c-.05.03-.1.05-.15.05h-.15c-.17,0-.34-.05-.5-.15s-.27-.25-.33-.44c-.32-.99-.89-1.78-1.72-2.34-.83-.57-1.76-.85-2.78-.85s-1.94.23-2.78.7-1.55,1.12-2.12,1.98c-.96,1.44-1.4,3.19-1.3,5.26.03.79.2,1.56.5,2.31s.71,1.42,1.22,2.01c.51.59,1.12,1.07,1.82,1.42.7.36,1.47.53,2.31.53.66,0,1.25-.13,1.78-.4.52-.27.98-.62,1.39-1.04.4-.43.75-.91,1.05-1.46s.55-1.09.76-1.65c.16-.39.44-.59.85-.59.06,0,.16.02.28.05.24.06.41.21.51.44s.11.45.04.67c-.25.77-.58,1.51-.98,2.2-.4.7-.89,1.3-1.46,1.82-.57.52-1.21.94-1.92,1.24s-1.5.46-2.37.46c-.25,0-.51-.01-.77-.04-.26-.02-.53-.08-.79-.15-.88-.24-1.69-.61-2.4-1.11-.72-.5-1.33-1.1-1.85-1.78s-.92-1.43-1.21-2.26-.46-1.69-.51-2.59c-.13-2.49.39-4.61,1.56-6.35h0Z"/>
    <path class="st72" d="M686.14,433.21v7.44c.02.25.02.54.02.85v2.98c0,1.78,0,3.15-.02,4.1,0,.24-.09.44-.26.62s-.39.26-.64.26c-.24-.02-.44-.11-.62-.28s-.26-.39-.26-.64c.01-.92.02-2.26.02-4.03v-2.98c0-.32,0-.61-.02-.88v-7.48c.01-.24.11-.44.28-.62s.39-.26.64-.26c.24.02.44.11.6.27s.25.36.25.58v.07h.01Z"/>
    <path class="st62" d="M690.12,432.31c.71.02,1.38.03,2.01.04.63,0,1.24.01,1.82.01.9,0,1.72,0,2.47-.02s1.44-.04,2.07-.07h.07c.27,0,.47.09.6.27s.21.38.21.59-.06.41-.19.6-.34.29-.63.31c-1.44.05-3.23.07-5.38.07h-2.25v.44c0,.2,0,.42.01.68,0,.25.01.51.01.77v.7h1.71c.55,0,1.08,0,1.59-.02h.47c.7-.02,1.32-.02,1.87-.02h1.44c.28,0,.5.09.64.27s.21.39.21.62-.07.43-.21.62c-.14.18-.36.27-.64.27h-1.44c-.55,0-1.17,0-1.85.02h-.47c-.51.02-1.03.02-1.59.02h-1.71v4.5c0,.14,0,.3.01.47s.01.33.01.47v3.79h1.75c.57,0,1.1,0,1.61-.02h.5c.73-.02,1.38-.02,1.95-.02h1.55c.28,0,.5.09.64.27s.21.39.21.62-.07.43-.21.62c-.14.18-.35.27-.64.27h-1.53c-.58,0-1.23,0-1.95.02h-.5c-.71.02-1.4.02-2.07.02h-2.19c-.24.02-.44-.06-.62-.24-.17-.17-.26-.39-.26-.64-.02-.28-.02-.8-.02-1.54v-3.6c-.02-.17-.02-.33-.02-.49v-1.72c0-4.03-.02-6.61-.07-7.74,0-.3.08-.58.24-.83s.4-.38.73-.38h.04Z"/>
    <path class="st68" d="M702.69,448.62c.02-.54.04-2.85.07-6.94v-8.52c.02-.25.11-.47.3-.66s.41-.28.67-.28c.19,0,.32,0,.4-.02h.47c.76-.05,1.47-.07,2.13-.07.98,0,2,.09,3.05.27,1.06.18,2,.52,2.84,1.01,1.45.87,2.16,2.21,2.11,4.03-.03,1.28-.39,2.34-1.07,3.17s-1.63,1.4-2.87,1.68c.81,1.15,1.52,2.21,2.14,3.18s1.19,1.86,1.69,2.66c.13.21.16.43.09.66-.06.24-.2.42-.4.54-.16.09-.32.14-.47.14-.32,0-.56-.14-.73-.43-.62-.98-1.28-2-1.98-3.08-.7-1.07-1.46-2.19-2.29-3.36-.02-.02-.02-.03-.02-.05-.24.03-.49.05-.75.05h-.82c-.41,0-.84,0-1.3-.02-.46-.02-.94-.05-1.45-.09-.02,3.65-.04,5.71-.07,6.18,0,.24-.09.44-.26.62s-.39.26-.64.26c-.24-.02-.44-.11-.62-.28-.17-.17-.26-.39-.26-.64h.04ZM704.54,440.69c1.07.09,2.04.14,2.89.14.65,0,1.29-.03,1.93-.08s1.22-.2,1.75-.43c.53-.23.97-.58,1.31-1.04s.54-1.1.57-1.91c.03-1.14-.39-1.97-1.28-2.49-.38-.22-.79-.39-1.22-.52-.43-.13-.88-.23-1.34-.3-.46-.07-.92-.11-1.37-.13s-.9-.02-1.33-.02h-.85c-.3,0-.61,0-.92.02-.02,0-.04,0-.07.01-.03,0-.06.01-.07.01v6.73h0Z"/>
    <path class="st101" d="M717.07,440.9c.02-1.18.2-2.3.56-3.34s.87-1.96,1.53-2.75c.66-.79,1.47-1.43,2.43-1.93s2.04-.8,3.26-.91c.03-.01.07-.02.12-.02.06,0,.1,0,.12.02,2.64.09,4.69,1.15,6.16,3.17,1.29,1.8,1.84,3.96,1.63,6.49-.09,1.12-.35,2.19-.76,3.21-.41,1.02-.96,1.92-1.65,2.69s-1.51,1.39-2.46,1.85-2.03.69-3.23.69c-1.37,0-2.55-.26-3.53-.78s-1.85-1.37-2.6-2.56c-1.06-1.69-1.58-3.63-1.56-5.83h-.02ZM720.12,445.78c.55.88,1.2,1.52,1.95,1.92.75.4,1.63.59,2.64.59s1.82-.19,2.58-.57,1.41-.88,1.94-1.5c.54-.62.96-1.35,1.28-2.17s.5-1.67.57-2.56c.17-2.12-.26-3.89-1.3-5.33-1.14-1.59-2.78-2.4-4.93-2.42-.98.09-1.84.35-2.58.76s-1.37.94-1.87,1.58c-.51.64-.89,1.37-1.15,2.2-.26.83-.4,1.71-.42,2.64-.02,1.85.41,3.47,1.28,4.85h0Z"/>
  </g>
</svg>